<?xml version="1.0" encoding="utf-8" standalone="no"?>
<!DOCTYPE svg PUBLIC "-//W3C//DTD SVG 1.1//EN"
  "http://www.w3.org/Graphics/SVG/1.1/DTD/svg11.dtd">
<svg height="292.4pt" version="1.1" viewBox="0 0 436.4 292.4" width="436.4pt" xmlns="http://www.w3.org/2000/svg" xmlns:xlink="http://www.w3.org/1999/xlink">
 <metadata>
  <rdf:RDF xmlns:cc="http://creativecommons.org/ns#" xmlns:dc="http://purl.org/dc/elements/1.1/" xmlns:rdf="http://www.w3.org/1999/02/22-rdf-syntax-ns#">
   <cc:Work>
    <dc:type rdf:resource="http://purl.org/dc/dcmitype/StillImage"/>
    <dc:date>2021-11-23T13:13:45.343154</dc:date>
    <dc:format>image/svg+xml</dc:format>
    <dc:creator>
     <cc:Agent>
      <dc:title>Matplotlib v3.4.2, https://matplotlib.org/</dc:title>
     </cc:Agent>
    </dc:creator>
   </cc:Work>
  </rdf:RDF>
 </metadata>
 <defs>
  <style type="text/css">*{stroke-linecap:butt;stroke-linejoin:round;}</style>
 </defs>
 <g id="figure_1">
  <g id="patch_1">
   <path d="M 0 292.4 
L 436.4 292.4 
L 436.4 0 
L 0 0 
z
" style="fill:none;"/>
  </g>
  <g id="axes_1">
   <g id="patch_2">
    <path d="M 74.177501 236.05972 
L 362.222499 236.05972 
L 362.222499 13.852984 
L 74.177501 13.852984 
z
" style="fill:none;"/>
   </g>
   <g id="matplotlib.axis_1">
    <g id="xtick_1">
     <g id="line2d_1">
      <path clip-path="url(#pbfef509ee0)" d="M 86.214572 236.05972 
L 86.214572 13.852984 
" style="fill:none;stroke:#bfbfbf;stroke-dasharray:0.8,2.4;stroke-dashoffset:0;stroke-linecap:round;stroke-linejoin:miter;stroke-width:0.8;"/>
     </g>
     <g id="line2d_2">
      <defs>
       <path d="M 0 0 
L 0 3.5 
" id="m28d30b04e4" style="stroke:#000000;stroke-width:0.8;"/>
      </defs>
      <g>
       <use style="stroke:#000000;stroke-width:0.8;" x="86.214572" xlink:href="#m28d30b04e4" y="236.05972"/>
      </g>
     </g>
     <g id="text_1">
      <!-- $\mathdefault{0}$ -->
      <g transform="translate(82.102429 256.365688)scale(0.18 -0.18)">
       <defs>
        <path d="M 2688 2025 
C 2688 2416 2682 3080 2413 3591 
C 2176 4039 1798 4198 1466 4198 
C 1158 4198 768 4058 525 3597 
C 269 3118 243 2524 243 2025 
C 243 1661 250 1106 448 619 
C 723 -39 1216 -128 1466 -128 
C 1760 -128 2208 -7 2470 600 
C 2662 1042 2688 1559 2688 2025 
z
M 1466 -26 
C 1056 -26 813 325 723 812 
C 653 1188 653 1738 653 2096 
C 653 2588 653 2997 736 3387 
C 858 3929 1216 4096 1466 4096 
C 1728 4096 2067 3923 2189 3400 
C 2272 3036 2278 2607 2278 2096 
C 2278 1680 2278 1169 2202 792 
C 2067 95 1690 -26 1466 -26 
z
" id="CMR17-30" transform="scale(0.015625)"/>
       </defs>
       <use transform="scale(0.996264)" xlink:href="#CMR17-30"/>
      </g>
     </g>
    </g>
    <g id="xtick_2">
     <g id="line2d_3">
      <path clip-path="url(#pbfef509ee0)" d="M 152.207286 236.05972 
L 152.207286 13.852984 
" style="fill:none;stroke:#bfbfbf;stroke-dasharray:0.8,2.4;stroke-dashoffset:0;stroke-linecap:round;stroke-linejoin:miter;stroke-width:0.8;"/>
     </g>
     <g id="line2d_4">
      <g>
       <use style="stroke:#000000;stroke-width:0.8;" x="152.207286" xlink:href="#m28d30b04e4" y="236.05972"/>
      </g>
     </g>
     <g id="text_2">
      <!-- $\mathdefault{250}$ -->
      <g transform="translate(139.870857 256.365688)scale(0.18 -0.18)">
       <defs>
        <path d="M 2669 989 
L 2554 989 
C 2490 536 2438 459 2413 420 
C 2381 369 1920 369 1830 369 
L 602 369 
C 832 619 1280 1072 1824 1597 
C 2214 1967 2669 2402 2669 3035 
C 2669 3790 2067 4224 1395 4224 
C 691 4224 262 3604 262 3030 
C 262 2780 448 2748 525 2748 
C 589 2748 781 2787 781 3010 
C 781 3207 614 3264 525 3264 
C 486 3264 448 3258 422 3245 
C 544 3790 915 4058 1306 4058 
C 1862 4058 2227 3617 2227 3035 
C 2227 2479 1901 2000 1536 1584 
L 262 146 
L 262 0 
L 2515 0 
L 2669 989 
z
" id="CMR17-32" transform="scale(0.015625)"/>
        <path d="M 730 3692 
C 794 3666 1056 3584 1325 3584 
C 1920 3584 2246 3911 2432 4100 
C 2432 4157 2432 4192 2394 4192 
C 2387 4192 2374 4192 2323 4163 
C 2099 4058 1837 3973 1517 3973 
C 1325 3973 1037 3999 723 4139 
C 653 4171 640 4171 634 4171 
C 602 4171 595 4164 595 4037 
L 595 2203 
C 595 2089 595 2057 659 2057 
C 691 2057 704 2070 736 2114 
C 941 2401 1222 2522 1542 2522 
C 1766 2522 2246 2382 2246 1289 
C 2246 1085 2246 715 2054 421 
C 1894 159 1645 25 1370 25 
C 947 25 518 320 403 814 
C 429 807 480 795 506 795 
C 589 795 749 840 749 1038 
C 749 1210 627 1280 506 1280 
C 358 1280 262 1190 262 1011 
C 262 454 704 -128 1382 -128 
C 2042 -128 2669 440 2669 1264 
C 2669 2030 2170 2624 1549 2624 
C 1222 2624 947 2503 730 2274 
L 730 3692 
z
" id="CMR17-35" transform="scale(0.015625)"/>
       </defs>
       <use transform="scale(0.996264)" xlink:href="#CMR17-32"/>
       <use transform="translate(45.690477 0)scale(0.996264)" xlink:href="#CMR17-35"/>
       <use transform="translate(91.380954 0)scale(0.996264)" xlink:href="#CMR17-30"/>
      </g>
     </g>
    </g>
    <g id="xtick_3">
     <g id="line2d_5">
      <path clip-path="url(#pbfef509ee0)" d="M 218.2 236.05972 
L 218.2 13.852984 
" style="fill:none;stroke:#bfbfbf;stroke-dasharray:0.8,2.4;stroke-dashoffset:0;stroke-linecap:round;stroke-linejoin:miter;stroke-width:0.8;"/>
     </g>
     <g id="line2d_6">
      <g>
       <use style="stroke:#000000;stroke-width:0.8;" x="218.2" xlink:href="#m28d30b04e4" y="236.05972"/>
      </g>
     </g>
     <g id="text_3">
      <!-- $\mathdefault{500}$ -->
      <g transform="translate(205.863571 256.365688)scale(0.18 -0.18)">
       <use transform="scale(0.996264)" xlink:href="#CMR17-35"/>
       <use transform="translate(45.690477 0)scale(0.996264)" xlink:href="#CMR17-30"/>
       <use transform="translate(91.380954 0)scale(0.996264)" xlink:href="#CMR17-30"/>
      </g>
     </g>
    </g>
    <g id="xtick_4">
     <g id="line2d_7">
      <path clip-path="url(#pbfef509ee0)" d="M 284.192714 236.05972 
L 284.192714 13.852984 
" style="fill:none;stroke:#bfbfbf;stroke-dasharray:0.8,2.4;stroke-dashoffset:0;stroke-linecap:round;stroke-linejoin:miter;stroke-width:0.8;"/>
     </g>
     <g id="line2d_8">
      <g>
       <use style="stroke:#000000;stroke-width:0.8;" x="284.192714" xlink:href="#m28d30b04e4" y="236.05972"/>
      </g>
     </g>
     <g id="text_4">
      <!-- $\mathdefault{750}$ -->
      <g transform="translate(271.856285 256.365688)scale(0.18 -0.18)">
       <defs>
        <path d="M 2886 3941 
L 2886 4081 
L 1382 4081 
C 634 4081 621 4165 595 4288 
L 480 4288 
L 294 3094 
L 410 3094 
C 429 3215 474 3540 550 3661 
C 589 3712 1062 3712 1171 3712 
L 2579 3712 
L 1869 2661 
C 1395 1954 1069 999 1069 165 
C 1069 89 1069 -128 1299 -128 
C 1530 -128 1530 89 1530 171 
L 1530 465 
C 1530 1508 1709 2196 2003 2636 
L 2886 3941 
z
" id="CMR17-37" transform="scale(0.015625)"/>
       </defs>
       <use transform="scale(0.996264)" xlink:href="#CMR17-37"/>
       <use transform="translate(45.690477 0)scale(0.996264)" xlink:href="#CMR17-35"/>
       <use transform="translate(91.380954 0)scale(0.996264)" xlink:href="#CMR17-30"/>
      </g>
     </g>
    </g>
    <g id="xtick_5">
     <g id="line2d_9">
      <path clip-path="url(#pbfef509ee0)" d="M 350.185428 236.05972 
L 350.185428 13.852984 
" style="fill:none;stroke:#bfbfbf;stroke-dasharray:0.8,2.4;stroke-dashoffset:0;stroke-linecap:round;stroke-linejoin:miter;stroke-width:0.8;"/>
     </g>
     <g id="line2d_10">
      <g>
       <use style="stroke:#000000;stroke-width:0.8;" x="350.185428" xlink:href="#m28d30b04e4" y="236.05972"/>
      </g>
     </g>
     <g id="text_5">
      <!-- $\mathdefault{1000}$ -->
      <g transform="translate(333.736856 256.365688)scale(0.18 -0.18)">
       <defs>
        <path d="M 1702 4058 
C 1702 4192 1696 4192 1606 4192 
C 1357 3916 979 3827 621 3827 
C 602 3827 570 3827 563 3808 
C 557 3795 557 3782 557 3648 
C 755 3648 1088 3686 1344 3839 
L 1344 461 
C 1344 236 1331 160 781 160 
L 589 160 
L 589 0 
C 896 0 1216 0 1523 0 
C 1830 0 2150 0 2458 0 
L 2458 160 
L 2266 160 
C 1715 160 1702 230 1702 458 
L 1702 4058 
z
" id="CMR17-31" transform="scale(0.015625)"/>
       </defs>
       <use transform="scale(0.996264)" xlink:href="#CMR17-31"/>
       <use transform="translate(45.690477 0)scale(0.996264)" xlink:href="#CMR17-30"/>
       <use transform="translate(91.380954 0)scale(0.996264)" xlink:href="#CMR17-30"/>
       <use transform="translate(137.071431 0)scale(0.996264)" xlink:href="#CMR17-30"/>
      </g>
     </g>
    </g>
    <g id="text_6">
     <!-- Episode -->
     <g transform="translate(178.222223 281.0357)scale(0.22 -0.22)">
      <defs>
       <path d="M 4032 4608 
L 186 4608 
L 186 4308 
L 301 4308 
C 819 4308 877 4276 877 4007 
L 877 3823 
L 877 786 
L 877 600 
C 877 332 819 300 301 300 
L 186 300 
L 186 0 
L 4115 0 
L 4243 1696 
L 3962 1696 
C 3878 1252 3731 858 3578 675 
C 3379 421 3014 300 2477 300 
L 2054 300 
C 1862 300 1702 339 1645 396 
C 1600 434 1594 473 1594 608 
L 1594 2240 
L 1722 2240 
C 2112 2240 2272 2200 2400 2063 
C 2566 1893 2630 1683 2643 1297 
L 2944 1297 
L 2944 3392 
L 2643 3392 
C 2611 2782 2355 2540 1747 2540 
L 1594 2540 
L 1594 3989 
C 1594 4263 1651 4308 1997 4308 
L 2330 4308 
C 2893 4308 3168 4250 3386 4070 
C 3597 3904 3750 3545 3846 2969 
L 4122 2969 
L 4032 4608 
z
" id="CenturySchL-Roma-45" transform="scale(0.015625)"/>
       <path d="M 1286 2944 
L 179 2944 
L 179 2638 
L 410 2638 
C 646 2638 685 2593 685 2318 
L 685 -496 
L 685 -750 
C 685 -1006 614 -1050 205 -1050 
L 179 -1050 
L 179 -1280 
L 1843 -1280 
L 1843 -1050 
L 1773 -1050 
C 1357 -1050 1286 -1006 1286 -751 
L 1286 -496 
L 1286 428 
C 1498 58 1741 -89 2131 -89 
C 2874 -89 3424 593 3424 1504 
C 3424 2385 2874 3072 2170 3072 
C 1773 3072 1510 2908 1286 2529 
L 1286 2944 
z
M 2054 2727 
C 2496 2727 2752 2288 2752 1542 
C 2752 721 2490 256 2035 256 
C 1581 256 1280 728 1280 1460 
C 1280 2249 1568 2727 2054 2727 
z
" id="CenturySchL-Roma-70" transform="scale(0.015625)"/>
       <path d="M 1318 2944 
L 115 2944 
L 115 2638 
L 442 2638 
C 678 2638 717 2593 717 2317 
L 717 787 
L 717 531 
C 717 275 646 230 237 230 
L 192 230 
L 192 0 
L 1850 0 
L 1850 230 
L 1805 230 
C 1389 230 1318 274 1318 526 
L 1318 779 
L 1318 2944 
z
M 1018 4581 
C 813 4581 646 4415 646 4211 
C 646 4013 813 3840 1011 3840 
C 1222 3840 1389 4006 1389 4211 
C 1389 4415 1222 4581 1018 4581 
z
" id="CenturySchL-Roma-69" transform="scale(0.015625)"/>
       <path d="M 2496 3072 
L 2272 3072 
L 2086 2842 
C 1856 3021 1626 3097 1306 3097 
C 742 3097 371 2728 371 2173 
C 371 1925 454 1714 595 1588 
C 742 1453 890 1390 1274 1300 
L 1613 1224 
C 2118 1103 2298 975 2298 721 
C 2298 421 2035 211 1658 211 
C 1120 211 736 561 582 1208 
L 326 1208 
L 326 0 
L 550 0 
L 774 250 
C 1037 38 1331 -64 1651 -64 
C 2278 -64 2694 325 2694 918 
C 2694 1198 2605 1414 2426 1561 
C 2272 1695 2144 1746 1754 1828 
L 1434 1899 
C 1082 1975 1082 1975 966 2039 
C 826 2103 742 2236 742 2377 
C 742 2631 986 2816 1338 2816 
C 1581 2816 1779 2733 1958 2561 
C 2099 2420 2170 2293 2272 1999 
L 2496 1999 
L 2496 3072 
z
" id="CenturySchL-Roma-73" transform="scale(0.015625)"/>
       <path d="M 1613 3090 
C 832 3090 218 2397 218 1507 
C 218 636 832 -64 1600 -64 
C 2368 -64 2982 636 2982 1513 
C 2982 2384 2368 3090 1613 3090 
z
M 1613 2816 
C 2061 2816 2310 2352 2310 1513 
C 2310 669 2061 211 1600 211 
C 1139 211 890 669 890 1507 
C 890 2371 1133 2816 1613 2816 
z
" id="CenturySchL-Roma-6f" transform="scale(0.015625)"/>
       <path d="M 2432 0 
L 3546 0 
L 3546 301 
L 3430 301 
C 3085 301 3034 365 3034 766 
L 3034 4722 
L 1779 4722 
L 1779 4416 
L 2157 4416 
C 2387 4416 2432 4370 2432 4091 
L 2432 2624 
C 2195 2950 1920 3097 1549 3097 
C 826 3097 275 2403 275 1485 
C 275 580 806 -64 1549 -64 
C 1952 -64 2227 107 2432 486 
L 2432 0 
z
M 1677 2752 
C 1939 2752 2189 2562 2304 2268 
C 2381 2077 2426 1810 2426 1505 
C 2426 766 2131 281 1670 281 
C 1222 281 947 702 947 1409 
C 947 1785 986 2071 1069 2287 
C 1178 2568 1414 2752 1677 2752 
z
" id="CenturySchL-Roma-64" transform="scale(0.015625)"/>
       <path d="M 2976 1472 
C 2982 2420 2438 3090 1658 3090 
C 838 3090 224 2384 224 1430 
C 224 540 806 -64 1670 -64 
C 2278 -64 2714 236 2976 844 
L 2752 966 
C 2490 473 2221 281 1792 281 
C 1466 281 1229 422 1062 704 
C 947 896 896 1120 902 1472 
L 2976 1472 
z
M 909 1747 
C 909 1942 934 2080 998 2256 
C 1133 2633 1338 2816 1645 2816 
C 2035 2816 2291 2482 2291 1979 
C 2291 1797 2234 1747 2029 1747 
L 909 1747 
z
" id="CenturySchL-Roma-65" transform="scale(0.015625)"/>
      </defs>
      <use transform="scale(0.996264)" xlink:href="#CenturySchL-Roma-45"/>
      <use transform="translate(71.929985 0)scale(0.996264)" xlink:href="#CenturySchL-Roma-70"/>
      <use transform="translate(129.115472 0)scale(0.996264)" xlink:href="#CenturySchL-Roma-69"/>
      <use transform="translate(160.496785 0)scale(0.996264)" xlink:href="#CenturySchL-Roma-73"/>
      <use transform="translate(206.622596 0)scale(0.996264)" xlink:href="#CenturySchL-Roma-6f"/>
      <use transform="translate(256.435796 0)scale(0.996264)" xlink:href="#CenturySchL-Roma-64"/>
      <use transform="translate(313.621283 0)scale(0.996264)" xlink:href="#CenturySchL-Roma-65"/>
     </g>
    </g>
   </g>
   <g id="matplotlib.axis_2">
    <g id="ytick_1">
     <g id="line2d_11">
      <path clip-path="url(#pbfef509ee0)" d="M 74.177501 207.547416 
L 362.222499 207.547416 
" style="fill:none;stroke:#bfbfbf;stroke-dasharray:0.8,2.4;stroke-dashoffset:0;stroke-linecap:round;stroke-linejoin:miter;stroke-width:0.8;"/>
     </g>
     <g id="line2d_12">
      <defs>
       <path d="M 0 0 
L -3.5 0 
" id="mb9bc95b014" style="stroke:#000000;stroke-width:0.8;"/>
      </defs>
      <g>
       <use style="stroke:#000000;stroke-width:0.8;" x="74.177501" xlink:href="#mb9bc95b014" y="207.547416"/>
      </g>
     </g>
     <g id="text_7">
      <!-- $\mathdefault{0.08}$ -->
      <g transform="translate(37.627152 214.2004)scale(0.18 -0.18)">
       <defs>
        <path d="M 1178 307 
C 1178 492 1024 619 870 619 
C 685 619 557 466 557 313 
C 557 128 710 0 864 0 
C 1050 0 1178 153 1178 307 
z
" id="CMMI12-3a" transform="scale(0.015625)"/>
        <path d="M 1741 2264 
C 2144 2467 2554 2773 2554 3263 
C 2554 3841 1990 4179 1472 4179 
C 890 4179 378 3759 378 3180 
C 378 3021 416 2747 666 2505 
C 730 2442 998 2251 1171 2130 
C 883 1983 211 1634 211 934 
C 211 279 838 -128 1459 -128 
C 2144 -128 2720 362 2720 1010 
C 2720 1590 2330 1857 2074 2029 
L 1741 2264 
z
M 902 2822 
C 851 2854 595 3051 595 3351 
C 595 3739 998 4032 1459 4032 
C 1965 4032 2336 3676 2336 3262 
C 2336 2669 1670 2331 1638 2331 
C 1632 2331 1626 2331 1574 2370 
L 902 2822 
z
M 2080 1519 
C 2176 1449 2483 1240 2483 851 
C 2483 381 2010 25 1472 25 
C 890 25 448 438 448 940 
C 448 1443 838 1862 1280 2060 
L 2080 1519 
z
" id="CMR17-38" transform="scale(0.015625)"/>
       </defs>
       <use transform="scale(0.996264)" xlink:href="#CMR17-30"/>
       <use transform="translate(45.690477 0)scale(0.996264)" xlink:href="#CMMI12-3a"/>
       <use transform="translate(72.787654 0)scale(0.996264)" xlink:href="#CMR17-30"/>
       <use transform="translate(118.478131 0)scale(0.996264)" xlink:href="#CMR17-38"/>
      </g>
     </g>
    </g>
    <g id="ytick_2">
     <g id="line2d_13">
      <path clip-path="url(#pbfef509ee0)" d="M 74.177501 168.80853 
L 362.222499 168.80853 
" style="fill:none;stroke:#bfbfbf;stroke-dasharray:0.8,2.4;stroke-dashoffset:0;stroke-linecap:round;stroke-linejoin:miter;stroke-width:0.8;"/>
     </g>
     <g id="line2d_14">
      <g>
       <use style="stroke:#000000;stroke-width:0.8;" x="74.177501" xlink:href="#mb9bc95b014" y="168.80853"/>
      </g>
     </g>
     <g id="text_8">
      <!-- $\mathdefault{0.09}$ -->
      <g transform="translate(37.627152 175.461514)scale(0.18 -0.18)">
       <defs>
        <path d="M 2253 1864 
C 2253 464 1670 31 1190 31 
C 1043 31 685 31 538 294 
C 704 268 826 357 826 518 
C 826 692 685 749 595 749 
C 538 749 365 723 365 506 
C 365 71 742 -128 1203 -128 
C 1939 -128 2688 674 2688 2073 
C 2688 3817 1971 4179 1485 4179 
C 851 4179 243 3628 243 2778 
C 243 1991 762 1408 1414 1408 
C 1952 1408 2189 1903 2253 2112 
L 2253 1864 
z
M 1427 1510 
C 1254 1510 1011 1542 813 1922 
C 678 2169 678 2461 678 2771 
C 678 3146 678 3405 858 3684 
C 947 3817 1114 4032 1485 4032 
C 2240 4032 2240 2885 2240 2632 
C 2240 2182 2035 1510 1427 1510 
z
" id="CMR17-39" transform="scale(0.015625)"/>
       </defs>
       <use transform="scale(0.996264)" xlink:href="#CMR17-30"/>
       <use transform="translate(45.690477 0)scale(0.996264)" xlink:href="#CMMI12-3a"/>
       <use transform="translate(72.787654 0)scale(0.996264)" xlink:href="#CMR17-30"/>
       <use transform="translate(118.478131 0)scale(0.996264)" xlink:href="#CMR17-39"/>
      </g>
     </g>
    </g>
    <g id="ytick_3">
     <g id="line2d_15">
      <path clip-path="url(#pbfef509ee0)" d="M 74.177501 130.069643 
L 362.222499 130.069643 
" style="fill:none;stroke:#bfbfbf;stroke-dasharray:0.8,2.4;stroke-dashoffset:0;stroke-linecap:round;stroke-linejoin:miter;stroke-width:0.8;"/>
     </g>
     <g id="line2d_16">
      <g>
       <use style="stroke:#000000;stroke-width:0.8;" x="74.177501" xlink:href="#mb9bc95b014" y="130.069643"/>
      </g>
     </g>
     <g id="text_9">
      <!-- $\mathdefault{0.10}$ -->
      <g transform="translate(37.627152 136.722627)scale(0.18 -0.18)">
       <use transform="scale(0.996264)" xlink:href="#CMR17-30"/>
       <use transform="translate(45.690477 0)scale(0.996264)" xlink:href="#CMMI12-3a"/>
       <use transform="translate(72.787654 0)scale(0.996264)" xlink:href="#CMR17-31"/>
       <use transform="translate(118.478131 0)scale(0.996264)" xlink:href="#CMR17-30"/>
      </g>
     </g>
    </g>
    <g id="ytick_4">
     <g id="line2d_17">
      <path clip-path="url(#pbfef509ee0)" d="M 74.177501 91.330757 
L 362.222499 91.330757 
" style="fill:none;stroke:#bfbfbf;stroke-dasharray:0.8,2.4;stroke-dashoffset:0;stroke-linecap:round;stroke-linejoin:miter;stroke-width:0.8;"/>
     </g>
     <g id="line2d_18">
      <g>
       <use style="stroke:#000000;stroke-width:0.8;" x="74.177501" xlink:href="#mb9bc95b014" y="91.330757"/>
      </g>
     </g>
     <g id="text_10">
      <!-- $\mathdefault{0.11}$ -->
      <g transform="translate(37.627152 97.983741)scale(0.18 -0.18)">
       <use transform="scale(0.996264)" xlink:href="#CMR17-30"/>
       <use transform="translate(45.690477 0)scale(0.996264)" xlink:href="#CMMI12-3a"/>
       <use transform="translate(72.787654 0)scale(0.996264)" xlink:href="#CMR17-31"/>
       <use transform="translate(118.478131 0)scale(0.996264)" xlink:href="#CMR17-31"/>
      </g>
     </g>
    </g>
    <g id="ytick_5">
     <g id="line2d_19">
      <path clip-path="url(#pbfef509ee0)" d="M 74.177501 52.59187 
L 362.222499 52.59187 
" style="fill:none;stroke:#bfbfbf;stroke-dasharray:0.8,2.4;stroke-dashoffset:0;stroke-linecap:round;stroke-linejoin:miter;stroke-width:0.8;"/>
     </g>
     <g id="line2d_20">
      <g>
       <use style="stroke:#000000;stroke-width:0.8;" x="74.177501" xlink:href="#mb9bc95b014" y="52.59187"/>
      </g>
     </g>
     <g id="text_11">
      <!-- $\mathdefault{0.12}$ -->
      <g transform="translate(37.627152 59.244855)scale(0.18 -0.18)">
       <use transform="scale(0.996264)" xlink:href="#CMR17-30"/>
       <use transform="translate(45.690477 0)scale(0.996264)" xlink:href="#CMMI12-3a"/>
       <use transform="translate(72.787654 0)scale(0.996264)" xlink:href="#CMR17-31"/>
       <use transform="translate(118.478131 0)scale(0.996264)" xlink:href="#CMR17-32"/>
      </g>
     </g>
    </g>
    <g id="ytick_6">
     <g id="line2d_21">
      <path clip-path="url(#pbfef509ee0)" d="M 74.177501 13.852984 
L 362.222499 13.852984 
" style="fill:none;stroke:#bfbfbf;stroke-dasharray:0.8,2.4;stroke-dashoffset:0;stroke-linecap:round;stroke-linejoin:miter;stroke-width:0.8;"/>
     </g>
     <g id="line2d_22">
      <g>
       <use style="stroke:#000000;stroke-width:0.8;" x="74.177501" xlink:href="#mb9bc95b014" y="13.852984"/>
      </g>
     </g>
     <g id="text_12">
      <!-- $\mathdefault{0.13}$ -->
      <g transform="translate(37.627152 20.505968)scale(0.18 -0.18)">
       <defs>
        <path d="M 1414 2157 
C 1984 2157 2234 1662 2234 1090 
C 2234 320 1824 25 1453 25 
C 1114 25 563 194 390 693 
C 422 680 454 680 486 680 
C 640 680 755 782 755 948 
C 755 1133 614 1216 486 1216 
C 378 1216 211 1165 211 926 
C 211 335 787 -128 1466 -128 
C 2176 -128 2720 430 2720 1085 
C 2720 1707 2208 2157 1600 2227 
C 2086 2328 2554 2756 2554 3329 
C 2554 3820 2048 4179 1472 4179 
C 890 4179 378 3829 378 3329 
C 378 3110 544 3072 627 3072 
C 762 3072 877 3155 877 3321 
C 877 3486 762 3569 627 3569 
C 602 3569 570 3569 544 3557 
C 730 3959 1235 4032 1459 4032 
C 1683 4032 2106 3925 2106 3320 
C 2106 3143 2080 2828 1862 2550 
C 1670 2304 1453 2304 1242 2284 
C 1210 2284 1062 2269 1037 2269 
C 992 2263 966 2257 966 2208 
C 966 2163 973 2157 1101 2157 
L 1414 2157 
z
" id="CMR17-33" transform="scale(0.015625)"/>
       </defs>
       <use transform="scale(0.996264)" xlink:href="#CMR17-30"/>
       <use transform="translate(45.690477 0)scale(0.996264)" xlink:href="#CMMI12-3a"/>
       <use transform="translate(72.787654 0)scale(0.996264)" xlink:href="#CMR17-31"/>
       <use transform="translate(118.478131 0)scale(0.996264)" xlink:href="#CMR17-33"/>
      </g>
     </g>
    </g>
    <g id="text_13">
     <!-- Max Height Reward -->
     <g transform="translate(23.462852 227.245892)rotate(-90)scale(0.22 -0.22)">
      <defs>
       <path d="M 1837 4608 
L 186 4608 
L 186 4308 
L 307 4308 
C 826 4308 883 4276 883 4006 
L 883 3821 
L 883 1369 
C 883 498 755 313 141 313 
L 141 0 
L 1965 0 
L 1965 313 
C 1357 313 1229 498 1229 1370 
L 1229 4200 
L 2752 0 
L 3008 0 
L 4435 4200 
L 4435 797 
L 4435 612 
C 4435 339 4378 313 3859 313 
L 3744 313 
L 3744 0 
L 5843 0 
L 5843 313 
L 5728 313 
C 5210 313 5152 339 5152 612 
L 5152 797 
L 5152 3824 
L 5152 4008 
C 5152 4276 5210 4308 5728 4308 
L 5843 4308 
L 5843 4608 
L 4237 4608 
L 3066 1206 
L 1837 4608 
z
" id="CenturySchL-Roma-4d" transform="scale(0.015625)"/>
       <path d="M 2893 2085 
C 2893 2483 2822 2686 2637 2838 
C 2426 3002 2112 3090 1702 3090 
C 986 3090 454 2755 454 2299 
C 454 2058 602 1906 826 1906 
C 1024 1906 1171 2039 1171 2228 
C 1171 2311 1139 2399 1075 2488 
C 1037 2531 1030 2550 1030 2570 
C 1030 2702 1293 2816 1600 2816 
C 1798 2816 2022 2753 2125 2658 
C 2246 2557 2291 2405 2291 2120 
L 2291 1874 
C 1619 1759 1414 1708 1101 1588 
C 550 1383 282 1084 282 682 
C 282 229 646 -64 1210 -64 
C 1651 -64 2048 119 2323 452 
C 2426 127 2586 0 2886 0 
C 3174 0 3475 185 3475 370 
C 3475 414 3443 446 3411 446 
C 3386 446 3360 440 3315 421 
C 3213 384 3187 377 3136 377 
C 2957 377 2893 498 2893 814 
L 2893 2085 
z
M 2291 1310 
C 2291 926 2272 837 2163 671 
C 2003 434 1709 275 1434 275 
C 1146 275 928 486 928 773 
C 928 1041 1062 1233 1344 1367 
C 1542 1456 1792 1520 2291 1603 
L 2291 1310 
z
" id="CenturySchL-Roma-61" transform="scale(0.015625)"/>
       <path d="M 1978 1632 
L 2707 2482 
C 2861 2662 3021 2752 3187 2752 
L 3245 2752 
L 3245 2982 
L 1920 2982 
L 1920 2752 
L 2042 2752 
C 2234 2752 2330 2701 2330 2611 
C 2330 2547 2285 2451 2202 2349 
L 1798 1869 
L 1306 2496 
C 1267 2541 1242 2598 1242 2637 
C 1242 2720 1325 2752 1523 2752 
L 1613 2752 
L 1613 2982 
L 96 2982 
L 96 2752 
C 333 2732 416 2675 627 2406 
L 1408 1421 
L 672 563 
C 493 351 282 230 96 230 
L 58 230 
L 58 0 
L 1408 0 
L 1408 230 
L 1312 230 
C 1165 230 1133 236 1088 256 
C 1037 281 998 346 998 403 
C 998 448 1018 506 1050 538 
L 1587 1184 
L 2074 538 
C 2118 474 2157 390 2157 345 
C 2157 262 2061 230 1818 230 
L 1773 230 
L 1773 0 
L 3386 0 
L 3386 230 
L 3341 230 
C 3117 230 2950 319 2784 544 
L 1978 1632 
z
" id="CenturySchL-Roma-78" transform="scale(0.015625)"/>
       <path d="M 3738 2215 
L 3738 786 
L 3738 600 
C 3738 332 3680 300 3162 300 
L 3046 300 
L 3046 0 
L 5146 0 
L 5146 300 
L 5030 300 
C 4512 300 4454 332 4454 600 
L 4454 786 
L 4454 3823 
L 4454 4007 
C 4454 4276 4512 4308 5030 4308 
L 5146 4308 
L 5146 4608 
L 3072 4608 
L 3072 4308 
L 3162 4308 
C 3680 4308 3738 4276 3738 4008 
L 3738 3823 
L 3738 2560 
L 1594 2560 
L 1594 3823 
L 1594 4008 
C 1594 4276 1651 4308 2170 4308 
L 2291 4308 
L 2291 4608 
L 186 4608 
L 186 4308 
L 301 4308 
C 819 4308 877 4276 877 4007 
L 877 3823 
L 877 786 
L 877 600 
C 877 332 819 300 301 300 
L 186 300 
L 186 0 
L 2291 0 
L 2291 300 
L 2170 300 
C 1651 300 1594 332 1594 600 
L 1594 786 
L 1594 2215 
L 3738 2215 
z
" id="CenturySchL-Roma-48" transform="scale(0.015625)"/>
       <path d="M 1254 486 
C 902 486 883 493 806 542 
C 762 570 730 647 730 723 
C 730 933 902 1024 1331 1024 
C 1939 1024 2035 1037 2246 1132 
C 2630 1303 2848 1631 2848 2047 
C 2848 2299 2790 2457 2611 2665 
C 2720 2778 2778 2816 2829 2816 
C 2861 2816 2880 2796 2893 2728 
C 2918 2577 3021 2496 3181 2496 
C 3341 2496 3469 2630 3469 2802 
C 3469 3020 3296 3173 3046 3173 
C 2842 3173 2726 3108 2432 2835 
C 2163 3014 1958 3077 1638 3077 
C 877 3077 378 2664 378 2036 
C 378 1666 582 1346 915 1196 
C 486 1098 307 902 307 542 
C 307 255 435 85 736 -19 
C 339 -159 147 -363 147 -624 
C 147 -1044 640 -1280 1498 -1280 
C 2566 -1280 3104 -942 3104 -272 
C 3104 46 2957 300 2720 396 
C 2554 460 2349 486 1907 486 
L 1254 486 
z
M 1632 2816 
C 2035 2816 2259 2539 2259 2054 
C 2259 1563 2016 1266 1606 1266 
C 1210 1266 960 1563 960 2035 
C 960 2532 1203 2816 1632 2816 
z
M 1574 -64 
C 2106 -64 2144 -64 2240 -76 
C 2496 -102 2656 -242 2656 -445 
C 2656 -808 2240 -1018 1523 -1018 
C 986 -1018 678 -859 678 -573 
C 678 -363 794 -222 1101 -64 
L 1574 -64 
z
" id="CenturySchL-Roma-67" transform="scale(0.015625)"/>
       <path d="M 1280 4672 
L 96 4672 
L 96 4366 
L 403 4366 
C 640 4366 678 4321 678 4046 
L 678 786 
L 678 530 
C 678 275 608 230 198 230 
L 173 230 
L 173 0 
L 1792 0 
L 1792 230 
L 1766 230 
C 1350 230 1280 275 1280 530 
L 1280 786 
L 1280 1444 
C 1280 1763 1325 2050 1395 2197 
C 1530 2485 1818 2683 2093 2683 
C 2259 2683 2451 2587 2547 2459 
C 2643 2319 2688 2127 2688 1814 
L 2688 786 
L 2688 530 
C 2688 275 2618 230 2202 230 
L 2176 230 
L 2176 0 
L 3795 0 
L 3795 230 
L 3770 230 
C 3360 230 3290 275 3290 530 
L 3290 786 
L 3290 1789 
C 3290 2248 3270 2363 3155 2581 
C 2995 2887 2675 3072 2291 3072 
C 1882 3072 1568 2881 1280 2453 
L 1280 4672 
z
" id="CenturySchL-Roma-68" transform="scale(0.015625)"/>
       <path d="M 1242 3008 
L 1242 4288 
L 979 4288 
C 915 3448 634 3020 115 2982 
L 115 2733 
L 640 2733 
L 640 1105 
C 640 658 653 498 717 351 
C 819 83 1075 -64 1446 -64 
C 1696 -64 1914 13 2061 153 
C 2272 358 2394 696 2394 1048 
C 2394 1086 2394 1131 2387 1195 
L 2118 1195 
C 2099 620 1933 326 1619 326 
C 1472 326 1344 402 1299 511 
C 1261 600 1242 760 1242 990 
L 1242 2733 
L 2182 2733 
L 2182 3008 
L 1242 3008 
z
" id="CenturySchL-Roma-74" transform="scale(0.015625)"/>
       <path d="M 1574 2240 
L 1946 2240 
C 2195 2240 2451 2163 2592 2047 
C 2778 1900 2874 1669 2918 1246 
L 2950 918 
C 3027 193 3264 -102 3770 -102 
C 4294 -102 4544 251 4563 1019 
L 4294 1019 
C 4269 576 4192 384 4019 384 
C 3872 384 3808 493 3699 936 
L 3597 1340 
C 3456 1931 3206 2200 2707 2329 
C 3629 2457 4070 2825 4070 3468 
C 4070 4194 3456 4608 2381 4608 
L 166 4608 
L 166 4308 
L 282 4308 
C 800 4308 858 4276 858 4007 
L 858 3823 
L 858 779 
L 858 600 
C 858 332 800 300 282 300 
L 166 300 
L 166 0 
L 2266 0 
L 2266 300 
L 2150 300 
C 1632 300 1574 332 1574 601 
L 1574 780 
L 1574 2240 
z
M 1574 2540 
L 1574 3944 
C 1574 4200 1581 4219 1645 4270 
C 1696 4308 1741 4308 2016 4308 
L 2362 4308 
C 2995 4308 3283 4040 3283 3462 
C 3283 3137 3200 2889 3034 2756 
C 2874 2623 2586 2540 2278 2540 
L 1574 2540 
z
" id="CenturySchL-Roma-52" transform="scale(0.015625)"/>
       <path d="M 3501 829 
L 2874 2471 
C 2854 2515 2848 2547 2848 2605 
C 2848 2720 2906 2752 3117 2752 
L 3270 2752 
L 3270 2982 
L 1837 2982 
L 1837 2752 
L 1946 2752 
C 2144 2752 2221 2701 2278 2515 
L 2336 2349 
L 1773 858 
L 1152 2464 
C 1139 2509 1126 2566 1126 2605 
C 1126 2713 1197 2752 1389 2752 
L 1504 2752 
L 1504 2982 
L 96 2982 
L 96 2752 
L 211 2752 
C 390 2752 454 2694 544 2438 
L 1504 -96 
L 1728 -96 
L 2490 1926 
L 3270 -96 
L 3469 -96 
L 4365 2265 
C 4506 2643 4614 2752 4838 2752 
L 4883 2752 
L 4883 2982 
L 3674 2982 
L 3674 2752 
L 3782 2752 
C 4006 2752 4096 2681 4096 2522 
C 4096 2458 4077 2362 4045 2285 
L 3501 829 
z
" id="CenturySchL-Roma-77" transform="scale(0.015625)"/>
       <path d="M 1267 2944 
L 134 2944 
L 134 2638 
L 397 2638 
C 634 2638 672 2593 672 2317 
L 672 787 
L 672 531 
C 672 275 602 230 186 230 
L 160 230 
L 160 0 
L 1869 0 
L 1869 230 
L 1747 230 
C 1338 230 1267 275 1267 531 
L 1267 787 
L 1267 851 
C 1267 1332 1357 1818 1517 2183 
C 1670 2541 1888 2740 2157 2772 
C 2067 2669 2042 2604 2042 2481 
C 2042 2275 2189 2127 2394 2127 
C 2624 2127 2784 2300 2784 2561 
C 2784 2868 2566 3072 2227 3072 
C 1824 3072 1472 2747 1267 2185 
L 1267 2944 
z
" id="CenturySchL-Roma-72" transform="scale(0.015625)"/>
      </defs>
      <use transform="scale(0.996264)" xlink:href="#CenturySchL-Roma-4d"/>
      <use transform="translate(94.046769 0)scale(0.996264)" xlink:href="#CenturySchL-Roma-61"/>
      <use transform="translate(149.438446 0)scale(0.996264)" xlink:href="#CenturySchL-Roma-78"/>
      <use transform="translate(230.63296 0)scale(0.996264)" xlink:href="#CenturySchL-Roma-48"/>
      <use transform="translate(313.62139 0)scale(0.996264)" xlink:href="#CenturySchL-Roma-65"/>
      <use transform="translate(363.43459 0)scale(0.996264)" xlink:href="#CenturySchL-Roma-69"/>
      <use transform="translate(394.815903 0)scale(0.996264)" xlink:href="#CenturySchL-Roma-67"/>
      <use transform="translate(448.315247 0)scale(0.996264)" xlink:href="#CenturySchL-Roma-68"/>
      <use transform="translate(509.186878 0)scale(0.996264)" xlink:href="#CenturySchL-Roma-74"/>
      <use transform="translate(575.635754 0)scale(0.996264)" xlink:href="#CenturySchL-Roma-52"/>
      <use transform="translate(647.565739 0)scale(0.996264)" xlink:href="#CenturySchL-Roma-65"/>
      <use transform="translate(697.378939 0)scale(0.996264)" xlink:href="#CenturySchL-Roma-77"/>
      <use transform="translate(773.09473 0)scale(0.996264)" xlink:href="#CenturySchL-Roma-61"/>
      <use transform="translate(828.486407 0)scale(0.996264)" xlink:href="#CenturySchL-Roma-72"/>
      <use transform="translate(872.719976 0)scale(0.996264)" xlink:href="#CenturySchL-Roma-64"/>
     </g>
    </g>
   </g>
   <g id="PolyCollection_1">
    <path clip-path="url(#pbfef509ee0)" d="M 87.270456 202.650714 
L 87.270456 228.511476 
L 88.326339 223.174014 
L 89.382223 220.410834 
L 90.438106 218.871629 
L 91.493989 217.566275 
L 92.549873 217.23183 
L 93.605756 217.406048 
L 94.66164 217.119754 
L 95.717523 216.758214 
L 96.773407 216.703087 
L 97.82929 216.571984 
L 98.885173 216.199512 
L 99.941057 216.274246 
L 100.99694 215.777151 
L 102.052824 215.920282 
L 103.108707 215.933225 
L 104.164591 216.165173 
L 105.220474 216.053898 
L 106.276357 215.892498 
L 107.332241 215.849943 
L 108.388124 215.753252 
L 109.444008 215.657435 
L 110.499891 215.449248 
L 111.555774 215.610091 
L 112.611658 215.60738 
L 113.667541 215.311118 
L 114.723425 214.901467 
L 115.779308 214.653906 
L 116.835192 214.207696 
L 117.891075 213.736915 
L 118.946958 213.025613 
L 120.002842 212.006528 
L 121.058725 210.945455 
L 122.114609 209.8373 
L 123.170492 208.37033 
L 124.226376 206.857215 
L 125.282259 205.175172 
L 126.338142 203.01711 
L 127.394026 200.779045 
L 128.449909 198.052849 
L 129.505793 195.213498 
L 130.561676 192.09019 
L 131.617559 189.032492 
L 132.673443 186.113207 
L 133.729326 183.206088 
L 134.78521 180.488502 
L 135.841093 177.730155 
L 136.896977 175.1958 
L 137.95286 172.351464 
L 139.008743 169.748075 
L 140.064627 167.144192 
L 141.12051 164.453237 
L 142.176394 161.712011 
L 143.232277 158.998162 
L 144.288161 156.286951 
L 145.344044 153.538796 
L 146.399927 150.749771 
L 147.455811 147.902691 
L 148.511694 145.124708 
L 149.567578 142.533619 
L 150.623461 140.115461 
L 151.679344 137.852717 
L 152.735228 135.779057 
L 153.791111 133.938882 
L 154.846995 132.214342 
L 155.902878 130.513216 
L 156.958762 128.81871 
L 158.014645 127.088208 
L 159.070528 125.269778 
L 160.126412 123.364468 
L 161.182295 121.363866 
L 162.238179 119.255184 
L 163.294062 117.068095 
L 164.349946 114.84408 
L 165.405829 112.640165 
L 166.461712 110.520063 
L 167.517596 108.499269 
L 168.573479 106.606506 
L 169.629363 104.789709 
L 170.685246 103.078173 
L 171.741129 101.505368 
L 172.797013 100.114417 
L 173.852896 98.910876 
L 174.90878 97.829672 
L 175.964663 96.849636 
L 177.020547 95.952285 
L 178.07643 95.147235 
L 179.132313 94.446306 
L 180.188197 93.807515 
L 181.24408 93.208314 
L 182.299964 92.608855 
L 183.355847 91.955155 
L 184.411731 91.238822 
L 185.467614 90.506499 
L 186.523497 89.817932 
L 187.579381 89.200754 
L 188.635264 88.624339 
L 189.691148 88.075475 
L 190.747031 87.562954 
L 191.802914 87.089271 
L 192.858798 86.619551 
L 193.914681 86.157181 
L 194.970565 85.689818 
L 196.026448 85.255996 
L 197.082332 84.841464 
L 198.138215 84.446038 
L 199.194098 84.0543 
L 200.249982 83.680616 
L 201.305865 83.322507 
L 202.361749 82.940978 
L 203.417632 82.581749 
L 204.473516 82.267352 
L 205.529399 81.97427 
L 206.585282 81.707769 
L 207.641166 81.454241 
L 208.697049 81.244213 
L 209.752933 81.079656 
L 210.808816 80.970572 
L 211.864699 80.907747 
L 212.920583 80.819743 
L 213.976466 80.715074 
L 215.03235 80.622654 
L 216.088233 80.539049 
L 217.144117 80.45906 
L 218.2 80.379005 
L 219.255883 80.305763 
L 220.311767 80.247946 
L 221.36765 80.197103 
L 222.423534 80.129536 
L 223.479417 80.061007 
L 224.535301 80.01145 
L 225.591184 79.973622 
L 226.647067 79.92429 
L 227.702951 79.861826 
L 228.758834 79.815811 
L 229.814718 79.788421 
L 230.870601 79.75092 
L 231.926484 79.699543 
L 232.982368 79.622075 
L 234.038251 79.56953 
L 235.094135 79.520275 
L 236.150018 79.466404 
L 237.205902 79.420718 
L 238.261785 79.351763 
L 239.317668 79.307305 
L 240.373552 79.276271 
L 241.429435 79.256522 
L 242.485319 79.219484 
L 243.541202 79.188696 
L 244.597086 79.151406 
L 245.652969 79.106784 
L 246.708852 79.049233 
L 247.764736 79.016846 
L 248.820619 78.986878 
L 249.876503 78.965567 
L 250.932386 78.916634 
L 251.988269 78.861118 
L 253.044153 78.831771 
L 254.100036 78.814044 
L 255.15592 78.79129 
L 256.211803 78.758138 
L 257.267687 78.732464 
L 258.32357 78.711216 
L 259.379453 78.697253 
L 260.435337 78.66925 
L 261.49122 78.636048 
L 262.547104 78.609062 
L 263.602987 78.575277 
L 264.658871 78.56618 
L 265.714754 78.546938 
L 266.770637 78.523126 
L 267.826521 78.493642 
L 268.882404 78.476999 
L 269.938288 78.46507 
L 270.994171 78.450954 
L 272.050054 78.441214 
L 273.105938 78.440015 
L 274.161821 78.426709 
L 275.217705 78.419879 
L 276.273588 78.402457 
L 277.329472 78.391906 
L 278.385355 78.379433 
L 279.441238 78.353713 
L 280.497122 78.326573 
L 281.553005 78.304579 
L 282.608889 78.287813 
L 283.664772 78.273694 
L 284.720656 78.268094 
L 285.776539 78.251455 
L 286.832422 78.248033 
L 287.888306 78.243603 
L 288.944189 78.236867 
L 290.000073 78.232191 
L 291.055956 78.225466 
L 292.111839 78.237037 
L 293.167723 78.244557 
L 294.223606 78.257434 
L 295.27949 78.268231 
L 296.335373 78.271285 
L 297.391257 78.274856 
L 298.44714 78.284751 
L 299.503023 78.28976 
L 300.558907 78.287247 
L 301.61479 78.288184 
L 302.670674 78.291895 
L 303.726557 78.292269 
L 304.782441 78.298651 
L 305.838324 78.303406 
L 306.894207 78.308651 
L 307.950091 78.305867 
L 309.005974 78.293826 
L 310.061858 78.287922 
L 311.117741 78.286985 
L 312.173624 78.290045 
L 313.229508 78.290639 
L 314.285391 78.29131 
L 315.341275 78.288204 
L 316.397158 78.285866 
L 317.453042 78.273594 
L 318.508925 78.259471 
L 319.564808 78.248254 
L 320.620692 78.234313 
L 321.676575 78.22284 
L 322.732459 78.221714 
L 323.788342 78.221018 
L 324.844226 78.223269 
L 325.900109 78.217707 
L 326.955992 78.211149 
L 328.011876 78.210124 
L 329.067759 78.213663 
L 330.123643 78.220123 
L 331.179526 78.219547 
L 332.235409 78.20858 
L 333.291293 78.200016 
L 334.347176 78.214958 
L 335.40306 78.232398 
L 336.458943 78.254355 
L 337.514827 78.251552 
L 338.57071 78.245491 
L 339.626593 78.245231 
L 340.682477 78.24871 
L 341.73836 78.258123 
L 342.794244 78.264558 
L 343.850127 78.269176 
L 344.906011 78.27475 
L 345.961894 78.278671 
L 347.017777 78.277251 
L 348.073661 78.277773 
L 349.129544 78.273165 
L 349.129544 77.553674 
L 349.129544 77.553674 
L 348.073661 77.554099 
L 347.017777 77.555916 
L 345.961894 77.553134 
L 344.906011 77.551741 
L 343.850127 77.54915 
L 342.794244 77.546607 
L 341.73836 77.551558 
L 340.682477 77.561384 
L 339.626593 77.571479 
L 338.57071 77.580696 
L 337.514827 77.580791 
L 336.458943 77.591918 
L 335.40306 77.605948 
L 334.347176 77.624606 
L 333.291293 77.633661 
L 332.235409 77.638678 
L 331.179526 77.646181 
L 330.123643 77.65566 
L 329.067759 77.662481 
L 328.011876 77.671768 
L 326.955992 77.681272 
L 325.900109 77.685897 
L 324.844226 77.699991 
L 323.788342 77.713341 
L 322.732459 77.724584 
L 321.676575 77.733602 
L 320.620692 77.741256 
L 319.564808 77.752386 
L 318.508925 77.76571 
L 317.453042 77.777177 
L 316.397158 77.786664 
L 315.341275 77.791506 
L 314.285391 77.793338 
L 313.229508 77.797564 
L 312.173624 77.803141 
L 311.117741 77.807412 
L 310.061858 77.807324 
L 309.005974 77.806869 
L 307.950091 77.803316 
L 306.894207 77.791612 
L 305.838324 77.780687 
L 304.782441 77.767708 
L 303.726557 77.766384 
L 302.670674 77.765251 
L 301.61479 77.761184 
L 300.558907 77.760274 
L 299.503023 77.760626 
L 298.44714 77.761032 
L 297.391257 77.761446 
L 296.335373 77.765379 
L 295.27949 77.771223 
L 294.223606 77.772362 
L 293.167723 77.766355 
L 292.111839 77.765443 
L 291.055956 77.760342 
L 290.000073 77.753354 
L 288.944189 77.755826 
L 287.888306 77.753155 
L 286.832422 77.754276 
L 285.776539 77.758926 
L 284.720656 77.759039 
L 283.664772 77.759745 
L 282.608889 77.760264 
L 281.553005 77.757974 
L 280.497122 77.760972 
L 279.441238 77.769945 
L 278.385355 77.782916 
L 277.329472 77.795042 
L 276.273588 77.803518 
L 275.217705 77.818786 
L 274.161821 77.826805 
L 273.105938 77.839106 
L 272.050054 77.843972 
L 270.994171 77.852605 
L 269.938288 77.861351 
L 268.882404 77.868398 
L 267.826521 77.87673 
L 266.770637 77.881962 
L 265.714754 77.889376 
L 264.658871 77.900442 
L 263.602987 77.906124 
L 262.547104 77.914005 
L 261.49122 77.92931 
L 260.435337 77.933965 
L 259.379453 77.938146 
L 258.32357 77.940385 
L 257.267687 77.939673 
L 256.211803 77.948064 
L 255.15592 77.955303 
L 254.100036 77.961527 
L 253.044153 77.962767 
L 251.988269 77.976423 
L 250.932386 77.989317 
L 249.876503 77.996317 
L 248.820619 77.998152 
L 247.764736 78.021729 
L 246.708852 78.035389 
L 245.652969 78.052598 
L 244.597086 78.067183 
L 243.541202 78.089436 
L 242.485319 78.111669 
L 241.429435 78.130383 
L 240.373552 78.153214 
L 239.317668 78.168097 
L 238.261785 78.1791 
L 237.205902 78.193728 
L 236.150018 78.199073 
L 235.094135 78.207781 
L 234.038251 78.226428 
L 232.982368 78.234035 
L 231.926484 78.255117 
L 230.870601 78.267658 
L 229.814718 78.279317 
L 228.758834 78.294157 
L 227.702951 78.311706 
L 226.647067 78.335034 
L 225.591184 78.348753 
L 224.535301 78.362172 
L 223.479417 78.377425 
L 222.423534 78.403324 
L 221.36765 78.4204 
L 220.311767 78.434561 
L 219.255883 78.462155 
L 218.2 78.490374 
L 217.144117 78.513105 
L 216.088233 78.532542 
L 215.03235 78.54668 
L 213.976466 78.560637 
L 212.920583 78.58268 
L 211.864699 78.607907 
L 210.808816 78.629912 
L 209.752933 78.665225 
L 208.697049 78.692965 
L 207.641166 78.696043 
L 206.585282 78.694169 
L 205.529399 78.665626 
L 204.473516 78.636989 
L 203.417632 78.605269 
L 202.361749 78.576332 
L 201.305865 78.562036 
L 200.249982 78.527934 
L 199.194098 78.500113 
L 198.138215 78.477644 
L 197.082332 78.460414 
L 196.026448 78.453932 
L 194.970565 78.464315 
L 193.914681 78.506222 
L 192.858798 78.542302 
L 191.802914 78.60281 
L 190.747031 78.663801 
L 189.691148 78.749428 
L 188.635264 78.873926 
L 187.579381 79.022733 
L 186.523497 79.182114 
L 185.467614 79.355532 
L 184.411731 79.560502 
L 183.355847 79.810747 
L 182.299964 80.080636 
L 181.24408 80.372016 
L 180.188197 80.681141 
L 179.132313 81.023079 
L 178.07643 81.408201 
L 177.020547 81.838788 
L 175.964663 82.267333 
L 174.90878 82.672364 
L 173.852896 83.067706 
L 172.797013 83.477144 
L 171.741129 83.963259 
L 170.685246 84.513853 
L 169.629363 85.125454 
L 168.573479 85.780888 
L 167.517596 86.450966 
L 166.461712 87.206857 
L 165.405829 88.090938 
L 164.349946 89.114674 
L 163.294062 90.25256 
L 162.238179 91.48791 
L 161.182295 92.797102 
L 160.126412 94.135848 
L 159.070528 95.506428 
L 158.014645 96.932717 
L 156.958762 98.431147 
L 155.902878 100.054996 
L 154.846995 101.859273 
L 153.791111 103.932636 
L 152.735228 106.280605 
L 151.679344 108.89659 
L 150.623461 111.77721 
L 149.567578 114.943786 
L 148.511694 118.368386 
L 147.455811 122.004685 
L 146.399927 125.823196 
L 145.344044 129.764003 
L 144.288161 133.8042 
L 143.232277 137.924113 
L 142.176394 142.101222 
L 141.12051 146.323335 
L 140.064627 150.533272 
L 139.008743 154.676126 
L 137.95286 158.878252 
L 136.896977 163.007 
L 135.841093 166.715875 
L 134.78521 170.613954 
L 133.729326 174.221917 
L 132.673443 177.772081 
L 131.617559 181.186161 
L 130.561676 184.488873 
L 129.505793 187.973245 
L 128.449909 191.350313 
L 127.394026 194.465028 
L 126.338142 197.12878 
L 125.282259 199.696342 
L 124.226376 201.806748 
L 123.170492 203.682498 
L 122.114609 205.399602 
L 121.058725 206.60892 
L 120.002842 207.472496 
L 118.946958 208.396234 
L 117.891075 209.131567 
L 116.835192 209.511192 
L 115.779308 209.793203 
L 114.723425 209.988509 
L 113.667541 210.098354 
L 112.611658 210.348901 
L 111.555774 210.387088 
L 110.499891 210.208004 
L 109.444008 210.309955 
L 108.388124 209.995186 
L 107.332241 210.06743 
L 106.276357 210.029545 
L 105.220474 209.988471 
L 104.164591 209.883741 
L 103.108707 209.57257 
L 102.052824 209.31682 
L 100.99694 209.228307 
L 99.941057 209.350788 
L 98.885173 209.26684 
L 97.82929 209.4089 
L 96.773407 209.443087 
L 95.717523 208.684574 
L 94.66164 208.678835 
L 93.605756 208.801976 
L 92.549873 207.954216 
L 91.493989 207.101854 
L 90.438106 207.002244 
L 89.382223 206.372371 
L 88.326339 206.282274 
L 87.270456 202.650714 
z
" style="fill:#e41a1c;fill-opacity:0.25;"/>
   </g>
   <g id="line2d_23">
    <path clip-path="url(#pbfef509ee0)" d="M 87.270456 215.581095 
L 88.326339 214.728144 
L 89.382223 213.391603 
L 90.438106 212.936937 
L 91.493989 212.334064 
L 92.549873 212.593023 
L 93.605756 213.104012 
L 95.717523 212.721394 
L 96.773407 213.073087 
L 97.82929 212.990442 
L 98.885173 212.733176 
L 99.941057 212.812517 
L 100.99694 212.502729 
L 103.108707 212.752898 
L 104.164591 213.024457 
L 107.332241 212.958687 
L 108.388124 212.874219 
L 109.444008 212.983695 
L 110.499891 212.828626 
L 111.555774 212.998589 
L 112.611658 212.978141 
L 116.835192 211.859444 
L 117.891075 211.434241 
L 118.946958 210.710924 
L 121.058725 208.777187 
L 122.114609 207.618451 
L 124.226376 204.331982 
L 125.282259 202.435757 
L 127.394026 197.622037 
L 129.505793 191.593372 
L 133.729326 178.714003 
L 136.896977 169.1014 
L 144.288161 145.045575 
L 148.511694 131.746547 
L 150.623461 125.946335 
L 152.735228 121.029831 
L 154.846995 117.036807 
L 156.958762 113.624929 
L 162.238179 105.371547 
L 165.405829 100.365552 
L 167.517596 97.475117 
L 170.685246 93.796013 
L 172.797013 91.795781 
L 174.90878 90.251018 
L 178.07643 88.277718 
L 180.188197 87.244328 
L 187.579381 84.111743 
L 190.747031 83.113377 
L 196.026448 81.854964 
L 201.305865 80.942272 
L 205.529399 80.319948 
L 210.808816 79.800242 
L 240.373552 78.714743 
L 275.217705 78.119333 
L 290.000073 77.992772 
L 349.129544 77.91342 
L 349.129544 77.91342 
" style="fill:none;stroke:#e41a1c;stroke-linecap:square;stroke-width:2;"/>
   </g>
   <g id="patch_3">
    <path d="M 74.177501 236.05972 
L 74.177501 13.852984 
" style="fill:none;stroke:#000000;stroke-linecap:square;stroke-linejoin:miter;stroke-width:0.8;"/>
   </g>
   <g id="patch_4">
    <path d="M 362.222499 236.05972 
L 362.222499 13.852984 
" style="fill:none;stroke:#000000;stroke-linecap:square;stroke-linejoin:miter;stroke-width:0.8;"/>
   </g>
   <g id="patch_5">
    <path d="M 74.177501 236.05972 
L 362.222499 236.05972 
" style="fill:none;stroke:#000000;stroke-linecap:square;stroke-linejoin:miter;stroke-width:0.8;"/>
   </g>
  </g>
  <g id="axes_2">
   <g id="matplotlib.axis_3">
    <g id="ytick_7">
     <g id="line2d_24">
      <path clip-path="url(#pbfef509ee0)" d="M 74.177501 230.772056 
L 362.222499 230.772056 
" style="fill:none;stroke:#bfbfbf;stroke-dasharray:0.8,2.4;stroke-dashoffset:0;stroke-linecap:round;stroke-linejoin:miter;stroke-width:0.8;"/>
     </g>
     <g id="line2d_25">
      <defs>
       <path d="M 0 0 
L 3.5 0 
" id="m7ac148d3db" style="stroke:#000000;stroke-width:0.8;"/>
      </defs>
      <g>
       <use style="stroke:#000000;stroke-width:0.8;" x="362.222499" xlink:href="#m7ac148d3db" y="230.772056"/>
      </g>
     </g>
     <g id="text_14">
      <!-- $\mathdefault{0.80}$ -->
      <g transform="translate(369.222499 237.42504)scale(0.18 -0.18)">
       <use transform="scale(0.996264)" xlink:href="#CMR17-30"/>
       <use transform="translate(45.690477 0)scale(0.996264)" xlink:href="#CMMI12-3a"/>
       <use transform="translate(72.787654 0)scale(0.996264)" xlink:href="#CMR17-38"/>
       <use transform="translate(118.478131 0)scale(0.996264)" xlink:href="#CMR17-30"/>
      </g>
     </g>
    </g>
    <g id="ytick_8">
     <g id="line2d_26">
      <path clip-path="url(#pbfef509ee0)" d="M 74.177501 191.332225 
L 362.222499 191.332225 
" style="fill:none;stroke:#bfbfbf;stroke-dasharray:0.8,2.4;stroke-dashoffset:0;stroke-linecap:round;stroke-linejoin:miter;stroke-width:0.8;"/>
     </g>
     <g id="line2d_27">
      <g>
       <use style="stroke:#000000;stroke-width:0.8;" x="362.222499" xlink:href="#m7ac148d3db" y="191.332225"/>
      </g>
     </g>
     <g id="text_15">
      <!-- $\mathdefault{0.85}$ -->
      <g transform="translate(369.222499 197.985209)scale(0.18 -0.18)">
       <use transform="scale(0.996264)" xlink:href="#CMR17-30"/>
       <use transform="translate(45.690477 0)scale(0.996264)" xlink:href="#CMMI12-3a"/>
       <use transform="translate(72.787654 0)scale(0.996264)" xlink:href="#CMR17-38"/>
       <use transform="translate(118.478131 0)scale(0.996264)" xlink:href="#CMR17-35"/>
      </g>
     </g>
    </g>
    <g id="ytick_9">
     <g id="line2d_28">
      <path clip-path="url(#pbfef509ee0)" d="M 74.177501 151.892394 
L 362.222499 151.892394 
" style="fill:none;stroke:#bfbfbf;stroke-dasharray:0.8,2.4;stroke-dashoffset:0;stroke-linecap:round;stroke-linejoin:miter;stroke-width:0.8;"/>
     </g>
     <g id="line2d_29">
      <g>
       <use style="stroke:#000000;stroke-width:0.8;" x="362.222499" xlink:href="#m7ac148d3db" y="151.892394"/>
      </g>
     </g>
     <g id="text_16">
      <!-- $\mathdefault{0.90}$ -->
      <g transform="translate(369.222499 158.545378)scale(0.18 -0.18)">
       <use transform="scale(0.996264)" xlink:href="#CMR17-30"/>
       <use transform="translate(45.690477 0)scale(0.996264)" xlink:href="#CMMI12-3a"/>
       <use transform="translate(72.787654 0)scale(0.996264)" xlink:href="#CMR17-39"/>
       <use transform="translate(118.478131 0)scale(0.996264)" xlink:href="#CMR17-30"/>
      </g>
     </g>
    </g>
    <g id="ytick_10">
     <g id="line2d_30">
      <path clip-path="url(#pbfef509ee0)" d="M 74.177501 112.452562 
L 362.222499 112.452562 
" style="fill:none;stroke:#bfbfbf;stroke-dasharray:0.8,2.4;stroke-dashoffset:0;stroke-linecap:round;stroke-linejoin:miter;stroke-width:0.8;"/>
     </g>
     <g id="line2d_31">
      <g>
       <use style="stroke:#000000;stroke-width:0.8;" x="362.222499" xlink:href="#m7ac148d3db" y="112.452562"/>
      </g>
     </g>
     <g id="text_17">
      <!-- $\mathdefault{0.95}$ -->
      <g transform="translate(369.222499 119.105546)scale(0.18 -0.18)">
       <use transform="scale(0.996264)" xlink:href="#CMR17-30"/>
       <use transform="translate(45.690477 0)scale(0.996264)" xlink:href="#CMMI12-3a"/>
       <use transform="translate(72.787654 0)scale(0.996264)" xlink:href="#CMR17-39"/>
       <use transform="translate(118.478131 0)scale(0.996264)" xlink:href="#CMR17-35"/>
      </g>
     </g>
    </g>
    <g id="ytick_11">
     <g id="line2d_32">
      <path clip-path="url(#pbfef509ee0)" d="M 74.177501 73.012731 
L 362.222499 73.012731 
" style="fill:none;stroke:#bfbfbf;stroke-dasharray:0.8,2.4;stroke-dashoffset:0;stroke-linecap:round;stroke-linejoin:miter;stroke-width:0.8;"/>
     </g>
     <g id="line2d_33">
      <g>
       <use style="stroke:#000000;stroke-width:0.8;" x="362.222499" xlink:href="#m7ac148d3db" y="73.012731"/>
      </g>
     </g>
     <g id="text_18">
      <!-- $\mathdefault{1.00}$ -->
      <g transform="translate(369.222499 79.665715)scale(0.18 -0.18)">
       <use transform="scale(0.996264)" xlink:href="#CMR17-31"/>
       <use transform="translate(45.690477 0)scale(0.996264)" xlink:href="#CMMI12-3a"/>
       <use transform="translate(72.787654 0)scale(0.996264)" xlink:href="#CMR17-30"/>
       <use transform="translate(118.478131 0)scale(0.996264)" xlink:href="#CMR17-30"/>
      </g>
     </g>
    </g>
    <g id="ytick_12">
     <g id="line2d_34">
      <path clip-path="url(#pbfef509ee0)" d="M 74.177501 33.5729 
L 362.222499 33.5729 
" style="fill:none;stroke:#bfbfbf;stroke-dasharray:0.8,2.4;stroke-dashoffset:0;stroke-linecap:round;stroke-linejoin:miter;stroke-width:0.8;"/>
     </g>
     <g id="line2d_35">
      <g>
       <use style="stroke:#000000;stroke-width:0.8;" x="362.222499" xlink:href="#m7ac148d3db" y="33.5729"/>
      </g>
     </g>
     <g id="text_19">
      <!-- $\mathdefault{1.05}$ -->
      <g transform="translate(369.222499 40.225884)scale(0.18 -0.18)">
       <use transform="scale(0.996264)" xlink:href="#CMR17-31"/>
       <use transform="translate(45.690477 0)scale(0.996264)" xlink:href="#CMMI12-3a"/>
       <use transform="translate(72.787654 0)scale(0.996264)" xlink:href="#CMR17-30"/>
       <use transform="translate(118.478131 0)scale(0.996264)" xlink:href="#CMR17-35"/>
      </g>
     </g>
    </g>
    <g id="text_20">
     <!-- 0.1m Height Reward -->
     <g transform="translate(425.0357 229.897737)rotate(-90)scale(0.22 -0.22)">
      <defs>
       <path d="M 1818 4544 
C 922 4544 269 3564 269 2224 
C 269 904 902 -64 1766 -64 
C 2662 -64 3290 872 3290 2204 
C 3290 2884 3149 3448 2880 3890 
C 2630 4294 2221 4544 1818 4544 
z
M 1773 4269 
C 1984 4269 2189 4128 2342 3872 
C 2515 3576 2573 3198 2573 2320 
C 2573 1422 2528 1000 2400 717 
C 2253 403 2022 211 1779 211 
C 1568 211 1363 352 1210 608 
C 1030 910 979 1314 979 2359 
C 979 3103 1024 3480 1152 3756 
C 1299 4083 1530 4269 1773 4269 
z
" id="CenturySchL-Roma-30" transform="scale(0.015625)"/>
       <path d="M 877 734 
C 653 734 474 555 474 338 
C 474 114 653 -64 870 -64 
C 1094 -64 1274 114 1274 338 
C 1274 555 1094 734 877 734 
z
" id="CenturySchL-Roma-2e" transform="scale(0.015625)"/>
       <path d="M 2061 4512 
C 1843 4239 1254 4032 666 4032 
L 666 3750 
L 1229 3750 
C 1600 3750 1626 3725 1626 3348 
L 1626 786 
L 1626 600 
C 1626 332 1568 300 1056 300 
L 640 300 
L 640 0 
L 3174 0 
L 3174 300 
L 2822 300 
C 2483 300 2342 326 2291 390 
C 2246 434 2246 434 2246 788 
L 2246 3435 
C 2246 3749 2259 4056 2291 4512 
L 2061 4512 
z
" id="CenturySchL-Roma-31" transform="scale(0.015625)"/>
       <path d="M 1286 2944 
L 147 2944 
L 147 2638 
L 410 2638 
C 646 2638 685 2593 685 2317 
L 685 787 
L 685 538 
C 685 275 614 230 205 230 
L 179 230 
L 179 0 
L 1792 0 
L 1792 230 
L 1766 230 
C 1357 230 1286 275 1286 537 
L 1286 786 
L 1286 1693 
C 1286 2261 1600 2683 2016 2683 
C 2182 2683 2362 2593 2438 2472 
C 2528 2351 2566 2165 2566 1903 
L 2566 786 
L 2566 530 
C 2566 275 2496 230 2080 230 
L 2054 230 
L 2054 0 
L 3674 0 
L 3674 230 
L 3648 230 
C 3238 230 3168 275 3168 530 
L 3168 786 
L 3168 1635 
C 3168 2274 3456 2683 3904 2683 
C 4115 2683 4288 2561 4371 2363 
C 4429 2223 4448 2082 4448 1833 
L 4448 786 
L 4448 530 
C 4448 275 4378 230 3962 230 
L 3936 230 
L 3936 0 
L 5555 0 
L 5555 230 
L 5530 230 
C 5120 230 5050 275 5050 537 
L 5050 786 
L 5050 1961 
C 5050 2357 5011 2491 4845 2708 
C 4659 2945 4397 3072 4090 3072 
C 3674 3072 3366 2876 3091 2439 
C 2982 2819 2637 3072 2208 3072 
C 1824 3072 1536 2889 1286 2491 
L 1286 2944 
z
" id="CenturySchL-Roma-6d" transform="scale(0.015625)"/>
      </defs>
      <use transform="scale(0.996264)" xlink:href="#CenturySchL-Roma-30"/>
      <use transform="translate(55.391677 0)scale(0.996264)" xlink:href="#CenturySchL-Roma-2e"/>
      <use transform="translate(83.086847 0)scale(0.996264)" xlink:href="#CenturySchL-Roma-31"/>
      <use transform="translate(138.478524 0)scale(0.996264)" xlink:href="#CenturySchL-Roma-6d"/>
      <use transform="translate(254.7406 0)scale(0.996264)" xlink:href="#CenturySchL-Roma-48"/>
      <use transform="translate(337.72903 0)scale(0.996264)" xlink:href="#CenturySchL-Roma-65"/>
      <use transform="translate(387.542231 0)scale(0.996264)" xlink:href="#CenturySchL-Roma-69"/>
      <use transform="translate(418.923544 0)scale(0.996264)" xlink:href="#CenturySchL-Roma-67"/>
      <use transform="translate(472.422887 0)scale(0.996264)" xlink:href="#CenturySchL-Roma-68"/>
      <use transform="translate(533.294518 0)scale(0.996264)" xlink:href="#CenturySchL-Roma-74"/>
      <use transform="translate(599.743394 0)scale(0.996264)" xlink:href="#CenturySchL-Roma-52"/>
      <use transform="translate(671.673379 0)scale(0.996264)" xlink:href="#CenturySchL-Roma-65"/>
      <use transform="translate(721.486579 0)scale(0.996264)" xlink:href="#CenturySchL-Roma-77"/>
      <use transform="translate(797.20237 0)scale(0.996264)" xlink:href="#CenturySchL-Roma-61"/>
      <use transform="translate(852.594047 0)scale(0.996264)" xlink:href="#CenturySchL-Roma-72"/>
      <use transform="translate(896.827616 0)scale(0.996264)" xlink:href="#CenturySchL-Roma-64"/>
     </g>
    </g>
   </g>
   <g id="PolyCollection_2">
    <defs>
     <path d="M 87.270456 -98.369157 
L 87.270456 -64.011089 
L 88.326339 -71.006106 
L 89.382223 -73.960149 
L 90.438106 -76.142108 
L 91.493989 -77.966912 
L 92.549873 -78.305843 
L 93.605756 -78.174847 
L 94.66164 -78.433236 
L 95.717523 -78.958844 
L 96.773407 -78.912479 
L 97.82929 -79.126615 
L 98.885173 -79.599574 
L 99.941057 -79.496651 
L 100.99694 -80.196564 
L 102.052824 -80.045538 
L 103.108707 -80.026205 
L 104.164591 -79.743137 
L 105.220474 -79.876329 
L 106.276357 -80.135937 
L 107.332241 -80.204289 
L 108.388124 -80.33358 
L 109.444008 -80.477346 
L 110.499891 -80.754731 
L 111.555774 -80.550771 
L 112.611658 -80.508072 
L 113.667541 -80.67501 
L 114.723425 -81.011239 
L 115.779308 -81.123487 
L 116.835192 -81.344591 
L 117.891075 -81.534027 
L 118.946958 -81.916128 
L 120.002842 -82.574409 
L 121.058725 -83.260798 
L 122.114609 -83.939777 
L 123.170492 -85.074858 
L 124.226376 -86.194426 
L 125.282259 -87.481676 
L 126.338142 -89.303128 
L 127.394026 -91.051952 
L 128.449909 -93.351348 
L 129.505793 -95.746601 
L 130.561676 -98.321035 
L 131.617559 -100.503648 
L 132.673443 -102.455085 
L 133.729326 -104.32385 
L 134.78521 -105.893353 
L 135.841093 -107.306385 
L 136.896977 -108.344544 
L 137.95286 -109.535912 
L 139.008743 -110.446774 
L 140.064627 -111.080236 
L 141.12051 -111.565428 
L 142.176394 -111.86835 
L 143.232277 -111.991485 
L 144.288161 -111.891071 
L 145.344044 -111.562162 
L 146.399927 -110.99117 
L 147.455811 -110.127742 
L 148.511694 -108.939021 
L 149.567578 -107.397926 
L 150.623461 -105.512502 
L 151.679344 -103.267717 
L 152.735228 -100.762846 
L 153.791111 -98.253695 
L 154.846995 -95.895236 
L 155.902878 -93.827076 
L 156.958762 -92.172809 
L 158.014645 -90.916854 
L 159.070528 -90.134907 
L 160.126412 -89.791365 
L 161.182295 -89.802858 
L 162.238179 -90.063314 
L 163.294062 -90.624114 
L 164.349946 -91.534329 
L 165.405829 -92.708067 
L 166.461712 -94.032804 
L 167.517596 -95.460941 
L 168.573479 -97.169111 
L 169.629363 -99.203271 
L 170.685246 -101.390313 
L 171.741129 -103.776676 
L 172.797013 -106.18944 
L 173.852896 -108.620938 
L 174.90878 -111.157646 
L 175.964663 -113.730808 
L 177.020547 -116.270483 
L 178.07643 -118.896124 
L 179.132313 -121.430281 
L 180.188197 -123.981628 
L 181.24408 -126.502311 
L 182.299964 -128.88405 
L 183.355847 -131.095916 
L 184.411731 -133.223523 
L 185.467614 -135.235188 
L 186.523497 -137.151632 
L 187.579381 -138.988472 
L 188.635264 -140.768885 
L 189.691148 -142.526526 
L 190.747031 -144.151996 
L 191.802914 -145.649496 
L 192.858798 -147.03537 
L 193.914681 -148.299389 
L 194.970565 -149.440913 
L 196.026448 -150.428037 
L 197.082332 -151.289026 
L 198.138215 -152.106007 
L 199.194098 -152.908644 
L 200.249982 -153.756071 
L 201.305865 -154.643725 
L 202.361749 -155.242741 
L 203.417632 -155.840246 
L 204.473516 -156.382476 
L 205.529399 -156.83701 
L 206.585282 -157.134348 
L 207.641166 -157.256935 
L 208.697049 -157.315217 
L 209.752933 -157.328281 
L 210.808816 -157.323658 
L 211.864699 -157.302199 
L 212.920583 -157.2843 
L 213.976466 -157.273754 
L 215.03235 -157.215594 
L 216.088233 -157.205584 
L 217.144117 -157.293431 
L 218.2 -157.514385 
L 219.255883 -157.779364 
L 220.311767 -158.110282 
L 221.36765 -158.56337 
L 222.423534 -159.128366 
L 223.479417 -159.787113 
L 224.535301 -160.318172 
L 225.591184 -160.824273 
L 226.647067 -161.339731 
L 227.702951 -161.951288 
L 228.758834 -162.722839 
L 229.814718 -163.618197 
L 230.870601 -164.587383 
L 231.926484 -165.709397 
L 232.982368 -166.763953 
L 234.038251 -167.932812 
L 235.094135 -169.104257 
L 236.150018 -170.242313 
L 237.205902 -171.310442 
L 238.261785 -172.3067 
L 239.317668 -173.216204 
L 240.373552 -174.029705 
L 241.429435 -174.780559 
L 242.485319 -175.479879 
L 243.541202 -176.206601 
L 244.597086 -176.976108 
L 245.652969 -177.587667 
L 246.708852 -178.301379 
L 247.764736 -178.97514 
L 248.820619 -179.537286 
L 249.876503 -180.037992 
L 250.932386 -180.534047 
L 251.988269 -181.042068 
L 253.044153 -181.540505 
L 254.100036 -181.982511 
L 255.15592 -182.35005 
L 256.211803 -182.633731 
L 257.267687 -182.881789 
L 258.32357 -183.111898 
L 259.379453 -183.358397 
L 260.435337 -183.585818 
L 261.49122 -183.916019 
L 262.547104 -184.402135 
L 263.602987 -184.811342 
L 264.658871 -185.203199 
L 265.714754 -185.526247 
L 266.770637 -185.831363 
L 267.826521 -186.153029 
L 268.882404 -186.519657 
L 269.938288 -186.90111 
L 270.994171 -187.219555 
L 272.050054 -187.554752 
L 273.105938 -187.904999 
L 274.161821 -188.308995 
L 275.217705 -188.755098 
L 276.273588 -189.241599 
L 277.329472 -189.813542 
L 278.385355 -190.360733 
L 279.441238 -190.90462 
L 280.497122 -191.474082 
L 281.553005 -192.027724 
L 282.608889 -192.595126 
L 283.664772 -193.14996 
L 284.720656 -193.667694 
L 285.776539 -194.177033 
L 286.832422 -194.665101 
L 287.888306 -195.076398 
L 288.944189 -195.386084 
L 290.000073 -195.723967 
L 291.055956 -196.04877 
L 292.111839 -196.372896 
L 293.167723 -196.712415 
L 294.223606 -197.083147 
L 295.27949 -197.429926 
L 296.335373 -197.775389 
L 297.391257 -198.166252 
L 298.44714 -198.562533 
L 299.503023 -198.967224 
L 300.558907 -199.359782 
L 301.61479 -199.741083 
L 302.670674 -200.090315 
L 303.726557 -200.383693 
L 304.782441 -200.69511 
L 305.838324 -200.990114 
L 306.894207 -201.291511 
L 307.950091 -201.60332 
L 309.005974 -201.921163 
L 310.061858 -202.265259 
L 311.117741 -202.668916 
L 312.173624 -203.04939 
L 313.229508 -203.422747 
L 314.285391 -203.826958 
L 315.341275 -204.243042 
L 316.397158 -204.657984 
L 317.453042 -205.073332 
L 318.508925 -205.476148 
L 319.564808 -205.863925 
L 320.620692 -206.26623 
L 321.676575 -206.679879 
L 322.732459 -207.089069 
L 323.788342 -207.504158 
L 324.844226 -207.943625 
L 325.900109 -208.36694 
L 326.955992 -208.779282 
L 328.011876 -209.19111 
L 329.067759 -209.582771 
L 330.123643 -209.929611 
L 331.179526 -210.284687 
L 332.235409 -210.658868 
L 333.291293 -210.991331 
L 334.347176 -211.291723 
L 335.40306 -211.546091 
L 336.458943 -211.777051 
L 337.514827 -211.976401 
L 338.57071 -212.181954 
L 339.626593 -212.38159 
L 340.682477 -212.56367 
L 341.73836 -212.739408 
L 342.794244 -212.908334 
L 343.850127 -213.040659 
L 344.906011 -213.168381 
L 345.961894 -213.311472 
L 347.017777 -213.436888 
L 348.073661 -213.538186 
L 349.129544 -213.623767 
L 349.129544 -217.427271 
L 349.129544 -217.427271 
L 348.073661 -217.393326 
L 347.017777 -217.372375 
L 345.961894 -217.36836 
L 344.906011 -217.362151 
L 343.850127 -217.346864 
L 342.794244 -217.330806 
L 341.73836 -217.303584 
L 340.682477 -217.291344 
L 339.626593 -217.306045 
L 338.57071 -217.316441 
L 337.514827 -217.321497 
L 336.458943 -217.312512 
L 335.40306 -217.296614 
L 334.347176 -217.275571 
L 333.291293 -217.258047 
L 332.235409 -217.259129 
L 331.179526 -217.274967 
L 330.123643 -217.264487 
L 329.067759 -217.24443 
L 328.011876 -217.249117 
L 326.955992 -217.257221 
L 325.900109 -217.259017 
L 324.844226 -217.243987 
L 323.788342 -217.21521 
L 322.732459 -217.205136 
L 321.676575 -217.198412 
L 320.620692 -217.182276 
L 319.564808 -217.147879 
L 318.508925 -217.112267 
L 317.453042 -217.075753 
L 316.397158 -217.023188 
L 315.341275 -216.966138 
L 314.285391 -216.912252 
L 313.229508 -216.845294 
L 312.173624 -216.77712 
L 311.117741 -216.701835 
L 310.061858 -216.627475 
L 309.005974 -216.536607 
L 307.950091 -216.436115 
L 306.894207 -216.332253 
L 305.838324 -216.213176 
L 304.782441 -216.064419 
L 303.726557 -215.918504 
L 302.670674 -215.77398 
L 301.61479 -215.616971 
L 300.558907 -215.458216 
L 299.503023 -215.31298 
L 298.44714 -215.173515 
L 297.391257 -215.038462 
L 296.335373 -214.883657 
L 295.27949 -214.694326 
L 294.223606 -214.502784 
L 293.167723 -214.313793 
L 292.111839 -214.110482 
L 291.055956 -213.88914 
L 290.000073 -213.681791 
L 288.944189 -213.501839 
L 287.888306 -213.350913 
L 286.832422 -213.177822 
L 285.776539 -212.997957 
L 284.720656 -212.835489 
L 283.664772 -212.675261 
L 282.608889 -212.515107 
L 281.553005 -212.380291 
L 280.497122 -212.257409 
L 279.441238 -212.147751 
L 278.385355 -212.044097 
L 277.329472 -211.900316 
L 276.273588 -211.723198 
L 275.217705 -211.535257 
L 274.161821 -211.336594 
L 273.105938 -211.128207 
L 272.050054 -210.931258 
L 270.994171 -210.718616 
L 269.938288 -210.500872 
L 268.882404 -210.253671 
L 267.826521 -209.996048 
L 266.770637 -209.725069 
L 265.714754 -209.444704 
L 264.658871 -209.209362 
L 263.602987 -209.028856 
L 262.547104 -208.830511 
L 261.49122 -208.616734 
L 260.435337 -208.337706 
L 259.379453 -208.019107 
L 258.32357 -207.706892 
L 257.267687 -207.452233 
L 256.211803 -207.225156 
L 255.15592 -206.980766 
L 254.100036 -206.716491 
L 253.044153 -206.44164 
L 251.988269 -206.151269 
L 250.932386 -205.858768 
L 249.876503 -205.605566 
L 248.820619 -205.387071 
L 247.764736 -205.170912 
L 246.708852 -204.916623 
L 245.652969 -204.543035 
L 244.597086 -204.048733 
L 243.541202 -203.51047 
L 242.485319 -202.823586 
L 241.429435 -202.024274 
L 240.373552 -201.207501 
L 239.317668 -200.465025 
L 238.261785 -199.720997 
L 237.205902 -198.962288 
L 236.150018 -198.199644 
L 235.094135 -197.444495 
L 234.038251 -196.710263 
L 232.982368 -195.950354 
L 231.926484 -195.227622 
L 230.870601 -194.593658 
L 229.814718 -193.859208 
L 228.758834 -193.063702 
L 227.702951 -192.220554 
L 226.647067 -191.538483 
L 225.591184 -190.822041 
L 224.535301 -190.057215 
L 223.479417 -189.210596 
L 222.423534 -188.371636 
L 221.36765 -187.551386 
L 220.311767 -186.751729 
L 219.255883 -185.941817 
L 218.2 -185.150462 
L 217.144117 -184.473189 
L 216.088233 -183.85324 
L 215.03235 -183.15986 
L 213.976466 -182.419269 
L 212.920583 -181.70485 
L 211.864699 -181.064566 
L 210.808816 -180.521235 
L 209.752933 -180.068944 
L 208.697049 -179.722456 
L 207.641166 -179.487573 
L 206.585282 -179.316322 
L 205.529399 -179.096903 
L 204.473516 -178.869661 
L 203.417632 -178.673039 
L 202.361749 -178.360966 
L 201.305865 -178.014789 
L 200.249982 -177.616091 
L 199.194098 -177.053995 
L 198.138215 -176.514729 
L 197.082332 -176.04005 
L 196.026448 -175.530279 
L 194.970565 -174.986736 
L 193.914681 -174.321036 
L 192.858798 -173.587359 
L 191.802914 -172.838328 
L 190.747031 -172.075527 
L 189.691148 -171.304952 
L 188.635264 -170.537368 
L 187.579381 -169.659148 
L 186.523497 -168.816436 
L 185.467614 -167.938644 
L 184.411731 -166.973685 
L 183.355847 -165.981395 
L 182.299964 -165.060735 
L 181.24408 -164.084453 
L 180.188197 -163.104857 
L 179.132313 -162.117095 
L 178.07643 -161.180907 
L 177.020547 -160.270413 
L 175.964663 -159.379695 
L 174.90878 -158.48548 
L 173.852896 -157.607762 
L 172.797013 -156.767479 
L 171.741129 -155.978509 
L 170.685246 -155.224907 
L 169.629363 -154.551699 
L 168.573479 -154.009834 
L 167.517596 -153.530878 
L 166.461712 -153.109873 
L 165.405829 -152.697513 
L 164.349946 -152.286644 
L 163.294062 -151.92753 
L 162.238179 -151.659641 
L 161.182295 -151.503019 
L 160.126412 -151.462946 
L 159.070528 -151.561658 
L 158.014645 -151.751358 
L 156.958762 -152.032767 
L 155.902878 -152.307287 
L 154.846995 -152.512314 
L 153.791111 -152.552398 
L 152.735228 -152.406538 
L 151.679344 -151.999684 
L 150.623461 -151.308393 
L 149.567578 -150.364626 
L 148.511694 -149.210241 
L 147.455811 -147.855872 
L 146.399927 -146.321074 
L 145.344044 -144.625663 
L 144.288161 -142.823668 
L 143.232277 -140.922787 
L 142.176394 -138.907422 
L 141.12051 -136.818114 
L 140.064627 -134.666103 
L 139.008743 -132.556708 
L 137.95286 -130.604108 
L 136.896977 -128.292538 
L 135.841093 -126.472881 
L 134.78521 -124.168698 
L 133.729326 -122.107391 
L 132.673443 -119.722279 
L 131.617559 -117.254547 
L 130.561676 -114.485865 
L 129.505793 -111.320481 
L 128.449909 -108.128272 
L 127.394026 -104.952552 
L 126.338142 -101.994936 
L 125.282259 -98.814852 
L 124.226376 -96.159768 
L 123.170492 -93.765883 
L 122.114609 -91.672566 
L 121.058725 -90.351782 
L 120.002842 -89.41208 
L 118.946958 -88.534281 
L 117.891075 -87.914445 
L 116.835192 -87.752095 
L 115.779308 -87.585225 
L 114.723425 -87.479824 
L 113.667541 -87.52049 
L 112.611658 -87.299349 
L 111.555774 -87.20615 
L 110.499891 -87.460293 
L 109.444008 -87.25078 
L 108.388124 -87.638506 
L 107.332241 -87.486174 
L 106.276357 -87.571727 
L 105.220474 -87.644549 
L 104.164591 -87.803234 
L 103.108707 -88.222378 
L 102.052824 -88.509548 
L 100.99694 -88.606384 
L 99.941057 -88.454384 
L 98.885173 -88.603174 
L 97.82929 -88.455125 
L 96.773407 -88.638955 
L 95.717523 -89.649313 
L 94.66164 -89.581197 
L 93.605756 -89.592276 
L 92.549873 -90.558323 
L 91.493989 -91.404963 
L 90.438106 -91.476962 
L 89.382223 -92.635692 
L 88.326339 -93.338593 
L 87.270456 -98.369157 
z
" id="m530da57f03" style="stroke:#377eb8;stroke-opacity:0.25;"/>
    </defs>
    <g clip-path="url(#pbfef509ee0)">
     <use style="fill:#377eb8;fill-opacity:0.25;stroke:#377eb8;stroke-opacity:0.25;" x="0" xlink:href="#m530da57f03" y="292.4"/>
    </g>
   </g>
   <g id="line2d_36">
    <path clip-path="url(#pbfef509ee0)" d="M 87.270456 211.209877 
L 89.382223 209.102079 
L 90.438106 208.590465 
L 91.493989 207.714063 
L 92.549873 207.967917 
L 93.605756 208.516439 
L 94.66164 208.392783 
L 95.717523 208.095921 
L 96.773407 208.624283 
L 97.82929 208.60913 
L 98.885173 208.298626 
L 99.941057 208.424482 
L 100.99694 207.998526 
L 103.108707 208.275709 
L 104.164591 208.626815 
L 107.332241 208.554769 
L 108.388124 208.413957 
L 109.444008 208.535937 
L 110.499891 208.292488 
L 111.555774 208.52154 
L 112.611658 208.496289 
L 114.723425 208.154468 
L 116.835192 207.851657 
L 117.891075 207.675764 
L 118.946958 207.174796 
L 121.058725 205.59371 
L 122.114609 204.593828 
L 124.226376 201.222903 
L 125.282259 199.251736 
L 128.449909 191.66019 
L 131.617559 183.520903 
L 133.729326 179.18438 
L 135.841093 175.510367 
L 136.896977 174.081459 
L 137.95286 172.32999 
L 141.12051 168.208229 
L 143.232277 165.942864 
L 144.288161 165.04263 
L 145.344044 164.306087 
L 146.399927 163.743878 
L 147.455811 163.408193 
L 148.511694 163.325369 
L 149.567578 163.518724 
L 150.623461 163.989552 
L 151.679344 164.766299 
L 153.791111 166.996953 
L 155.902878 169.332818 
L 156.958762 170.297212 
L 158.014645 171.065894 
L 159.070528 171.551717 
L 160.126412 171.772844 
L 161.182295 171.747061 
L 162.238179 171.538523 
L 163.294062 171.124178 
L 164.349946 170.489513 
L 166.461712 168.828662 
L 167.517596 167.90409 
L 168.573479 166.810527 
L 170.685246 164.09239 
L 173.852896 159.28565 
L 180.188197 148.856757 
L 182.299964 145.427607 
L 185.467614 140.813084 
L 188.635264 136.746874 
L 190.747031 134.286239 
L 192.858798 132.088636 
L 194.970565 130.186175 
L 197.082332 128.735462 
L 202.361749 125.598146 
L 204.473516 124.773932 
L 206.585282 124.174665 
L 210.808816 123.477554 
L 212.920583 122.905425 
L 218.2 121.067577 
L 220.311767 119.968994 
L 222.423534 118.649999 
L 224.535301 117.212307 
L 227.702951 115.314079 
L 230.870601 112.80948 
L 234.038251 110.078462 
L 238.261785 106.386152 
L 241.429435 103.997584 
L 243.541202 102.541464 
L 245.652969 101.334649 
L 247.764736 100.326974 
L 254.100036 98.050499 
L 256.211803 97.470556 
L 260.435337 96.438238 
L 279.441238 90.873814 
L 287.888306 88.186345 
L 292.111839 87.158311 
L 303.726557 84.248902 
L 321.676575 80.460855 
L 333.291293 78.275311 
L 337.514827 77.751051 
L 345.961894 77.060084 
L 349.129544 76.874481 
L 349.129544 76.874481 
" style="fill:none;stroke:#377eb8;stroke-dasharray:12,12;stroke-dashoffset:0;stroke-linecap:round;stroke-linejoin:miter;stroke-width:2;"/>
   </g>
   <g id="patch_6">
    <path d="M 74.177501 236.05972 
L 74.177501 13.852984 
" style="fill:none;stroke:#000000;stroke-linecap:square;stroke-linejoin:miter;stroke-width:0.8;"/>
   </g>
   <g id="patch_7">
    <path d="M 74.177501 236.05972 
L 362.222499 236.05972 
" style="fill:none;stroke:#000000;stroke-linecap:square;stroke-linejoin:miter;stroke-width:0.8;"/>
   </g>
   <g id="legend_1">
    <g id="patch_8">
     <path d="M 170.431144 72.479241 
L 356.822499 72.479241 
Q 360.422499 72.479241 360.422499 68.879241 
L 360.422499 19.252984 
Q 360.422499 15.652984 356.822499 15.652984 
L 170.431144 15.652984 
Q 166.831144 15.652984 166.831144 19.252984 
L 166.831144 68.879241 
Q 166.831144 72.479241 170.431144 72.479241 
z
" style="fill:#ffffff;stroke:#cccccc;stroke-linejoin:miter;"/>
    </g>
    <g id="line2d_37">
     <path d="M 174.031144 29.858952 
L 210.031144 29.858952 
" style="fill:none;stroke:#e41a1c;stroke-linecap:square;stroke-width:2;"/>
    </g>
    <g id="line2d_38"/>
    <g id="text_21">
     <!-- Height = Max -->
     <g transform="translate(224.431144 36.158952)scale(0.18 -0.18)">
      <defs>
       <path d="M 326 704 
L 3552 704 
L 3552 1215 
L 326 1215 
L 326 704 
z
M 326 1985 
L 3552 1985 
L 3552 2496 
L 326 2496 
L 326 1985 
z
" id="CenturySchL-Roma-3d" transform="scale(0.015625)"/>
      </defs>
      <use transform="scale(0.996264)" xlink:href="#CenturySchL-Roma-48"/>
      <use transform="translate(82.98843 0)scale(0.996264)" xlink:href="#CenturySchL-Roma-65"/>
      <use transform="translate(132.801631 0)scale(0.996264)" xlink:href="#CenturySchL-Roma-69"/>
      <use transform="translate(164.182944 0)scale(0.996264)" xlink:href="#CenturySchL-Roma-67"/>
      <use transform="translate(217.682288 0)scale(0.996264)" xlink:href="#CenturySchL-Roma-68"/>
      <use transform="translate(278.553918 0)scale(0.996264)" xlink:href="#CenturySchL-Roma-74"/>
      <use transform="translate(345.002794 0)scale(0.996264)" xlink:href="#CenturySchL-Roma-3d"/>
      <use transform="translate(433.070976 0)scale(0.996264)" xlink:href="#CenturySchL-Roma-4d"/>
      <use transform="translate(527.117745 0)scale(0.996264)" xlink:href="#CenturySchL-Roma-61"/>
      <use transform="translate(582.509422 0)scale(0.996264)" xlink:href="#CenturySchL-Roma-78"/>
     </g>
    </g>
    <g id="line2d_39">
     <path d="M 174.031144 55.572081 
L 210.031144 55.572081 
" style="fill:none;stroke:#377eb8;stroke-dasharray:12,12;stroke-dashoffset:0;stroke-linecap:round;stroke-linejoin:miter;stroke-width:2;"/>
    </g>
    <g id="line2d_40"/>
    <g id="text_22">
     <!-- Height = 0.01m -->
     <g transform="translate(224.431144 61.872081)scale(0.18 -0.18)">
      <use transform="scale(0.996264)" xlink:href="#CenturySchL-Roma-48"/>
      <use transform="translate(82.98843 0)scale(0.996264)" xlink:href="#CenturySchL-Roma-65"/>
      <use transform="translate(132.801631 0)scale(0.996264)" xlink:href="#CenturySchL-Roma-69"/>
      <use transform="translate(164.182944 0)scale(0.996264)" xlink:href="#CenturySchL-Roma-67"/>
      <use transform="translate(217.682288 0)scale(0.996264)" xlink:href="#CenturySchL-Roma-68"/>
      <use transform="translate(278.553918 0)scale(0.996264)" xlink:href="#CenturySchL-Roma-74"/>
      <use transform="translate(345.002794 0)scale(0.996264)" xlink:href="#CenturySchL-Roma-3d"/>
      <use transform="translate(433.070976 0)scale(0.996264)" xlink:href="#CenturySchL-Roma-30"/>
      <use transform="translate(488.462653 0)scale(0.996264)" xlink:href="#CenturySchL-Roma-2e"/>
      <use transform="translate(516.157822 0)scale(0.996264)" xlink:href="#CenturySchL-Roma-30"/>
      <use transform="translate(571.549499 0)scale(0.996264)" xlink:href="#CenturySchL-Roma-31"/>
      <use transform="translate(626.941176 0)scale(0.996264)" xlink:href="#CenturySchL-Roma-6d"/>
     </g>
    </g>
   </g>
  </g>
 </g>
 <defs>
  <clipPath id="pbfef509ee0">
   <rect height="222.206736" width="288.044997" x="74.177501" y="13.852984"/>
  </clipPath>
 </defs>
</svg>
