<?xml version="1.0" encoding="utf-8" standalone="no"?>
<!DOCTYPE svg PUBLIC "-//W3C//DTD SVG 1.1//EN"
  "http://www.w3.org/Graphics/SVG/1.1/DTD/svg11.dtd">
<svg height="328.4pt" version="1.1" viewBox="0 0 490.4 328.4" width="490.4pt" xmlns="http://www.w3.org/2000/svg" xmlns:xlink="http://www.w3.org/1999/xlink">
 <metadata>
  <rdf:RDF xmlns:cc="http://creativecommons.org/ns#" xmlns:dc="http://purl.org/dc/elements/1.1/" xmlns:rdf="http://www.w3.org/1999/02/22-rdf-syntax-ns#">
   <cc:Work>
    <dc:type rdf:resource="http://purl.org/dc/dcmitype/StillImage"/>
    <dc:date>2021-11-23T13:20:30.166315</dc:date>
    <dc:format>image/svg+xml</dc:format>
    <dc:creator>
     <cc:Agent>
      <dc:title>Matplotlib v3.4.2, https://matplotlib.org/</dc:title>
     </cc:Agent>
    </dc:creator>
   </cc:Work>
  </rdf:RDF>
 </metadata>
 <defs>
  <style type="text/css">*{stroke-linecap:butt;stroke-linejoin:round;}</style>
 </defs>
 <g id="figure_1">
  <g id="patch_1">
   <path d="M 0 328.4 
L 490.4 328.4 
L 490.4 0 
L 0 0 
z
" style="fill:none;"/>
  </g>
  <g id="axes_1">
   <g id="patch_2">
    <path d="M 74.177501 272.05972 
L 483.2 272.05972 
L 483.2 7.2 
L 74.177501 7.2 
z
" style="fill:none;"/>
   </g>
   <g id="line2d_1">
    <path clip-path="url(#p6c985ef8d0)" d="M 92.769433 256.645448 
L 94.010964 256.534793 
L 95.252496 256.202441 
L 96.494027 255.648392 
L 97.735558 254.872646 
L 98.97709 253.875204 
L 101.460152 251.656241 
L 102.701684 250.868871 
L 103.943215 250.32669 
L 105.184746 250.029697 
L 106.426278 249.977893 
L 110.771637 250.494872 
L 116.358529 251.380394 
L 121.94542 252.503771 
L 127.532311 253.865001 
L 133.119202 255.464086 
L 138.706093 257.297816 
L 145.534515 259.546711 
L 151.121406 261.228506 
L 152.983703 262.330877 
L 155.466766 264.197252 
L 156.708297 264.996534 
L 157.329063 265.215294 
L 157.949828 265.307083 
L 158.570594 265.270161 
L 159.19136 265.10524 
L 160.432891 264.405871 
L 161.674422 263.256093 
L 162.915954 261.730954 
L 167.261313 255.75962 
L 174.089736 246.493365 
L 180.918158 237.582422 
L 187.74658 229.026792 
L 194.575003 220.826476 
L 201.403425 212.981472 
L 208.231847 205.491782 
L 215.06027 198.357404 
L 221.267926 192.179936 
L 227.475583 186.296115 
L 233.68324 180.705942 
L 239.890896 175.409415 
L 246.098553 170.406536 
L 252.30621 165.697304 
L 258.513866 161.281719 
L 264.721523 157.159781 
L 270.308414 153.701106 
L 275.895305 150.480284 
L 281.482196 147.497317 
L 287.069087 144.752204 
L 292.655978 142.244945 
L 298.242869 139.975541 
L 303.82976 137.94399 
L 309.416651 136.150294 
L 315.003542 134.594452 
L 320.590433 133.276464 
L 326.177324 132.196331 
L 331.764215 131.354052 
L 337.351106 130.749627 
L 342.937997 130.383056 
L 348.524888 130.254339 
L 354.111779 130.363477 
L 359.69867 130.710469 
L 365.285561 131.295315 
L 370.872452 132.118015 
L 376.459343 133.178569 
L 382.046234 134.476978 
L 387.633125 136.013241 
L 393.220016 137.787358 
L 398.806907 139.79933 
L 404.393798 142.049155 
L 409.980689 144.536835 
L 415.56758 147.262369 
L 421.154471 150.225757 
L 426.741362 153.427 
L 432.328254 156.866096 
L 437.915145 160.543047 
L 444.122801 164.907513 
L 450.330458 169.565626 
L 456.538115 174.517386 
L 462.745771 179.762793 
L 464.608068 181.393677 
L 464.608068 181.393677 
" style="fill:none;stroke:#e41a1c;stroke-linecap:square;stroke-width:2;"/>
   </g>
   <g id="line2d_2">
    <path clip-path="url(#p6c985ef8d0)" d="M 92.769433 256.645448 
L 94.010964 256.534793 
L 95.252496 256.202441 
L 96.494027 255.648392 
L 97.735558 254.872646 
L 98.97709 253.875204 
L 101.460152 251.656241 
L 102.701684 250.86887 
L 103.943215 250.326689 
L 105.184746 250.029696 
L 106.426278 249.977892 
L 110.771637 250.49487 
L 116.358529 251.380392 
L 121.94542 252.503768 
L 127.532311 253.864998 
L 133.119202 255.464082 
L 139.326858 257.50275 
L 143.051452 258.649263 
L 145.534515 259.213583 
L 148.017578 259.536224 
L 149.879875 259.723578 
L 151.742172 260.235466 
L 153.604469 261.052431 
L 156.708297 262.669924 
L 157.949828 262.79968 
L 159.19136 262.480982 
L 160.432891 261.732342 
L 161.674422 260.592598 
L 163.536719 258.335283 
L 171.606673 248.15156 
L 178.435095 239.916075 
L 185.263518 232.035903 
L 192.09194 224.511045 
L 198.920362 217.3415 
L 205.128019 211.132061 
L 211.335676 205.216269 
L 217.543332 199.594124 
L 223.750989 194.265627 
L 229.958646 189.230776 
L 236.166302 184.489573 
L 242.373959 180.042017 
L 248.581616 175.888109 
L 254.168507 172.400659 
L 259.755398 169.151064 
L 265.342289 166.139323 
L 270.92918 163.365436 
L 276.516071 160.829403 
L 282.102962 158.531225 
L 287.689853 156.4709 
L 293.276744 154.64843 
L 298.863635 153.063815 
L 304.450526 151.717053 
L 310.037417 150.608146 
L 315.624308 149.737092 
L 321.211199 149.103894 
L 326.79809 148.708549 
L 332.384981 148.551058 
L 337.971872 148.631422 
L 343.558763 148.94964 
L 349.145654 149.505712 
L 354.732545 150.299639 
L 360.319436 151.331419 
L 365.906327 152.601054 
L 371.493218 154.108543 
L 377.080109 155.853886 
L 382.667 157.837084 
L 388.253891 160.058135 
L 393.840782 162.517041 
L 399.427673 165.213801 
L 405.014564 168.148416 
L 410.601455 171.320884 
L 416.188346 174.731207 
L 421.775237 178.379384 
L 427.982894 182.711879 
L 434.190551 187.338021 
L 440.398207 192.25781 
L 446.605864 197.471246 
L 452.813521 202.97833 
L 459.021177 208.779061 
L 464.608068 214.250786 
L 464.608068 214.250786 
" style="fill:none;stroke:#377eb8;stroke-dasharray:12,12;stroke-dashoffset:0;stroke-linecap:round;stroke-linejoin:miter;stroke-width:2;"/>
   </g>
   <g id="line2d_3">
    <path clip-path="url(#p6c985ef8d0)" d="M 92.769433 256.645448 
L 94.010964 256.534793 
L 95.252496 256.202441 
L 96.494027 255.648392 
L 97.735558 254.872646 
L 98.97709 253.875204 
L 101.460152 251.656241 
L 102.701684 250.86887 
L 103.943215 250.326689 
L 105.184746 250.029696 
L 106.426278 249.977892 
L 110.771637 250.49487 
L 116.358529 251.380392 
L 121.94542 252.503767 
L 127.532311 253.864997 
L 133.119202 255.464081 
L 138.706093 257.297028 
L 145.534515 259.535727 
L 151.121406 261.212771 
L 152.983703 262.315667 
L 155.466766 264.184271 
L 156.708297 264.985732 
L 157.329063 265.206102 
L 157.949828 265.29997 
L 158.570594 265.265667 
L 159.19136 265.103949 
L 160.432891 264.412852 
L 161.674422 263.27388 
L 162.915954 261.762083 
L 167.261313 255.855409 
L 174.089736 246.705743 
L 180.918158 237.91139 
L 187.74658 229.47235 
L 194.575003 221.388623 
L 201.403425 213.66021 
L 208.231847 206.287109 
L 214.439504 199.89262 
L 220.647161 193.791778 
L 226.854817 187.984583 
L 233.062474 182.471035 
L 239.270131 177.251135 
L 245.477787 172.324882 
L 251.685444 167.692276 
L 257.893101 163.353317 
L 264.100757 159.308005 
L 269.687648 155.918293 
L 275.27454 152.766435 
L 280.861431 149.852431 
L 286.448322 147.176281 
L 292.035213 144.737986 
L 297.622104 142.537545 
L 303.208995 140.574958 
L 308.795886 138.850225 
L 314.382777 137.363347 
L 319.969668 136.114323 
L 325.556559 135.103153 
L 331.14345 134.329837 
L 336.730341 133.794375 
L 342.317232 133.496768 
L 347.904123 133.437015 
L 353.491014 133.615116 
L 359.077905 134.031071 
L 364.664796 134.68488 
L 370.251687 135.576544 
L 375.838578 136.706062 
L 381.425469 138.073434 
L 387.01236 139.678661 
L 392.599251 141.521741 
L 398.186142 143.602676 
L 403.773033 145.921465 
L 409.359924 148.478108 
L 414.946815 151.272606 
L 420.533706 154.304957 
L 426.120597 157.575163 
L 431.707488 161.083223 
L 437.915145 165.260032 
L 444.122801 169.730489 
L 450.330458 174.494593 
L 456.538115 179.552344 
L 462.745771 184.903742 
L 464.608068 186.566422 
L 464.608068 186.566422 
" style="fill:none;stroke:#4daf4a;stroke-dasharray:6,10,2,10;stroke-dashoffset:0;stroke-linecap:round;stroke-linejoin:miter;stroke-width:2;"/>
   </g>
   <g id="line2d_4">
    <path clip-path="url(#p6c985ef8d0)" d="M 92.769433 256.645448 
L 94.010964 256.534793 
L 95.252496 256.202441 
L 96.494027 255.648392 
L 97.735558 254.872646 
L 98.97709 253.875204 
L 101.460152 251.65624 
L 102.701684 250.86887 
L 103.943215 250.326688 
L 105.184746 250.029695 
L 106.426278 249.977891 
L 110.771637 250.494869 
L 116.358529 251.38039 
L 121.94542 252.503766 
L 127.532311 253.864995 
L 133.119202 255.464079 
L 139.326858 257.503313 
L 143.051452 258.664402 
L 145.534515 259.25613 
L 148.017578 259.623076 
L 149.879875 259.853587 
L 151.742172 260.414323 
L 153.604469 261.282967 
L 156.708297 262.982543 
L 157.329063 263.117646 
L 157.949828 263.138939 
L 158.570594 263.046237 
L 159.812125 262.526496 
L 161.053657 261.588201 
L 162.295188 260.277753 
L 166.640548 254.737254 
L 173.46897 246.201949 
L 180.297392 238.021958 
L 187.125815 230.197279 
L 193.954237 222.727913 
L 200.782659 215.613861 
L 206.990316 209.45487 
L 213.197973 203.589527 
L 219.405629 198.01783 
L 225.613286 192.739781 
L 231.820943 187.755379 
L 238.028599 183.064624 
L 244.236256 178.667516 
L 250.443913 174.564055 
L 256.030804 171.122009 
L 261.617695 167.917817 
L 267.204586 164.951479 
L 272.791477 162.222996 
L 278.378368 159.732367 
L 283.965259 157.479592 
L 289.55215 155.464671 
L 295.139041 153.687604 
L 300.725932 152.148392 
L 306.312823 150.847033 
L 311.899714 149.783529 
L 317.486605 148.95788 
L 323.073496 148.370084 
L 328.660387 148.020143 
L 334.247278 147.908055 
L 339.834169 148.033823 
L 345.42106 148.397444 
L 351.007951 148.998919 
L 356.594842 149.838249 
L 362.181733 150.915433 
L 367.768624 152.230471 
L 373.355515 153.783364 
L 378.942406 155.57411 
L 384.529297 157.602711 
L 390.116188 159.869166 
L 395.703079 162.373475 
L 401.28997 165.115639 
L 406.876861 168.095656 
L 412.463752 171.313528 
L 418.050643 174.769254 
L 423.637534 178.462835 
L 429.845191 182.845778 
L 436.052848 187.522368 
L 442.260504 192.492605 
L 448.468161 197.75649 
L 454.675818 203.314021 
L 460.883474 209.1652 
L 464.608068 212.816858 
L 464.608068 212.816858 
" style="fill:none;stroke:#984ea3;stroke-dasharray:2,6;stroke-dashoffset:0;stroke-linecap:round;stroke-linejoin:miter;stroke-width:2;"/>
   </g>
   <g id="patch_3">
    <path d="M 74.177501 272.05972 
L 74.177501 7.2 
" style="fill:none;stroke:#000000;stroke-linecap:square;stroke-linejoin:miter;stroke-width:0.8;"/>
   </g>
   <g id="patch_4">
    <path d="M 74.177501 272.05972 
L 483.2 272.05972 
" style="fill:none;stroke:#000000;stroke-linecap:square;stroke-linejoin:miter;stroke-width:0.8;"/>
   </g>
   <g id="matplotlib.axis_1">
    <g id="xtick_1">
     <g id="line2d_5">
      <path clip-path="url(#p6c985ef8d0)" d="M 92.769433 272.05972 
L 92.769433 7.2 
" style="fill:none;stroke:#bfbfbf;stroke-dasharray:0.8,2.4;stroke-dashoffset:0;stroke-linecap:round;stroke-linejoin:miter;stroke-width:0.8;"/>
     </g>
     <g id="line2d_6">
      <defs>
       <path d="M 0 0 
L 0 3.5 
" id="mfda669ca50" style="stroke:#000000;stroke-width:0.8;"/>
      </defs>
      <g>
       <use style="stroke:#000000;stroke-width:0.8;" x="92.769433" xlink:href="#mfda669ca50" y="272.05972"/>
      </g>
     </g>
     <g id="text_1">
      <!-- $\mathdefault{0}$ -->
      <g transform="translate(88.65729 292.365688)scale(0.18 -0.18)">
       <defs>
        <path d="M 2688 2025 
C 2688 2416 2682 3080 2413 3591 
C 2176 4039 1798 4198 1466 4198 
C 1158 4198 768 4058 525 3597 
C 269 3118 243 2524 243 2025 
C 243 1661 250 1106 448 619 
C 723 -39 1216 -128 1466 -128 
C 1760 -128 2208 -7 2470 600 
C 2662 1042 2688 1559 2688 2025 
z
M 1466 -26 
C 1056 -26 813 325 723 812 
C 653 1188 653 1738 653 2096 
C 653 2588 653 2997 736 3387 
C 858 3929 1216 4096 1466 4096 
C 1728 4096 2067 3923 2189 3400 
C 2272 3036 2278 2607 2278 2096 
C 2278 1680 2278 1169 2202 792 
C 2067 95 1690 -26 1466 -26 
z
" id="CMR17-30" transform="scale(0.015625)"/>
       </defs>
       <use transform="scale(0.996264)" xlink:href="#CMR17-30"/>
      </g>
     </g>
    </g>
    <g id="xtick_2">
     <g id="line2d_7">
      <path clip-path="url(#p6c985ef8d0)" d="M 154.846 272.05972 
L 154.846 7.2 
" style="fill:none;stroke:#bfbfbf;stroke-dasharray:0.8,2.4;stroke-dashoffset:0;stroke-linecap:round;stroke-linejoin:miter;stroke-width:0.8;"/>
     </g>
     <g id="line2d_8">
      <g>
       <use style="stroke:#000000;stroke-width:0.8;" x="154.846" xlink:href="#mfda669ca50" y="272.05972"/>
      </g>
     </g>
     <g id="text_2">
      <!-- $\mathdefault{100}$ -->
      <g transform="translate(142.509571 292.365688)scale(0.18 -0.18)">
       <defs>
        <path d="M 1702 4058 
C 1702 4192 1696 4192 1606 4192 
C 1357 3916 979 3827 621 3827 
C 602 3827 570 3827 563 3808 
C 557 3795 557 3782 557 3648 
C 755 3648 1088 3686 1344 3839 
L 1344 461 
C 1344 236 1331 160 781 160 
L 589 160 
L 589 0 
C 896 0 1216 0 1523 0 
C 1830 0 2150 0 2458 0 
L 2458 160 
L 2266 160 
C 1715 160 1702 230 1702 458 
L 1702 4058 
z
" id="CMR17-31" transform="scale(0.015625)"/>
       </defs>
       <use transform="scale(0.996264)" xlink:href="#CMR17-31"/>
       <use transform="translate(45.690477 0)scale(0.996264)" xlink:href="#CMR17-30"/>
       <use transform="translate(91.380954 0)scale(0.996264)" xlink:href="#CMR17-30"/>
      </g>
     </g>
    </g>
    <g id="xtick_3">
     <g id="line2d_9">
      <path clip-path="url(#p6c985ef8d0)" d="M 216.922567 272.05972 
L 216.922567 7.2 
" style="fill:none;stroke:#bfbfbf;stroke-dasharray:0.8,2.4;stroke-dashoffset:0;stroke-linecap:round;stroke-linejoin:miter;stroke-width:0.8;"/>
     </g>
     <g id="line2d_10">
      <g>
       <use style="stroke:#000000;stroke-width:0.8;" x="216.922567" xlink:href="#mfda669ca50" y="272.05972"/>
      </g>
     </g>
     <g id="text_3">
      <!-- $\mathdefault{200}$ -->
      <g transform="translate(204.586138 292.365688)scale(0.18 -0.18)">
       <defs>
        <path d="M 2669 989 
L 2554 989 
C 2490 536 2438 459 2413 420 
C 2381 369 1920 369 1830 369 
L 602 369 
C 832 619 1280 1072 1824 1597 
C 2214 1967 2669 2402 2669 3035 
C 2669 3790 2067 4224 1395 4224 
C 691 4224 262 3604 262 3030 
C 262 2780 448 2748 525 2748 
C 589 2748 781 2787 781 3010 
C 781 3207 614 3264 525 3264 
C 486 3264 448 3258 422 3245 
C 544 3790 915 4058 1306 4058 
C 1862 4058 2227 3617 2227 3035 
C 2227 2479 1901 2000 1536 1584 
L 262 146 
L 262 0 
L 2515 0 
L 2669 989 
z
" id="CMR17-32" transform="scale(0.015625)"/>
       </defs>
       <use transform="scale(0.996264)" xlink:href="#CMR17-32"/>
       <use transform="translate(45.690477 0)scale(0.996264)" xlink:href="#CMR17-30"/>
       <use transform="translate(91.380954 0)scale(0.996264)" xlink:href="#CMR17-30"/>
      </g>
     </g>
    </g>
    <g id="xtick_4">
     <g id="line2d_11">
      <path clip-path="url(#p6c985ef8d0)" d="M 278.999134 272.05972 
L 278.999134 7.2 
" style="fill:none;stroke:#bfbfbf;stroke-dasharray:0.8,2.4;stroke-dashoffset:0;stroke-linecap:round;stroke-linejoin:miter;stroke-width:0.8;"/>
     </g>
     <g id="line2d_12">
      <g>
       <use style="stroke:#000000;stroke-width:0.8;" x="278.999134" xlink:href="#mfda669ca50" y="272.05972"/>
      </g>
     </g>
     <g id="text_4">
      <!-- $\mathdefault{300}$ -->
      <g transform="translate(266.662705 292.365688)scale(0.18 -0.18)">
       <defs>
        <path d="M 1414 2157 
C 1984 2157 2234 1662 2234 1090 
C 2234 320 1824 25 1453 25 
C 1114 25 563 194 390 693 
C 422 680 454 680 486 680 
C 640 680 755 782 755 948 
C 755 1133 614 1216 486 1216 
C 378 1216 211 1165 211 926 
C 211 335 787 -128 1466 -128 
C 2176 -128 2720 430 2720 1085 
C 2720 1707 2208 2157 1600 2227 
C 2086 2328 2554 2756 2554 3329 
C 2554 3820 2048 4179 1472 4179 
C 890 4179 378 3829 378 3329 
C 378 3110 544 3072 627 3072 
C 762 3072 877 3155 877 3321 
C 877 3486 762 3569 627 3569 
C 602 3569 570 3569 544 3557 
C 730 3959 1235 4032 1459 4032 
C 1683 4032 2106 3925 2106 3320 
C 2106 3143 2080 2828 1862 2550 
C 1670 2304 1453 2304 1242 2284 
C 1210 2284 1062 2269 1037 2269 
C 992 2263 966 2257 966 2208 
C 966 2163 973 2157 1101 2157 
L 1414 2157 
z
" id="CMR17-33" transform="scale(0.015625)"/>
       </defs>
       <use transform="scale(0.996264)" xlink:href="#CMR17-33"/>
       <use transform="translate(45.690477 0)scale(0.996264)" xlink:href="#CMR17-30"/>
       <use transform="translate(91.380954 0)scale(0.996264)" xlink:href="#CMR17-30"/>
      </g>
     </g>
    </g>
    <g id="xtick_5">
     <g id="line2d_13">
      <path clip-path="url(#p6c985ef8d0)" d="M 341.0757 272.05972 
L 341.0757 7.2 
" style="fill:none;stroke:#bfbfbf;stroke-dasharray:0.8,2.4;stroke-dashoffset:0;stroke-linecap:round;stroke-linejoin:miter;stroke-width:0.8;"/>
     </g>
     <g id="line2d_14">
      <g>
       <use style="stroke:#000000;stroke-width:0.8;" x="341.0757" xlink:href="#mfda669ca50" y="272.05972"/>
      </g>
     </g>
     <g id="text_5">
      <!-- $\mathdefault{400}$ -->
      <g transform="translate(328.739271 292.365688)scale(0.18 -0.18)">
       <defs>
        <path d="M 2150 4122 
C 2150 4256 2144 4256 2029 4256 
L 128 1254 
L 128 1088 
L 1779 1088 
L 1779 457 
C 1779 224 1766 160 1318 160 
L 1197 160 
L 1197 0 
C 1402 0 1747 0 1965 0 
C 2182 0 2528 0 2733 0 
L 2733 160 
L 2611 160 
C 2163 160 2150 224 2150 457 
L 2150 1088 
L 2803 1088 
L 2803 1254 
L 2150 1254 
L 2150 4122 
z
M 1798 3703 
L 1798 1254 
L 256 1254 
L 1798 3703 
z
" id="CMR17-34" transform="scale(0.015625)"/>
       </defs>
       <use transform="scale(0.996264)" xlink:href="#CMR17-34"/>
       <use transform="translate(45.690477 0)scale(0.996264)" xlink:href="#CMR17-30"/>
       <use transform="translate(91.380954 0)scale(0.996264)" xlink:href="#CMR17-30"/>
      </g>
     </g>
    </g>
    <g id="xtick_6">
     <g id="line2d_15">
      <path clip-path="url(#p6c985ef8d0)" d="M 403.152267 272.05972 
L 403.152267 7.2 
" style="fill:none;stroke:#bfbfbf;stroke-dasharray:0.8,2.4;stroke-dashoffset:0;stroke-linecap:round;stroke-linejoin:miter;stroke-width:0.8;"/>
     </g>
     <g id="line2d_16">
      <g>
       <use style="stroke:#000000;stroke-width:0.8;" x="403.152267" xlink:href="#mfda669ca50" y="272.05972"/>
      </g>
     </g>
     <g id="text_6">
      <!-- $\mathdefault{500}$ -->
      <g transform="translate(390.815838 292.365688)scale(0.18 -0.18)">
       <defs>
        <path d="M 730 3692 
C 794 3666 1056 3584 1325 3584 
C 1920 3584 2246 3911 2432 4100 
C 2432 4157 2432 4192 2394 4192 
C 2387 4192 2374 4192 2323 4163 
C 2099 4058 1837 3973 1517 3973 
C 1325 3973 1037 3999 723 4139 
C 653 4171 640 4171 634 4171 
C 602 4171 595 4164 595 4037 
L 595 2203 
C 595 2089 595 2057 659 2057 
C 691 2057 704 2070 736 2114 
C 941 2401 1222 2522 1542 2522 
C 1766 2522 2246 2382 2246 1289 
C 2246 1085 2246 715 2054 421 
C 1894 159 1645 25 1370 25 
C 947 25 518 320 403 814 
C 429 807 480 795 506 795 
C 589 795 749 840 749 1038 
C 749 1210 627 1280 506 1280 
C 358 1280 262 1190 262 1011 
C 262 454 704 -128 1382 -128 
C 2042 -128 2669 440 2669 1264 
C 2669 2030 2170 2624 1549 2624 
C 1222 2624 947 2503 730 2274 
L 730 3692 
z
" id="CMR17-35" transform="scale(0.015625)"/>
       </defs>
       <use transform="scale(0.996264)" xlink:href="#CMR17-35"/>
       <use transform="translate(45.690477 0)scale(0.996264)" xlink:href="#CMR17-30"/>
       <use transform="translate(91.380954 0)scale(0.996264)" xlink:href="#CMR17-30"/>
      </g>
     </g>
    </g>
    <g id="xtick_7">
     <g id="line2d_17">
      <path clip-path="url(#p6c985ef8d0)" d="M 465.228834 272.05972 
L 465.228834 7.2 
" style="fill:none;stroke:#bfbfbf;stroke-dasharray:0.8,2.4;stroke-dashoffset:0;stroke-linecap:round;stroke-linejoin:miter;stroke-width:0.8;"/>
     </g>
     <g id="line2d_18">
      <g>
       <use style="stroke:#000000;stroke-width:0.8;" x="465.228834" xlink:href="#mfda669ca50" y="272.05972"/>
      </g>
     </g>
     <g id="text_7">
      <!-- $\mathdefault{600}$ -->
      <g transform="translate(452.892405 292.365688)scale(0.18 -0.18)">
       <defs>
        <path d="M 678 2176 
C 678 3690 1395 4032 1811 4032 
C 1946 4032 2272 4009 2400 3776 
C 2298 3776 2106 3776 2106 3553 
C 2106 3381 2246 3323 2336 3323 
C 2394 3323 2566 3348 2566 3560 
C 2566 3954 2246 4179 1805 4179 
C 1043 4179 243 3390 243 1984 
C 243 253 966 -128 1478 -128 
C 2099 -128 2688 427 2688 1283 
C 2688 2081 2170 2662 1517 2662 
C 1126 2662 838 2407 678 1960 
L 678 2176 
z
M 1478 25 
C 691 25 691 1200 691 1436 
C 691 1896 909 2560 1504 2560 
C 1613 2560 1926 2560 2138 2120 
C 2253 1870 2253 1609 2253 1289 
C 2253 944 2253 690 2118 434 
C 1978 171 1773 25 1478 25 
z
" id="CMR17-36" transform="scale(0.015625)"/>
       </defs>
       <use transform="scale(0.996264)" xlink:href="#CMR17-36"/>
       <use transform="translate(45.690477 0)scale(0.996264)" xlink:href="#CMR17-30"/>
       <use transform="translate(91.380954 0)scale(0.996264)" xlink:href="#CMR17-30"/>
      </g>
     </g>
    </g>
    <g id="text_8">
     <!-- Time (ms) -->
     <g transform="translate(227.544284 317.0357)scale(0.22 -0.22)">
      <defs>
       <path d="M 4051 4608 
L 218 4608 
L 122 2833 
L 397 2833 
C 442 3152 499 3395 570 3599 
C 736 4065 1043 4308 1478 4308 
C 1690 4308 1779 4237 1779 4078 
L 1779 786 
L 1779 600 
C 1779 332 1722 300 1203 300 
L 1037 300 
L 1037 0 
L 3232 0 
L 3232 300 
L 3066 300 
C 2554 300 2496 332 2496 600 
L 2496 786 
L 2496 4078 
C 2496 4237 2586 4308 2797 4308 
C 3187 4308 3501 4090 3661 3707 
C 3757 3472 3821 3197 3872 2833 
L 4147 2833 
L 4051 4608 
z
" id="CenturySchL-Roma-54" transform="scale(0.015625)"/>
       <path d="M 1318 2944 
L 115 2944 
L 115 2638 
L 442 2638 
C 678 2638 717 2593 717 2317 
L 717 787 
L 717 531 
C 717 275 646 230 237 230 
L 192 230 
L 192 0 
L 1850 0 
L 1850 230 
L 1805 230 
C 1389 230 1318 274 1318 526 
L 1318 779 
L 1318 2944 
z
M 1018 4581 
C 813 4581 646 4415 646 4211 
C 646 4013 813 3840 1011 3840 
C 1222 3840 1389 4006 1389 4211 
C 1389 4415 1222 4581 1018 4581 
z
" id="CenturySchL-Roma-69" transform="scale(0.015625)"/>
       <path d="M 1286 2944 
L 147 2944 
L 147 2638 
L 410 2638 
C 646 2638 685 2593 685 2317 
L 685 787 
L 685 538 
C 685 275 614 230 205 230 
L 179 230 
L 179 0 
L 1792 0 
L 1792 230 
L 1766 230 
C 1357 230 1286 275 1286 537 
L 1286 786 
L 1286 1693 
C 1286 2261 1600 2683 2016 2683 
C 2182 2683 2362 2593 2438 2472 
C 2528 2351 2566 2165 2566 1903 
L 2566 786 
L 2566 530 
C 2566 275 2496 230 2080 230 
L 2054 230 
L 2054 0 
L 3674 0 
L 3674 230 
L 3648 230 
C 3238 230 3168 275 3168 530 
L 3168 786 
L 3168 1635 
C 3168 2274 3456 2683 3904 2683 
C 4115 2683 4288 2561 4371 2363 
C 4429 2223 4448 2082 4448 1833 
L 4448 786 
L 4448 530 
C 4448 275 4378 230 3962 230 
L 3936 230 
L 3936 0 
L 5555 0 
L 5555 230 
L 5530 230 
C 5120 230 5050 275 5050 537 
L 5050 786 
L 5050 1961 
C 5050 2357 5011 2491 4845 2708 
C 4659 2945 4397 3072 4090 3072 
C 3674 3072 3366 2876 3091 2439 
C 2982 2819 2637 3072 2208 3072 
C 1824 3072 1536 2889 1286 2491 
L 1286 2944 
z
" id="CenturySchL-Roma-6d" transform="scale(0.015625)"/>
       <path d="M 2976 1472 
C 2982 2420 2438 3090 1658 3090 
C 838 3090 224 2384 224 1430 
C 224 540 806 -64 1670 -64 
C 2278 -64 2714 236 2976 844 
L 2752 966 
C 2490 473 2221 281 1792 281 
C 1466 281 1229 422 1062 704 
C 947 896 896 1120 902 1472 
L 2976 1472 
z
M 909 1747 
C 909 1942 934 2080 998 2256 
C 1133 2633 1338 2816 1645 2816 
C 2035 2816 2291 2482 2291 1979 
C 2291 1797 2234 1747 2029 1747 
L 909 1747 
z
" id="CenturySchL-Roma-65" transform="scale(0.015625)"/>
       <path d="M 1786 4701 
C 1402 4465 1197 4299 979 4043 
C 493 3468 230 2734 230 1961 
C 230 1233 461 549 890 -19 
C 1133 -326 1350 -517 1786 -786 
L 1786 -549 
C 1146 13 890 735 890 1961 
C 890 3187 1146 3903 1786 4465 
L 1786 4701 
z
" id="CenturySchL-Roma-28" transform="scale(0.015625)"/>
       <path d="M 2496 3072 
L 2272 3072 
L 2086 2842 
C 1856 3021 1626 3097 1306 3097 
C 742 3097 371 2728 371 2173 
C 371 1925 454 1714 595 1588 
C 742 1453 890 1390 1274 1300 
L 1613 1224 
C 2118 1103 2298 975 2298 721 
C 2298 421 2035 211 1658 211 
C 1120 211 736 561 582 1208 
L 326 1208 
L 326 0 
L 550 0 
L 774 250 
C 1037 38 1331 -64 1651 -64 
C 2278 -64 2694 325 2694 918 
C 2694 1198 2605 1414 2426 1561 
C 2272 1695 2144 1746 1754 1828 
L 1434 1899 
C 1082 1975 1082 1975 966 2039 
C 826 2103 742 2236 742 2377 
C 742 2631 986 2816 1338 2816 
C 1581 2816 1779 2733 1958 2561 
C 2099 2420 2170 2293 2272 1999 
L 2496 1999 
L 2496 3072 
z
" id="CenturySchL-Roma-73" transform="scale(0.015625)"/>
       <path d="M 346 -786 
C 730 -549 934 -383 1152 -121 
C 1638 447 1901 1188 1901 1961 
C 1901 2689 1670 3373 1242 3935 
C 998 4248 781 4439 346 4701 
L 346 4465 
C 986 3903 1242 3187 1242 1961 
C 1242 728 986 13 346 -549 
L 346 -786 
z
" id="CenturySchL-Roma-29" transform="scale(0.015625)"/>
      </defs>
      <use transform="scale(0.996264)" xlink:href="#CenturySchL-Roma-54"/>
      <use transform="translate(66.450031 0)scale(0.996264)" xlink:href="#CenturySchL-Roma-69"/>
      <use transform="translate(97.831344 0)scale(0.996264)" xlink:href="#CenturySchL-Roma-6d"/>
      <use transform="translate(186.398251 0)scale(0.996264)" xlink:href="#CenturySchL-Roma-65"/>
      <use transform="translate(263.906621 0)scale(0.996264)" xlink:href="#CenturySchL-Roma-28"/>
      <use transform="translate(297.081851 0)scale(0.996264)" xlink:href="#CenturySchL-Roma-6d"/>
      <use transform="translate(385.648757 0)scale(0.996264)" xlink:href="#CenturySchL-Roma-73"/>
      <use transform="translate(431.774568 0)scale(0.996264)" xlink:href="#CenturySchL-Roma-29"/>
     </g>
    </g>
   </g>
   <g id="matplotlib.axis_2">
    <g id="ytick_1">
     <g id="line2d_19">
      <path clip-path="url(#p6c985ef8d0)" d="M 74.177501 256.645448 
L 483.2 256.645448 
" style="fill:none;stroke:#bfbfbf;stroke-dasharray:0.8,2.4;stroke-dashoffset:0;stroke-linecap:round;stroke-linejoin:miter;stroke-width:0.8;"/>
     </g>
     <g id="line2d_20">
      <defs>
       <path d="M 0 0 
L -3.5 0 
" id="m8db44bd76a" style="stroke:#000000;stroke-width:0.8;"/>
      </defs>
      <g>
       <use style="stroke:#000000;stroke-width:0.8;" x="74.177501" xlink:href="#m8db44bd76a" y="256.645448"/>
      </g>
     </g>
     <g id="text_9">
      <!-- $\mathdefault{0.00}$ -->
      <g transform="translate(37.627152 263.298432)scale(0.18 -0.18)">
       <defs>
        <path d="M 1178 307 
C 1178 492 1024 619 870 619 
C 685 619 557 466 557 313 
C 557 128 710 0 864 0 
C 1050 0 1178 153 1178 307 
z
" id="CMMI12-3a" transform="scale(0.015625)"/>
       </defs>
       <use transform="scale(0.996264)" xlink:href="#CMR17-30"/>
       <use transform="translate(45.690477 0)scale(0.996264)" xlink:href="#CMMI12-3a"/>
       <use transform="translate(72.787654 0)scale(0.996264)" xlink:href="#CMR17-30"/>
       <use transform="translate(118.478131 0)scale(0.996264)" xlink:href="#CMR17-30"/>
      </g>
     </g>
    </g>
    <g id="ytick_2">
     <g id="line2d_21">
      <path clip-path="url(#p6c985ef8d0)" d="M 74.177501 202.418177 
L 483.2 202.418177 
" style="fill:none;stroke:#bfbfbf;stroke-dasharray:0.8,2.4;stroke-dashoffset:0;stroke-linecap:round;stroke-linejoin:miter;stroke-width:0.8;"/>
     </g>
     <g id="line2d_22">
      <g>
       <use style="stroke:#000000;stroke-width:0.8;" x="74.177501" xlink:href="#m8db44bd76a" y="202.418177"/>
      </g>
     </g>
     <g id="text_10">
      <!-- $\mathdefault{0.05}$ -->
      <g transform="translate(37.627152 209.071161)scale(0.18 -0.18)">
       <use transform="scale(0.996264)" xlink:href="#CMR17-30"/>
       <use transform="translate(45.690477 0)scale(0.996264)" xlink:href="#CMMI12-3a"/>
       <use transform="translate(72.787654 0)scale(0.996264)" xlink:href="#CMR17-30"/>
       <use transform="translate(118.478131 0)scale(0.996264)" xlink:href="#CMR17-35"/>
      </g>
     </g>
    </g>
    <g id="ytick_3">
     <g id="line2d_23">
      <path clip-path="url(#p6c985ef8d0)" d="M 74.177501 148.190905 
L 483.2 148.190905 
" style="fill:none;stroke:#bfbfbf;stroke-dasharray:0.8,2.4;stroke-dashoffset:0;stroke-linecap:round;stroke-linejoin:miter;stroke-width:0.8;"/>
     </g>
     <g id="line2d_24">
      <g>
       <use style="stroke:#000000;stroke-width:0.8;" x="74.177501" xlink:href="#m8db44bd76a" y="148.190905"/>
      </g>
     </g>
     <g id="text_11">
      <!-- $\mathdefault{0.10}$ -->
      <g transform="translate(37.627152 154.843889)scale(0.18 -0.18)">
       <use transform="scale(0.996264)" xlink:href="#CMR17-30"/>
       <use transform="translate(45.690477 0)scale(0.996264)" xlink:href="#CMMI12-3a"/>
       <use transform="translate(72.787654 0)scale(0.996264)" xlink:href="#CMR17-31"/>
       <use transform="translate(118.478131 0)scale(0.996264)" xlink:href="#CMR17-30"/>
      </g>
     </g>
    </g>
    <g id="ytick_4">
     <g id="line2d_25">
      <path clip-path="url(#p6c985ef8d0)" d="M 74.177501 93.963634 
L 483.2 93.963634 
" style="fill:none;stroke:#bfbfbf;stroke-dasharray:0.8,2.4;stroke-dashoffset:0;stroke-linecap:round;stroke-linejoin:miter;stroke-width:0.8;"/>
     </g>
     <g id="line2d_26">
      <g>
       <use style="stroke:#000000;stroke-width:0.8;" x="74.177501" xlink:href="#m8db44bd76a" y="93.963634"/>
      </g>
     </g>
     <g id="text_12">
      <!-- $\mathdefault{0.15}$ -->
      <g transform="translate(37.627152 100.616618)scale(0.18 -0.18)">
       <use transform="scale(0.996264)" xlink:href="#CMR17-30"/>
       <use transform="translate(45.690477 0)scale(0.996264)" xlink:href="#CMMI12-3a"/>
       <use transform="translate(72.787654 0)scale(0.996264)" xlink:href="#CMR17-31"/>
       <use transform="translate(118.478131 0)scale(0.996264)" xlink:href="#CMR17-35"/>
      </g>
     </g>
    </g>
    <g id="ytick_5">
     <g id="line2d_27">
      <path clip-path="url(#p6c985ef8d0)" d="M 74.177501 39.736363 
L 483.2 39.736363 
" style="fill:none;stroke:#bfbfbf;stroke-dasharray:0.8,2.4;stroke-dashoffset:0;stroke-linecap:round;stroke-linejoin:miter;stroke-width:0.8;"/>
     </g>
     <g id="line2d_28">
      <g>
       <use style="stroke:#000000;stroke-width:0.8;" x="74.177501" xlink:href="#m8db44bd76a" y="39.736363"/>
      </g>
     </g>
     <g id="text_13">
      <!-- $\mathdefault{0.20}$ -->
      <g transform="translate(37.627152 46.389347)scale(0.18 -0.18)">
       <use transform="scale(0.996264)" xlink:href="#CMR17-30"/>
       <use transform="translate(45.690477 0)scale(0.996264)" xlink:href="#CMMI12-3a"/>
       <use transform="translate(72.787654 0)scale(0.996264)" xlink:href="#CMR17-32"/>
       <use transform="translate(118.478131 0)scale(0.996264)" xlink:href="#CMR17-30"/>
      </g>
     </g>
    </g>
    <g id="text_14">
     <!-- Rod Height (m) -->
     <g transform="translate(23.462852 217.349664)rotate(-90)scale(0.22 -0.22)">
      <defs>
       <path d="M 1574 2240 
L 1946 2240 
C 2195 2240 2451 2163 2592 2047 
C 2778 1900 2874 1669 2918 1246 
L 2950 918 
C 3027 193 3264 -102 3770 -102 
C 4294 -102 4544 251 4563 1019 
L 4294 1019 
C 4269 576 4192 384 4019 384 
C 3872 384 3808 493 3699 936 
L 3597 1340 
C 3456 1931 3206 2200 2707 2329 
C 3629 2457 4070 2825 4070 3468 
C 4070 4194 3456 4608 2381 4608 
L 166 4608 
L 166 4308 
L 282 4308 
C 800 4308 858 4276 858 4007 
L 858 3823 
L 858 779 
L 858 600 
C 858 332 800 300 282 300 
L 166 300 
L 166 0 
L 2266 0 
L 2266 300 
L 2150 300 
C 1632 300 1574 332 1574 601 
L 1574 780 
L 1574 2240 
z
M 1574 2540 
L 1574 3944 
C 1574 4200 1581 4219 1645 4270 
C 1696 4308 1741 4308 2016 4308 
L 2362 4308 
C 2995 4308 3283 4040 3283 3462 
C 3283 3137 3200 2889 3034 2756 
C 2874 2623 2586 2540 2278 2540 
L 1574 2540 
z
" id="CenturySchL-Roma-52" transform="scale(0.015625)"/>
       <path d="M 1613 3090 
C 832 3090 218 2397 218 1507 
C 218 636 832 -64 1600 -64 
C 2368 -64 2982 636 2982 1513 
C 2982 2384 2368 3090 1613 3090 
z
M 1613 2816 
C 2061 2816 2310 2352 2310 1513 
C 2310 669 2061 211 1600 211 
C 1139 211 890 669 890 1507 
C 890 2371 1133 2816 1613 2816 
z
" id="CenturySchL-Roma-6f" transform="scale(0.015625)"/>
       <path d="M 2432 0 
L 3546 0 
L 3546 301 
L 3430 301 
C 3085 301 3034 365 3034 766 
L 3034 4722 
L 1779 4722 
L 1779 4416 
L 2157 4416 
C 2387 4416 2432 4370 2432 4091 
L 2432 2624 
C 2195 2950 1920 3097 1549 3097 
C 826 3097 275 2403 275 1485 
C 275 580 806 -64 1549 -64 
C 1952 -64 2227 107 2432 486 
L 2432 0 
z
M 1677 2752 
C 1939 2752 2189 2562 2304 2268 
C 2381 2077 2426 1810 2426 1505 
C 2426 766 2131 281 1670 281 
C 1222 281 947 702 947 1409 
C 947 1785 986 2071 1069 2287 
C 1178 2568 1414 2752 1677 2752 
z
" id="CenturySchL-Roma-64" transform="scale(0.015625)"/>
       <path d="M 3738 2215 
L 3738 786 
L 3738 600 
C 3738 332 3680 300 3162 300 
L 3046 300 
L 3046 0 
L 5146 0 
L 5146 300 
L 5030 300 
C 4512 300 4454 332 4454 600 
L 4454 786 
L 4454 3823 
L 4454 4007 
C 4454 4276 4512 4308 5030 4308 
L 5146 4308 
L 5146 4608 
L 3072 4608 
L 3072 4308 
L 3162 4308 
C 3680 4308 3738 4276 3738 4008 
L 3738 3823 
L 3738 2560 
L 1594 2560 
L 1594 3823 
L 1594 4008 
C 1594 4276 1651 4308 2170 4308 
L 2291 4308 
L 2291 4608 
L 186 4608 
L 186 4308 
L 301 4308 
C 819 4308 877 4276 877 4007 
L 877 3823 
L 877 786 
L 877 600 
C 877 332 819 300 301 300 
L 186 300 
L 186 0 
L 2291 0 
L 2291 300 
L 2170 300 
C 1651 300 1594 332 1594 600 
L 1594 786 
L 1594 2215 
L 3738 2215 
z
" id="CenturySchL-Roma-48" transform="scale(0.015625)"/>
       <path d="M 1254 486 
C 902 486 883 493 806 542 
C 762 570 730 647 730 723 
C 730 933 902 1024 1331 1024 
C 1939 1024 2035 1037 2246 1132 
C 2630 1303 2848 1631 2848 2047 
C 2848 2299 2790 2457 2611 2665 
C 2720 2778 2778 2816 2829 2816 
C 2861 2816 2880 2796 2893 2728 
C 2918 2577 3021 2496 3181 2496 
C 3341 2496 3469 2630 3469 2802 
C 3469 3020 3296 3173 3046 3173 
C 2842 3173 2726 3108 2432 2835 
C 2163 3014 1958 3077 1638 3077 
C 877 3077 378 2664 378 2036 
C 378 1666 582 1346 915 1196 
C 486 1098 307 902 307 542 
C 307 255 435 85 736 -19 
C 339 -159 147 -363 147 -624 
C 147 -1044 640 -1280 1498 -1280 
C 2566 -1280 3104 -942 3104 -272 
C 3104 46 2957 300 2720 396 
C 2554 460 2349 486 1907 486 
L 1254 486 
z
M 1632 2816 
C 2035 2816 2259 2539 2259 2054 
C 2259 1563 2016 1266 1606 1266 
C 1210 1266 960 1563 960 2035 
C 960 2532 1203 2816 1632 2816 
z
M 1574 -64 
C 2106 -64 2144 -64 2240 -76 
C 2496 -102 2656 -242 2656 -445 
C 2656 -808 2240 -1018 1523 -1018 
C 986 -1018 678 -859 678 -573 
C 678 -363 794 -222 1101 -64 
L 1574 -64 
z
" id="CenturySchL-Roma-67" transform="scale(0.015625)"/>
       <path d="M 1280 4672 
L 96 4672 
L 96 4366 
L 403 4366 
C 640 4366 678 4321 678 4046 
L 678 786 
L 678 530 
C 678 275 608 230 198 230 
L 173 230 
L 173 0 
L 1792 0 
L 1792 230 
L 1766 230 
C 1350 230 1280 275 1280 530 
L 1280 786 
L 1280 1444 
C 1280 1763 1325 2050 1395 2197 
C 1530 2485 1818 2683 2093 2683 
C 2259 2683 2451 2587 2547 2459 
C 2643 2319 2688 2127 2688 1814 
L 2688 786 
L 2688 530 
C 2688 275 2618 230 2202 230 
L 2176 230 
L 2176 0 
L 3795 0 
L 3795 230 
L 3770 230 
C 3360 230 3290 275 3290 530 
L 3290 786 
L 3290 1789 
C 3290 2248 3270 2363 3155 2581 
C 2995 2887 2675 3072 2291 3072 
C 1882 3072 1568 2881 1280 2453 
L 1280 4672 
z
" id="CenturySchL-Roma-68" transform="scale(0.015625)"/>
       <path d="M 1242 3008 
L 1242 4288 
L 979 4288 
C 915 3448 634 3020 115 2982 
L 115 2733 
L 640 2733 
L 640 1105 
C 640 658 653 498 717 351 
C 819 83 1075 -64 1446 -64 
C 1696 -64 1914 13 2061 153 
C 2272 358 2394 696 2394 1048 
C 2394 1086 2394 1131 2387 1195 
L 2118 1195 
C 2099 620 1933 326 1619 326 
C 1472 326 1344 402 1299 511 
C 1261 600 1242 760 1242 990 
L 1242 2733 
L 2182 2733 
L 2182 3008 
L 1242 3008 
z
" id="CenturySchL-Roma-74" transform="scale(0.015625)"/>
      </defs>
      <use transform="scale(0.996264)" xlink:href="#CenturySchL-Roma-52"/>
      <use transform="translate(71.929985 0)scale(0.996264)" xlink:href="#CenturySchL-Roma-6f"/>
      <use transform="translate(121.743185 0)scale(0.996264)" xlink:href="#CenturySchL-Roma-64"/>
      <use transform="translate(206.623842 0)scale(0.996264)" xlink:href="#CenturySchL-Roma-48"/>
      <use transform="translate(289.612272 0)scale(0.996264)" xlink:href="#CenturySchL-Roma-65"/>
      <use transform="translate(339.425473 0)scale(0.996264)" xlink:href="#CenturySchL-Roma-69"/>
      <use transform="translate(370.806786 0)scale(0.996264)" xlink:href="#CenturySchL-Roma-67"/>
      <use transform="translate(424.30613 0)scale(0.996264)" xlink:href="#CenturySchL-Roma-68"/>
      <use transform="translate(485.177761 0)scale(0.996264)" xlink:href="#CenturySchL-Roma-74"/>
      <use transform="translate(551.626636 0)scale(0.996264)" xlink:href="#CenturySchL-Roma-28"/>
      <use transform="translate(584.801866 0)scale(0.996264)" xlink:href="#CenturySchL-Roma-6d"/>
      <use transform="translate(673.368773 0)scale(0.996264)" xlink:href="#CenturySchL-Roma-29"/>
     </g>
    </g>
   </g>
   <g id="legend_1">
    <g id="patch_5">
     <path d="M 193.51473 117.252514 
L 477.8 117.252514 
Q 481.4 117.252514 481.4 113.652514 
L 481.4 12.6 
Q 481.4 9 477.8 9 
L 193.51473 9 
Q 189.91473 9 189.91473 12.6 
L 189.91473 113.652514 
Q 189.91473 117.252514 193.51473 117.252514 
z
" style="fill:#ffffff;stroke:#cccccc;stroke-linejoin:miter;"/>
    </g>
    <g id="line2d_29">
     <path d="M 197.11473 23.205968 
L 233.11473 23.205968 
" style="fill:none;stroke:#e41a1c;stroke-linecap:square;stroke-width:2;"/>
    </g>
    <g id="line2d_30"/>
    <g id="text_15">
     <!-- Broad Space: Max Height -->
     <g transform="translate(247.51473 29.505968)scale(0.18 -0.18)">
      <defs>
       <path d="M 192 4608 
L 192 4308 
L 307 4308 
C 826 4308 883 4276 883 4007 
L 883 3823 
L 883 786 
L 883 600 
C 883 332 826 300 307 300 
L 192 300 
L 192 0 
L 2515 0 
C 3622 0 4288 474 4288 1254 
C 4288 1887 3878 2259 3008 2412 
C 3315 2476 3456 2533 3616 2654 
C 3885 2851 4045 3163 4045 3488 
C 4045 3895 3789 4296 3418 4455 
C 3187 4557 2867 4608 2490 4608 
L 192 4608 
z
M 1600 2540 
L 1600 3989 
C 1600 4237 1690 4308 2022 4308 
L 2278 4308 
C 2573 4308 2816 4263 2950 4174 
C 3181 4034 3302 3760 3302 3405 
C 3302 2782 2989 2540 2170 2540 
L 1600 2540 
z
M 1600 2240 
L 2163 2240 
C 2573 2240 2848 2201 3040 2118 
C 3341 1977 3501 1696 3501 1273 
C 3501 870 3360 569 3110 447 
C 2912 345 2643 300 2240 300 
L 1971 300 
C 1645 300 1600 351 1600 704 
L 1600 2240 
z
" id="CenturySchL-Roma-42" transform="scale(0.015625)"/>
       <path d="M 1267 2944 
L 134 2944 
L 134 2638 
L 397 2638 
C 634 2638 672 2593 672 2317 
L 672 787 
L 672 531 
C 672 275 602 230 186 230 
L 160 230 
L 160 0 
L 1869 0 
L 1869 230 
L 1747 230 
C 1338 230 1267 275 1267 531 
L 1267 787 
L 1267 851 
C 1267 1332 1357 1818 1517 2183 
C 1670 2541 1888 2740 2157 2772 
C 2067 2669 2042 2604 2042 2481 
C 2042 2275 2189 2127 2394 2127 
C 2624 2127 2784 2300 2784 2561 
C 2784 2868 2566 3072 2227 3072 
C 1824 3072 1472 2747 1267 2185 
L 1267 2944 
z
" id="CenturySchL-Roma-72" transform="scale(0.015625)"/>
       <path d="M 2893 2085 
C 2893 2483 2822 2686 2637 2838 
C 2426 3002 2112 3090 1702 3090 
C 986 3090 454 2755 454 2299 
C 454 2058 602 1906 826 1906 
C 1024 1906 1171 2039 1171 2228 
C 1171 2311 1139 2399 1075 2488 
C 1037 2531 1030 2550 1030 2570 
C 1030 2702 1293 2816 1600 2816 
C 1798 2816 2022 2753 2125 2658 
C 2246 2557 2291 2405 2291 2120 
L 2291 1874 
C 1619 1759 1414 1708 1101 1588 
C 550 1383 282 1084 282 682 
C 282 229 646 -64 1210 -64 
C 1651 -64 2048 119 2323 452 
C 2426 127 2586 0 2886 0 
C 3174 0 3475 185 3475 370 
C 3475 414 3443 446 3411 446 
C 3386 446 3360 440 3315 421 
C 3213 384 3187 377 3136 377 
C 2957 377 2893 498 2893 814 
L 2893 2085 
z
M 2291 1310 
C 2291 926 2272 837 2163 671 
C 2003 434 1709 275 1434 275 
C 1146 275 928 486 928 773 
C 928 1041 1062 1233 1344 1367 
C 1542 1456 1792 1520 2291 1603 
L 2291 1310 
z
" id="CenturySchL-Roma-61" transform="scale(0.015625)"/>
       <path d="M 3494 4608 
L 3258 4608 
L 3002 4230 
C 2701 4518 2291 4672 1837 4672 
C 998 4672 435 4135 435 3338 
C 435 2642 781 2297 1722 2055 
L 2330 1901 
C 2803 1781 2848 1768 2982 1666 
C 3174 1519 3277 1308 3277 1059 
C 3277 804 3181 594 2989 422 
C 2778 236 2566 166 2214 166 
C 1741 166 1402 312 1101 642 
C 832 941 698 1240 602 1728 
L 326 1728 
L 352 -92 
L 602 -92 
L 890 350 
C 1318 0 1677 -128 2234 -128 
C 3174 -128 3776 422 3776 1276 
C 3776 1671 3642 2010 3392 2253 
C 3219 2419 2970 2527 2458 2655 
L 1773 2827 
C 1203 2974 934 3223 934 3612 
C 934 4058 1299 4365 1843 4365 
C 2291 4365 2656 4172 2912 3807 
C 3098 3544 3213 3274 3296 2947 
L 3571 2947 
L 3494 4608 
z
" id="CenturySchL-Roma-53" transform="scale(0.015625)"/>
       <path d="M 1286 2944 
L 179 2944 
L 179 2638 
L 410 2638 
C 646 2638 685 2593 685 2318 
L 685 -496 
L 685 -750 
C 685 -1006 614 -1050 205 -1050 
L 179 -1050 
L 179 -1280 
L 1843 -1280 
L 1843 -1050 
L 1773 -1050 
C 1357 -1050 1286 -1006 1286 -751 
L 1286 -496 
L 1286 428 
C 1498 58 1741 -89 2131 -89 
C 2874 -89 3424 593 3424 1504 
C 3424 2385 2874 3072 2170 3072 
C 1773 3072 1510 2908 1286 2529 
L 1286 2944 
z
M 2054 2727 
C 2496 2727 2752 2288 2752 1542 
C 2752 721 2490 256 2035 256 
C 1581 256 1280 728 1280 1460 
C 1280 2249 1568 2727 2054 2727 
z
" id="CenturySchL-Roma-70" transform="scale(0.015625)"/>
       <path d="M 2477 968 
C 2272 510 2054 326 1722 326 
C 1210 326 890 789 890 1532 
C 890 2301 1203 2816 1677 2816 
C 1869 2816 2035 2726 2035 2625 
C 2035 2606 2022 2587 1997 2548 
C 1894 2428 1869 2364 1869 2257 
C 1869 2047 2029 1901 2253 1901 
C 2477 1901 2643 2079 2643 2333 
C 2643 2759 2214 3090 1645 3090 
C 813 3090 218 2410 218 1462 
C 218 559 762 -64 1555 -64 
C 2125 -64 2451 197 2726 872 
L 2477 968 
z
" id="CenturySchL-Roma-63" transform="scale(0.015625)"/>
       <path d="M 954 734 
C 730 734 550 555 550 338 
C 550 114 730 -64 947 -64 
C 1171 -64 1350 114 1350 338 
C 1350 555 1171 734 954 734 
z
M 954 3038 
C 730 3038 550 2859 550 2642 
C 550 2419 730 2240 947 2240 
C 1171 2240 1350 2419 1350 2642 
C 1350 2859 1171 3038 954 3038 
z
" id="CenturySchL-Roma-3a" transform="scale(0.015625)"/>
       <path d="M 1837 4608 
L 186 4608 
L 186 4308 
L 307 4308 
C 826 4308 883 4276 883 4006 
L 883 3821 
L 883 1369 
C 883 498 755 313 141 313 
L 141 0 
L 1965 0 
L 1965 313 
C 1357 313 1229 498 1229 1370 
L 1229 4200 
L 2752 0 
L 3008 0 
L 4435 4200 
L 4435 797 
L 4435 612 
C 4435 339 4378 313 3859 313 
L 3744 313 
L 3744 0 
L 5843 0 
L 5843 313 
L 5728 313 
C 5210 313 5152 339 5152 612 
L 5152 797 
L 5152 3824 
L 5152 4008 
C 5152 4276 5210 4308 5728 4308 
L 5843 4308 
L 5843 4608 
L 4237 4608 
L 3066 1206 
L 1837 4608 
z
" id="CenturySchL-Roma-4d" transform="scale(0.015625)"/>
       <path d="M 1978 1632 
L 2707 2482 
C 2861 2662 3021 2752 3187 2752 
L 3245 2752 
L 3245 2982 
L 1920 2982 
L 1920 2752 
L 2042 2752 
C 2234 2752 2330 2701 2330 2611 
C 2330 2547 2285 2451 2202 2349 
L 1798 1869 
L 1306 2496 
C 1267 2541 1242 2598 1242 2637 
C 1242 2720 1325 2752 1523 2752 
L 1613 2752 
L 1613 2982 
L 96 2982 
L 96 2752 
C 333 2732 416 2675 627 2406 
L 1408 1421 
L 672 563 
C 493 351 282 230 96 230 
L 58 230 
L 58 0 
L 1408 0 
L 1408 230 
L 1312 230 
C 1165 230 1133 236 1088 256 
C 1037 281 998 346 998 403 
C 998 448 1018 506 1050 538 
L 1587 1184 
L 2074 538 
C 2118 474 2157 390 2157 345 
C 2157 262 2061 230 1818 230 
L 1773 230 
L 1773 0 
L 3386 0 
L 3386 230 
L 3341 230 
C 3117 230 2950 319 2784 544 
L 1978 1632 
z
" id="CenturySchL-Roma-78" transform="scale(0.015625)"/>
      </defs>
      <use transform="scale(0.996264)" xlink:href="#CenturySchL-Roma-42"/>
      <use transform="translate(71.929985 0)scale(0.996264)" xlink:href="#CenturySchL-Roma-72"/>
      <use transform="translate(116.163554 0)scale(0.996264)" xlink:href="#CenturySchL-Roma-6f"/>
      <use transform="translate(165.976754 0)scale(0.996264)" xlink:href="#CenturySchL-Roma-61"/>
      <use transform="translate(221.368431 0)scale(0.996264)" xlink:href="#CenturySchL-Roma-64"/>
      <use transform="translate(306.249088 0)scale(0.996264)" xlink:href="#CenturySchL-Roma-53"/>
      <use transform="translate(369.013067 0)scale(0.996264)" xlink:href="#CenturySchL-Roma-70"/>
      <use transform="translate(426.198554 0)scale(0.996264)" xlink:href="#CenturySchL-Roma-61"/>
      <use transform="translate(481.590231 0)scale(0.996264)" xlink:href="#CenturySchL-Roma-63"/>
      <use transform="translate(525.8238 0)scale(0.996264)" xlink:href="#CenturySchL-Roma-65"/>
      <use transform="translate(575.637 0)scale(0.996264)" xlink:href="#CenturySchL-Roma-3a"/>
      <use transform="translate(637.601822 0)scale(0.996264)" xlink:href="#CenturySchL-Roma-4d"/>
      <use transform="translate(731.648591 0)scale(0.996264)" xlink:href="#CenturySchL-Roma-61"/>
      <use transform="translate(787.040268 0)scale(0.996264)" xlink:href="#CenturySchL-Roma-78"/>
      <use transform="translate(868.234781 0)scale(0.996264)" xlink:href="#CenturySchL-Roma-48"/>
      <use transform="translate(951.223211 0)scale(0.996264)" xlink:href="#CenturySchL-Roma-65"/>
      <use transform="translate(1001.036412 0)scale(0.996264)" xlink:href="#CenturySchL-Roma-69"/>
      <use transform="translate(1032.417725 0)scale(0.996264)" xlink:href="#CenturySchL-Roma-67"/>
      <use transform="translate(1085.917069 0)scale(0.996264)" xlink:href="#CenturySchL-Roma-68"/>
      <use transform="translate(1146.788699 0)scale(0.996264)" xlink:href="#CenturySchL-Roma-74"/>
     </g>
    </g>
    <g id="line2d_31">
     <path d="M 197.11473 48.919096 
L 233.11473 48.919096 
" style="fill:none;stroke:#377eb8;stroke-dasharray:12,12;stroke-dashoffset:0;stroke-linecap:round;stroke-linejoin:miter;stroke-width:2;"/>
    </g>
    <g id="line2d_32"/>
    <g id="text_16">
     <!-- Borad Space: 0.01m -->
     <g transform="translate(247.51473 55.219096)scale(0.18 -0.18)">
      <defs>
       <path d="M 1818 4544 
C 922 4544 269 3564 269 2224 
C 269 904 902 -64 1766 -64 
C 2662 -64 3290 872 3290 2204 
C 3290 2884 3149 3448 2880 3890 
C 2630 4294 2221 4544 1818 4544 
z
M 1773 4269 
C 1984 4269 2189 4128 2342 3872 
C 2515 3576 2573 3198 2573 2320 
C 2573 1422 2528 1000 2400 717 
C 2253 403 2022 211 1779 211 
C 1568 211 1363 352 1210 608 
C 1030 910 979 1314 979 2359 
C 979 3103 1024 3480 1152 3756 
C 1299 4083 1530 4269 1773 4269 
z
" id="CenturySchL-Roma-30" transform="scale(0.015625)"/>
       <path d="M 877 734 
C 653 734 474 555 474 338 
C 474 114 653 -64 870 -64 
C 1094 -64 1274 114 1274 338 
C 1274 555 1094 734 877 734 
z
" id="CenturySchL-Roma-2e" transform="scale(0.015625)"/>
       <path d="M 2061 4512 
C 1843 4239 1254 4032 666 4032 
L 666 3750 
L 1229 3750 
C 1600 3750 1626 3725 1626 3348 
L 1626 786 
L 1626 600 
C 1626 332 1568 300 1056 300 
L 640 300 
L 640 0 
L 3174 0 
L 3174 300 
L 2822 300 
C 2483 300 2342 326 2291 390 
C 2246 434 2246 434 2246 788 
L 2246 3435 
C 2246 3749 2259 4056 2291 4512 
L 2061 4512 
z
" id="CenturySchL-Roma-31" transform="scale(0.015625)"/>
      </defs>
      <use transform="scale(0.996264)" xlink:href="#CenturySchL-Roma-42"/>
      <use transform="translate(71.929985 0)scale(0.996264)" xlink:href="#CenturySchL-Roma-6f"/>
      <use transform="translate(121.743185 0)scale(0.996264)" xlink:href="#CenturySchL-Roma-72"/>
      <use transform="translate(165.976754 0)scale(0.996264)" xlink:href="#CenturySchL-Roma-61"/>
      <use transform="translate(221.368431 0)scale(0.996264)" xlink:href="#CenturySchL-Roma-64"/>
      <use transform="translate(306.249088 0)scale(0.996264)" xlink:href="#CenturySchL-Roma-53"/>
      <use transform="translate(369.013067 0)scale(0.996264)" xlink:href="#CenturySchL-Roma-70"/>
      <use transform="translate(426.198554 0)scale(0.996264)" xlink:href="#CenturySchL-Roma-61"/>
      <use transform="translate(481.590231 0)scale(0.996264)" xlink:href="#CenturySchL-Roma-63"/>
      <use transform="translate(525.8238 0)scale(0.996264)" xlink:href="#CenturySchL-Roma-65"/>
      <use transform="translate(575.637 0)scale(0.996264)" xlink:href="#CenturySchL-Roma-3a"/>
      <use transform="translate(637.601822 0)scale(0.996264)" xlink:href="#CenturySchL-Roma-30"/>
      <use transform="translate(692.993499 0)scale(0.996264)" xlink:href="#CenturySchL-Roma-2e"/>
      <use transform="translate(720.688668 0)scale(0.996264)" xlink:href="#CenturySchL-Roma-30"/>
      <use transform="translate(776.080345 0)scale(0.996264)" xlink:href="#CenturySchL-Roma-31"/>
      <use transform="translate(831.472022 0)scale(0.996264)" xlink:href="#CenturySchL-Roma-6d"/>
     </g>
    </g>
    <g id="line2d_33">
     <path d="M 197.11473 74.632225 
L 233.11473 74.632225 
" style="fill:none;stroke:#4daf4a;stroke-dasharray:6,10,2,10;stroke-dashoffset:0;stroke-linecap:round;stroke-linejoin:miter;stroke-width:2;"/>
    </g>
    <g id="line2d_34"/>
    <g id="text_17">
     <!-- Narrow Space: Max Height -->
     <g transform="translate(247.51473 80.932225)scale(0.18 -0.18)">
      <defs>
       <path d="M 1440 4608 
L 122 4608 
L 122 4308 
L 282 4308 
C 608 4308 755 4256 870 4097 
L 870 1376 
C 870 498 742 313 128 313 
L 128 0 
L 1952 0 
L 1952 313 
C 1344 313 1216 499 1216 1376 
L 1216 3753 
L 4070 -108 
L 4339 -108 
L 4339 3238 
C 4339 4121 4467 4308 5082 4308 
L 5082 4608 
L 3258 4608 
L 3258 4308 
C 3866 4308 3994 4122 3994 3240 
L 3994 1219 
L 1440 4608 
z
" id="CenturySchL-Roma-4e" transform="scale(0.015625)"/>
       <path d="M 3501 829 
L 2874 2471 
C 2854 2515 2848 2547 2848 2605 
C 2848 2720 2906 2752 3117 2752 
L 3270 2752 
L 3270 2982 
L 1837 2982 
L 1837 2752 
L 1946 2752 
C 2144 2752 2221 2701 2278 2515 
L 2336 2349 
L 1773 858 
L 1152 2464 
C 1139 2509 1126 2566 1126 2605 
C 1126 2713 1197 2752 1389 2752 
L 1504 2752 
L 1504 2982 
L 96 2982 
L 96 2752 
L 211 2752 
C 390 2752 454 2694 544 2438 
L 1504 -96 
L 1728 -96 
L 2490 1926 
L 3270 -96 
L 3469 -96 
L 4365 2265 
C 4506 2643 4614 2752 4838 2752 
L 4883 2752 
L 4883 2982 
L 3674 2982 
L 3674 2752 
L 3782 2752 
C 4006 2752 4096 2681 4096 2522 
C 4096 2458 4077 2362 4045 2285 
L 3501 829 
z
" id="CenturySchL-Roma-77" transform="scale(0.015625)"/>
      </defs>
      <use transform="scale(0.996264)" xlink:href="#CenturySchL-Roma-4e"/>
      <use transform="translate(81.194513 0)scale(0.996264)" xlink:href="#CenturySchL-Roma-61"/>
      <use transform="translate(136.58619 0)scale(0.996264)" xlink:href="#CenturySchL-Roma-72"/>
      <use transform="translate(180.819759 0)scale(0.996264)" xlink:href="#CenturySchL-Roma-72"/>
      <use transform="translate(225.053328 0)scale(0.996264)" xlink:href="#CenturySchL-Roma-6f"/>
      <use transform="translate(274.866528 0)scale(0.996264)" xlink:href="#CenturySchL-Roma-77"/>
      <use transform="translate(380.070068 0)scale(0.996264)" xlink:href="#CenturySchL-Roma-53"/>
      <use transform="translate(442.834047 0)scale(0.996264)" xlink:href="#CenturySchL-Roma-70"/>
      <use transform="translate(500.019534 0)scale(0.996264)" xlink:href="#CenturySchL-Roma-61"/>
      <use transform="translate(555.411211 0)scale(0.996264)" xlink:href="#CenturySchL-Roma-63"/>
      <use transform="translate(599.64478 0)scale(0.996264)" xlink:href="#CenturySchL-Roma-65"/>
      <use transform="translate(649.45798 0)scale(0.996264)" xlink:href="#CenturySchL-Roma-3a"/>
      <use transform="translate(711.422802 0)scale(0.996264)" xlink:href="#CenturySchL-Roma-4d"/>
      <use transform="translate(805.469571 0)scale(0.996264)" xlink:href="#CenturySchL-Roma-61"/>
      <use transform="translate(860.861248 0)scale(0.996264)" xlink:href="#CenturySchL-Roma-78"/>
      <use transform="translate(942.055761 0)scale(0.996264)" xlink:href="#CenturySchL-Roma-48"/>
      <use transform="translate(1025.044192 0)scale(0.996264)" xlink:href="#CenturySchL-Roma-65"/>
      <use transform="translate(1074.857392 0)scale(0.996264)" xlink:href="#CenturySchL-Roma-69"/>
      <use transform="translate(1106.238705 0)scale(0.996264)" xlink:href="#CenturySchL-Roma-67"/>
      <use transform="translate(1159.738049 0)scale(0.996264)" xlink:href="#CenturySchL-Roma-68"/>
      <use transform="translate(1220.60968 0)scale(0.996264)" xlink:href="#CenturySchL-Roma-74"/>
     </g>
    </g>
    <g id="line2d_35">
     <path d="M 197.11473 100.345353 
L 233.11473 100.345353 
" style="fill:none;stroke:#984ea3;stroke-dasharray:2,6;stroke-dashoffset:0;stroke-linecap:round;stroke-linejoin:miter;stroke-width:2;"/>
    </g>
    <g id="line2d_36"/>
    <g id="text_18">
     <!-- Narrow Space: 0.01m -->
     <g transform="translate(247.51473 106.645353)scale(0.18 -0.18)">
      <use transform="scale(0.996264)" xlink:href="#CenturySchL-Roma-4e"/>
      <use transform="translate(81.194513 0)scale(0.996264)" xlink:href="#CenturySchL-Roma-61"/>
      <use transform="translate(136.58619 0)scale(0.996264)" xlink:href="#CenturySchL-Roma-72"/>
      <use transform="translate(180.819759 0)scale(0.996264)" xlink:href="#CenturySchL-Roma-72"/>
      <use transform="translate(225.053328 0)scale(0.996264)" xlink:href="#CenturySchL-Roma-6f"/>
      <use transform="translate(274.866528 0)scale(0.996264)" xlink:href="#CenturySchL-Roma-77"/>
      <use transform="translate(380.070068 0)scale(0.996264)" xlink:href="#CenturySchL-Roma-53"/>
      <use transform="translate(442.834047 0)scale(0.996264)" xlink:href="#CenturySchL-Roma-70"/>
      <use transform="translate(500.019534 0)scale(0.996264)" xlink:href="#CenturySchL-Roma-61"/>
      <use transform="translate(555.411211 0)scale(0.996264)" xlink:href="#CenturySchL-Roma-63"/>
      <use transform="translate(599.64478 0)scale(0.996264)" xlink:href="#CenturySchL-Roma-65"/>
      <use transform="translate(649.45798 0)scale(0.996264)" xlink:href="#CenturySchL-Roma-3a"/>
      <use transform="translate(711.422802 0)scale(0.996264)" xlink:href="#CenturySchL-Roma-30"/>
      <use transform="translate(766.814479 0)scale(0.996264)" xlink:href="#CenturySchL-Roma-2e"/>
      <use transform="translate(794.509648 0)scale(0.996264)" xlink:href="#CenturySchL-Roma-30"/>
      <use transform="translate(849.901325 0)scale(0.996264)" xlink:href="#CenturySchL-Roma-31"/>
      <use transform="translate(905.293002 0)scale(0.996264)" xlink:href="#CenturySchL-Roma-6d"/>
     </g>
    </g>
   </g>
  </g>
 </g>
 <defs>
  <clipPath id="p6c985ef8d0">
   <rect height="264.85972" width="409.022499" x="74.177501" y="7.2"/>
  </clipPath>
 </defs>
</svg>
