<?xml version="1.0" encoding="utf-8" standalone="no"?>
<!DOCTYPE svg PUBLIC "-//W3C//DTD SVG 1.1//EN"
  "http://www.w3.org/Graphics/SVG/1.1/DTD/svg11.dtd">
<svg height="292.4pt" version="1.1" viewBox="0 0 436.4 292.4" width="436.4pt" xmlns="http://www.w3.org/2000/svg" xmlns:xlink="http://www.w3.org/1999/xlink">
 <metadata>
  <rdf:RDF xmlns:cc="http://creativecommons.org/ns#" xmlns:dc="http://purl.org/dc/elements/1.1/" xmlns:rdf="http://www.w3.org/1999/02/22-rdf-syntax-ns#">
   <cc:Work>
    <dc:type rdf:resource="http://purl.org/dc/dcmitype/StillImage"/>
    <dc:date>2021-11-23T13:17:03.825610</dc:date>
    <dc:format>image/svg+xml</dc:format>
    <dc:creator>
     <cc:Agent>
      <dc:title>Matplotlib v3.4.2, https://matplotlib.org/</dc:title>
     </cc:Agent>
    </dc:creator>
   </cc:Work>
  </rdf:RDF>
 </metadata>
 <defs>
  <style type="text/css">*{stroke-linecap:butt;stroke-linejoin:round;}</style>
 </defs>
 <g id="figure_1">
  <g id="patch_1">
   <path d="M 0 292.4 
L 436.4 292.4 
L 436.4 0 
L 0 0 
z
" style="fill:none;"/>
  </g>
  <g id="axes_1">
   <g id="patch_2">
    <path d="M 74.177501 236.05972 
L 362.222499 236.05972 
L 362.222499 13.852984 
L 74.177501 13.852984 
z
" style="fill:none;"/>
   </g>
   <g id="matplotlib.axis_1">
    <g id="xtick_1">
     <g id="line2d_1">
      <path clip-path="url(#pce5642323c)" d="M 86.214572 236.05972 
L 86.214572 13.852984 
" style="fill:none;stroke:#bfbfbf;stroke-dasharray:0.8,2.4;stroke-dashoffset:0;stroke-linecap:round;stroke-linejoin:miter;stroke-width:0.8;"/>
     </g>
     <g id="line2d_2">
      <defs>
       <path d="M 0 0 
L 0 3.5 
" id="m556f116d50" style="stroke:#000000;stroke-width:0.8;"/>
      </defs>
      <g>
       <use style="stroke:#000000;stroke-width:0.8;" x="86.214572" xlink:href="#m556f116d50" y="236.05972"/>
      </g>
     </g>
     <g id="text_1">
      <!-- $\mathdefault{0}$ -->
      <g transform="translate(82.102429 256.365688)scale(0.18 -0.18)">
       <defs>
        <path d="M 2688 2025 
C 2688 2416 2682 3080 2413 3591 
C 2176 4039 1798 4198 1466 4198 
C 1158 4198 768 4058 525 3597 
C 269 3118 243 2524 243 2025 
C 243 1661 250 1106 448 619 
C 723 -39 1216 -128 1466 -128 
C 1760 -128 2208 -7 2470 600 
C 2662 1042 2688 1559 2688 2025 
z
M 1466 -26 
C 1056 -26 813 325 723 812 
C 653 1188 653 1738 653 2096 
C 653 2588 653 2997 736 3387 
C 858 3929 1216 4096 1466 4096 
C 1728 4096 2067 3923 2189 3400 
C 2272 3036 2278 2607 2278 2096 
C 2278 1680 2278 1169 2202 792 
C 2067 95 1690 -26 1466 -26 
z
" id="CMR17-30" transform="scale(0.015625)"/>
       </defs>
       <use transform="scale(0.996264)" xlink:href="#CMR17-30"/>
      </g>
     </g>
    </g>
    <g id="xtick_2">
     <g id="line2d_3">
      <path clip-path="url(#pce5642323c)" d="M 152.207286 236.05972 
L 152.207286 13.852984 
" style="fill:none;stroke:#bfbfbf;stroke-dasharray:0.8,2.4;stroke-dashoffset:0;stroke-linecap:round;stroke-linejoin:miter;stroke-width:0.8;"/>
     </g>
     <g id="line2d_4">
      <g>
       <use style="stroke:#000000;stroke-width:0.8;" x="152.207286" xlink:href="#m556f116d50" y="236.05972"/>
      </g>
     </g>
     <g id="text_2">
      <!-- $\mathdefault{250}$ -->
      <g transform="translate(139.870857 256.365688)scale(0.18 -0.18)">
       <defs>
        <path d="M 2669 989 
L 2554 989 
C 2490 536 2438 459 2413 420 
C 2381 369 1920 369 1830 369 
L 602 369 
C 832 619 1280 1072 1824 1597 
C 2214 1967 2669 2402 2669 3035 
C 2669 3790 2067 4224 1395 4224 
C 691 4224 262 3604 262 3030 
C 262 2780 448 2748 525 2748 
C 589 2748 781 2787 781 3010 
C 781 3207 614 3264 525 3264 
C 486 3264 448 3258 422 3245 
C 544 3790 915 4058 1306 4058 
C 1862 4058 2227 3617 2227 3035 
C 2227 2479 1901 2000 1536 1584 
L 262 146 
L 262 0 
L 2515 0 
L 2669 989 
z
" id="CMR17-32" transform="scale(0.015625)"/>
        <path d="M 730 3692 
C 794 3666 1056 3584 1325 3584 
C 1920 3584 2246 3911 2432 4100 
C 2432 4157 2432 4192 2394 4192 
C 2387 4192 2374 4192 2323 4163 
C 2099 4058 1837 3973 1517 3973 
C 1325 3973 1037 3999 723 4139 
C 653 4171 640 4171 634 4171 
C 602 4171 595 4164 595 4037 
L 595 2203 
C 595 2089 595 2057 659 2057 
C 691 2057 704 2070 736 2114 
C 941 2401 1222 2522 1542 2522 
C 1766 2522 2246 2382 2246 1289 
C 2246 1085 2246 715 2054 421 
C 1894 159 1645 25 1370 25 
C 947 25 518 320 403 814 
C 429 807 480 795 506 795 
C 589 795 749 840 749 1038 
C 749 1210 627 1280 506 1280 
C 358 1280 262 1190 262 1011 
C 262 454 704 -128 1382 -128 
C 2042 -128 2669 440 2669 1264 
C 2669 2030 2170 2624 1549 2624 
C 1222 2624 947 2503 730 2274 
L 730 3692 
z
" id="CMR17-35" transform="scale(0.015625)"/>
       </defs>
       <use transform="scale(0.996264)" xlink:href="#CMR17-32"/>
       <use transform="translate(45.690477 0)scale(0.996264)" xlink:href="#CMR17-35"/>
       <use transform="translate(91.380954 0)scale(0.996264)" xlink:href="#CMR17-30"/>
      </g>
     </g>
    </g>
    <g id="xtick_3">
     <g id="line2d_5">
      <path clip-path="url(#pce5642323c)" d="M 218.2 236.05972 
L 218.2 13.852984 
" style="fill:none;stroke:#bfbfbf;stroke-dasharray:0.8,2.4;stroke-dashoffset:0;stroke-linecap:round;stroke-linejoin:miter;stroke-width:0.8;"/>
     </g>
     <g id="line2d_6">
      <g>
       <use style="stroke:#000000;stroke-width:0.8;" x="218.2" xlink:href="#m556f116d50" y="236.05972"/>
      </g>
     </g>
     <g id="text_3">
      <!-- $\mathdefault{500}$ -->
      <g transform="translate(205.863571 256.365688)scale(0.18 -0.18)">
       <use transform="scale(0.996264)" xlink:href="#CMR17-35"/>
       <use transform="translate(45.690477 0)scale(0.996264)" xlink:href="#CMR17-30"/>
       <use transform="translate(91.380954 0)scale(0.996264)" xlink:href="#CMR17-30"/>
      </g>
     </g>
    </g>
    <g id="xtick_4">
     <g id="line2d_7">
      <path clip-path="url(#pce5642323c)" d="M 284.192714 236.05972 
L 284.192714 13.852984 
" style="fill:none;stroke:#bfbfbf;stroke-dasharray:0.8,2.4;stroke-dashoffset:0;stroke-linecap:round;stroke-linejoin:miter;stroke-width:0.8;"/>
     </g>
     <g id="line2d_8">
      <g>
       <use style="stroke:#000000;stroke-width:0.8;" x="284.192714" xlink:href="#m556f116d50" y="236.05972"/>
      </g>
     </g>
     <g id="text_4">
      <!-- $\mathdefault{750}$ -->
      <g transform="translate(271.856285 256.365688)scale(0.18 -0.18)">
       <defs>
        <path d="M 2886 3941 
L 2886 4081 
L 1382 4081 
C 634 4081 621 4165 595 4288 
L 480 4288 
L 294 3094 
L 410 3094 
C 429 3215 474 3540 550 3661 
C 589 3712 1062 3712 1171 3712 
L 2579 3712 
L 1869 2661 
C 1395 1954 1069 999 1069 165 
C 1069 89 1069 -128 1299 -128 
C 1530 -128 1530 89 1530 171 
L 1530 465 
C 1530 1508 1709 2196 2003 2636 
L 2886 3941 
z
" id="CMR17-37" transform="scale(0.015625)"/>
       </defs>
       <use transform="scale(0.996264)" xlink:href="#CMR17-37"/>
       <use transform="translate(45.690477 0)scale(0.996264)" xlink:href="#CMR17-35"/>
       <use transform="translate(91.380954 0)scale(0.996264)" xlink:href="#CMR17-30"/>
      </g>
     </g>
    </g>
    <g id="xtick_5">
     <g id="line2d_9">
      <path clip-path="url(#pce5642323c)" d="M 350.185428 236.05972 
L 350.185428 13.852984 
" style="fill:none;stroke:#bfbfbf;stroke-dasharray:0.8,2.4;stroke-dashoffset:0;stroke-linecap:round;stroke-linejoin:miter;stroke-width:0.8;"/>
     </g>
     <g id="line2d_10">
      <g>
       <use style="stroke:#000000;stroke-width:0.8;" x="350.185428" xlink:href="#m556f116d50" y="236.05972"/>
      </g>
     </g>
     <g id="text_5">
      <!-- $\mathdefault{1000}$ -->
      <g transform="translate(333.736856 256.365688)scale(0.18 -0.18)">
       <defs>
        <path d="M 1702 4058 
C 1702 4192 1696 4192 1606 4192 
C 1357 3916 979 3827 621 3827 
C 602 3827 570 3827 563 3808 
C 557 3795 557 3782 557 3648 
C 755 3648 1088 3686 1344 3839 
L 1344 461 
C 1344 236 1331 160 781 160 
L 589 160 
L 589 0 
C 896 0 1216 0 1523 0 
C 1830 0 2150 0 2458 0 
L 2458 160 
L 2266 160 
C 1715 160 1702 230 1702 458 
L 1702 4058 
z
" id="CMR17-31" transform="scale(0.015625)"/>
       </defs>
       <use transform="scale(0.996264)" xlink:href="#CMR17-31"/>
       <use transform="translate(45.690477 0)scale(0.996264)" xlink:href="#CMR17-30"/>
       <use transform="translate(91.380954 0)scale(0.996264)" xlink:href="#CMR17-30"/>
       <use transform="translate(137.071431 0)scale(0.996264)" xlink:href="#CMR17-30"/>
      </g>
     </g>
    </g>
    <g id="text_6">
     <!-- Episode -->
     <g transform="translate(178.222223 281.0357)scale(0.22 -0.22)">
      <defs>
       <path d="M 4032 4608 
L 186 4608 
L 186 4308 
L 301 4308 
C 819 4308 877 4276 877 4007 
L 877 3823 
L 877 786 
L 877 600 
C 877 332 819 300 301 300 
L 186 300 
L 186 0 
L 4115 0 
L 4243 1696 
L 3962 1696 
C 3878 1252 3731 858 3578 675 
C 3379 421 3014 300 2477 300 
L 2054 300 
C 1862 300 1702 339 1645 396 
C 1600 434 1594 473 1594 608 
L 1594 2240 
L 1722 2240 
C 2112 2240 2272 2200 2400 2063 
C 2566 1893 2630 1683 2643 1297 
L 2944 1297 
L 2944 3392 
L 2643 3392 
C 2611 2782 2355 2540 1747 2540 
L 1594 2540 
L 1594 3989 
C 1594 4263 1651 4308 1997 4308 
L 2330 4308 
C 2893 4308 3168 4250 3386 4070 
C 3597 3904 3750 3545 3846 2969 
L 4122 2969 
L 4032 4608 
z
" id="CenturySchL-Roma-45" transform="scale(0.015625)"/>
       <path d="M 1286 2944 
L 179 2944 
L 179 2638 
L 410 2638 
C 646 2638 685 2593 685 2318 
L 685 -496 
L 685 -750 
C 685 -1006 614 -1050 205 -1050 
L 179 -1050 
L 179 -1280 
L 1843 -1280 
L 1843 -1050 
L 1773 -1050 
C 1357 -1050 1286 -1006 1286 -751 
L 1286 -496 
L 1286 428 
C 1498 58 1741 -89 2131 -89 
C 2874 -89 3424 593 3424 1504 
C 3424 2385 2874 3072 2170 3072 
C 1773 3072 1510 2908 1286 2529 
L 1286 2944 
z
M 2054 2727 
C 2496 2727 2752 2288 2752 1542 
C 2752 721 2490 256 2035 256 
C 1581 256 1280 728 1280 1460 
C 1280 2249 1568 2727 2054 2727 
z
" id="CenturySchL-Roma-70" transform="scale(0.015625)"/>
       <path d="M 1318 2944 
L 115 2944 
L 115 2638 
L 442 2638 
C 678 2638 717 2593 717 2317 
L 717 787 
L 717 531 
C 717 275 646 230 237 230 
L 192 230 
L 192 0 
L 1850 0 
L 1850 230 
L 1805 230 
C 1389 230 1318 274 1318 526 
L 1318 779 
L 1318 2944 
z
M 1018 4581 
C 813 4581 646 4415 646 4211 
C 646 4013 813 3840 1011 3840 
C 1222 3840 1389 4006 1389 4211 
C 1389 4415 1222 4581 1018 4581 
z
" id="CenturySchL-Roma-69" transform="scale(0.015625)"/>
       <path d="M 2496 3072 
L 2272 3072 
L 2086 2842 
C 1856 3021 1626 3097 1306 3097 
C 742 3097 371 2728 371 2173 
C 371 1925 454 1714 595 1588 
C 742 1453 890 1390 1274 1300 
L 1613 1224 
C 2118 1103 2298 975 2298 721 
C 2298 421 2035 211 1658 211 
C 1120 211 736 561 582 1208 
L 326 1208 
L 326 0 
L 550 0 
L 774 250 
C 1037 38 1331 -64 1651 -64 
C 2278 -64 2694 325 2694 918 
C 2694 1198 2605 1414 2426 1561 
C 2272 1695 2144 1746 1754 1828 
L 1434 1899 
C 1082 1975 1082 1975 966 2039 
C 826 2103 742 2236 742 2377 
C 742 2631 986 2816 1338 2816 
C 1581 2816 1779 2733 1958 2561 
C 2099 2420 2170 2293 2272 1999 
L 2496 1999 
L 2496 3072 
z
" id="CenturySchL-Roma-73" transform="scale(0.015625)"/>
       <path d="M 1613 3090 
C 832 3090 218 2397 218 1507 
C 218 636 832 -64 1600 -64 
C 2368 -64 2982 636 2982 1513 
C 2982 2384 2368 3090 1613 3090 
z
M 1613 2816 
C 2061 2816 2310 2352 2310 1513 
C 2310 669 2061 211 1600 211 
C 1139 211 890 669 890 1507 
C 890 2371 1133 2816 1613 2816 
z
" id="CenturySchL-Roma-6f" transform="scale(0.015625)"/>
       <path d="M 2432 0 
L 3546 0 
L 3546 301 
L 3430 301 
C 3085 301 3034 365 3034 766 
L 3034 4722 
L 1779 4722 
L 1779 4416 
L 2157 4416 
C 2387 4416 2432 4370 2432 4091 
L 2432 2624 
C 2195 2950 1920 3097 1549 3097 
C 826 3097 275 2403 275 1485 
C 275 580 806 -64 1549 -64 
C 1952 -64 2227 107 2432 486 
L 2432 0 
z
M 1677 2752 
C 1939 2752 2189 2562 2304 2268 
C 2381 2077 2426 1810 2426 1505 
C 2426 766 2131 281 1670 281 
C 1222 281 947 702 947 1409 
C 947 1785 986 2071 1069 2287 
C 1178 2568 1414 2752 1677 2752 
z
" id="CenturySchL-Roma-64" transform="scale(0.015625)"/>
       <path d="M 2976 1472 
C 2982 2420 2438 3090 1658 3090 
C 838 3090 224 2384 224 1430 
C 224 540 806 -64 1670 -64 
C 2278 -64 2714 236 2976 844 
L 2752 966 
C 2490 473 2221 281 1792 281 
C 1466 281 1229 422 1062 704 
C 947 896 896 1120 902 1472 
L 2976 1472 
z
M 909 1747 
C 909 1942 934 2080 998 2256 
C 1133 2633 1338 2816 1645 2816 
C 2035 2816 2291 2482 2291 1979 
C 2291 1797 2234 1747 2029 1747 
L 909 1747 
z
" id="CenturySchL-Roma-65" transform="scale(0.015625)"/>
      </defs>
      <use transform="scale(0.996264)" xlink:href="#CenturySchL-Roma-45"/>
      <use transform="translate(71.929985 0)scale(0.996264)" xlink:href="#CenturySchL-Roma-70"/>
      <use transform="translate(129.115472 0)scale(0.996264)" xlink:href="#CenturySchL-Roma-69"/>
      <use transform="translate(160.496785 0)scale(0.996264)" xlink:href="#CenturySchL-Roma-73"/>
      <use transform="translate(206.622596 0)scale(0.996264)" xlink:href="#CenturySchL-Roma-6f"/>
      <use transform="translate(256.435796 0)scale(0.996264)" xlink:href="#CenturySchL-Roma-64"/>
      <use transform="translate(313.621283 0)scale(0.996264)" xlink:href="#CenturySchL-Roma-65"/>
     </g>
    </g>
   </g>
   <g id="matplotlib.axis_2">
    <g id="ytick_1">
     <g id="line2d_11">
      <path clip-path="url(#pce5642323c)" d="M 74.177501 225.5241 
L 362.222499 225.5241 
" style="fill:none;stroke:#bfbfbf;stroke-dasharray:0.8,2.4;stroke-dashoffset:0;stroke-linecap:round;stroke-linejoin:miter;stroke-width:0.8;"/>
     </g>
     <g id="line2d_12">
      <defs>
       <path d="M 0 0 
L -3.5 0 
" id="m16b3dbf6bc" style="stroke:#000000;stroke-width:0.8;"/>
      </defs>
      <g>
       <use style="stroke:#000000;stroke-width:0.8;" x="74.177501" xlink:href="#m16b3dbf6bc" y="225.5241"/>
      </g>
     </g>
     <g id="text_7">
      <!-- $\mathdefault{0.09}$ -->
      <g transform="translate(37.627152 232.177085)scale(0.18 -0.18)">
       <defs>
        <path d="M 1178 307 
C 1178 492 1024 619 870 619 
C 685 619 557 466 557 313 
C 557 128 710 0 864 0 
C 1050 0 1178 153 1178 307 
z
" id="CMMI12-3a" transform="scale(0.015625)"/>
        <path d="M 2253 1864 
C 2253 464 1670 31 1190 31 
C 1043 31 685 31 538 294 
C 704 268 826 357 826 518 
C 826 692 685 749 595 749 
C 538 749 365 723 365 506 
C 365 71 742 -128 1203 -128 
C 1939 -128 2688 674 2688 2073 
C 2688 3817 1971 4179 1485 4179 
C 851 4179 243 3628 243 2778 
C 243 1991 762 1408 1414 1408 
C 1952 1408 2189 1903 2253 2112 
L 2253 1864 
z
M 1427 1510 
C 1254 1510 1011 1542 813 1922 
C 678 2169 678 2461 678 2771 
C 678 3146 678 3405 858 3684 
C 947 3817 1114 4032 1485 4032 
C 2240 4032 2240 2885 2240 2632 
C 2240 2182 2035 1510 1427 1510 
z
" id="CMR17-39" transform="scale(0.015625)"/>
       </defs>
       <use transform="scale(0.996264)" xlink:href="#CMR17-30"/>
       <use transform="translate(45.690477 0)scale(0.996264)" xlink:href="#CMMI12-3a"/>
       <use transform="translate(72.787654 0)scale(0.996264)" xlink:href="#CMR17-30"/>
       <use transform="translate(118.478131 0)scale(0.996264)" xlink:href="#CMR17-39"/>
      </g>
     </g>
    </g>
    <g id="ytick_2">
     <g id="line2d_13">
      <path clip-path="url(#pce5642323c)" d="M 74.177501 172.606321 
L 362.222499 172.606321 
" style="fill:none;stroke:#bfbfbf;stroke-dasharray:0.8,2.4;stroke-dashoffset:0;stroke-linecap:round;stroke-linejoin:miter;stroke-width:0.8;"/>
     </g>
     <g id="line2d_14">
      <g>
       <use style="stroke:#000000;stroke-width:0.8;" x="74.177501" xlink:href="#m16b3dbf6bc" y="172.606321"/>
      </g>
     </g>
     <g id="text_8">
      <!-- $\mathdefault{0.10}$ -->
      <g transform="translate(37.627152 179.259305)scale(0.18 -0.18)">
       <use transform="scale(0.996264)" xlink:href="#CMR17-30"/>
       <use transform="translate(45.690477 0)scale(0.996264)" xlink:href="#CMMI12-3a"/>
       <use transform="translate(72.787654 0)scale(0.996264)" xlink:href="#CMR17-31"/>
       <use transform="translate(118.478131 0)scale(0.996264)" xlink:href="#CMR17-30"/>
      </g>
     </g>
    </g>
    <g id="ytick_3">
     <g id="line2d_15">
      <path clip-path="url(#pce5642323c)" d="M 74.177501 119.688542 
L 362.222499 119.688542 
" style="fill:none;stroke:#bfbfbf;stroke-dasharray:0.8,2.4;stroke-dashoffset:0;stroke-linecap:round;stroke-linejoin:miter;stroke-width:0.8;"/>
     </g>
     <g id="line2d_16">
      <g>
       <use style="stroke:#000000;stroke-width:0.8;" x="74.177501" xlink:href="#m16b3dbf6bc" y="119.688542"/>
      </g>
     </g>
     <g id="text_9">
      <!-- $\mathdefault{0.11}$ -->
      <g transform="translate(37.627152 126.341526)scale(0.18 -0.18)">
       <use transform="scale(0.996264)" xlink:href="#CMR17-30"/>
       <use transform="translate(45.690477 0)scale(0.996264)" xlink:href="#CMMI12-3a"/>
       <use transform="translate(72.787654 0)scale(0.996264)" xlink:href="#CMR17-31"/>
       <use transform="translate(118.478131 0)scale(0.996264)" xlink:href="#CMR17-31"/>
      </g>
     </g>
    </g>
    <g id="ytick_4">
     <g id="line2d_17">
      <path clip-path="url(#pce5642323c)" d="M 74.177501 66.770763 
L 362.222499 66.770763 
" style="fill:none;stroke:#bfbfbf;stroke-dasharray:0.8,2.4;stroke-dashoffset:0;stroke-linecap:round;stroke-linejoin:miter;stroke-width:0.8;"/>
     </g>
     <g id="line2d_18">
      <g>
       <use style="stroke:#000000;stroke-width:0.8;" x="74.177501" xlink:href="#m16b3dbf6bc" y="66.770763"/>
      </g>
     </g>
     <g id="text_10">
      <!-- $\mathdefault{0.12}$ -->
      <g transform="translate(37.627152 73.423747)scale(0.18 -0.18)">
       <use transform="scale(0.996264)" xlink:href="#CMR17-30"/>
       <use transform="translate(45.690477 0)scale(0.996264)" xlink:href="#CMMI12-3a"/>
       <use transform="translate(72.787654 0)scale(0.996264)" xlink:href="#CMR17-31"/>
       <use transform="translate(118.478131 0)scale(0.996264)" xlink:href="#CMR17-32"/>
      </g>
     </g>
    </g>
    <g id="ytick_5">
     <g id="line2d_19">
      <path clip-path="url(#pce5642323c)" d="M 74.177501 13.852984 
L 362.222499 13.852984 
" style="fill:none;stroke:#bfbfbf;stroke-dasharray:0.8,2.4;stroke-dashoffset:0;stroke-linecap:round;stroke-linejoin:miter;stroke-width:0.8;"/>
     </g>
     <g id="line2d_20">
      <g>
       <use style="stroke:#000000;stroke-width:0.8;" x="74.177501" xlink:href="#m16b3dbf6bc" y="13.852984"/>
      </g>
     </g>
     <g id="text_11">
      <!-- $\mathdefault{0.13}$ -->
      <g transform="translate(37.627152 20.505968)scale(0.18 -0.18)">
       <defs>
        <path d="M 1414 2157 
C 1984 2157 2234 1662 2234 1090 
C 2234 320 1824 25 1453 25 
C 1114 25 563 194 390 693 
C 422 680 454 680 486 680 
C 640 680 755 782 755 948 
C 755 1133 614 1216 486 1216 
C 378 1216 211 1165 211 926 
C 211 335 787 -128 1466 -128 
C 2176 -128 2720 430 2720 1085 
C 2720 1707 2208 2157 1600 2227 
C 2086 2328 2554 2756 2554 3329 
C 2554 3820 2048 4179 1472 4179 
C 890 4179 378 3829 378 3329 
C 378 3110 544 3072 627 3072 
C 762 3072 877 3155 877 3321 
C 877 3486 762 3569 627 3569 
C 602 3569 570 3569 544 3557 
C 730 3959 1235 4032 1459 4032 
C 1683 4032 2106 3925 2106 3320 
C 2106 3143 2080 2828 1862 2550 
C 1670 2304 1453 2304 1242 2284 
C 1210 2284 1062 2269 1037 2269 
C 992 2263 966 2257 966 2208 
C 966 2163 973 2157 1101 2157 
L 1414 2157 
z
" id="CMR17-33" transform="scale(0.015625)"/>
       </defs>
       <use transform="scale(0.996264)" xlink:href="#CMR17-30"/>
       <use transform="translate(45.690477 0)scale(0.996264)" xlink:href="#CMMI12-3a"/>
       <use transform="translate(72.787654 0)scale(0.996264)" xlink:href="#CMR17-31"/>
       <use transform="translate(118.478131 0)scale(0.996264)" xlink:href="#CMR17-33"/>
      </g>
     </g>
    </g>
    <g id="text_12">
     <!-- Max Height Reward -->
     <g transform="translate(23.462852 227.245892)rotate(-90)scale(0.22 -0.22)">
      <defs>
       <path d="M 1837 4608 
L 186 4608 
L 186 4308 
L 307 4308 
C 826 4308 883 4276 883 4006 
L 883 3821 
L 883 1369 
C 883 498 755 313 141 313 
L 141 0 
L 1965 0 
L 1965 313 
C 1357 313 1229 498 1229 1370 
L 1229 4200 
L 2752 0 
L 3008 0 
L 4435 4200 
L 4435 797 
L 4435 612 
C 4435 339 4378 313 3859 313 
L 3744 313 
L 3744 0 
L 5843 0 
L 5843 313 
L 5728 313 
C 5210 313 5152 339 5152 612 
L 5152 797 
L 5152 3824 
L 5152 4008 
C 5152 4276 5210 4308 5728 4308 
L 5843 4308 
L 5843 4608 
L 4237 4608 
L 3066 1206 
L 1837 4608 
z
" id="CenturySchL-Roma-4d" transform="scale(0.015625)"/>
       <path d="M 2893 2085 
C 2893 2483 2822 2686 2637 2838 
C 2426 3002 2112 3090 1702 3090 
C 986 3090 454 2755 454 2299 
C 454 2058 602 1906 826 1906 
C 1024 1906 1171 2039 1171 2228 
C 1171 2311 1139 2399 1075 2488 
C 1037 2531 1030 2550 1030 2570 
C 1030 2702 1293 2816 1600 2816 
C 1798 2816 2022 2753 2125 2658 
C 2246 2557 2291 2405 2291 2120 
L 2291 1874 
C 1619 1759 1414 1708 1101 1588 
C 550 1383 282 1084 282 682 
C 282 229 646 -64 1210 -64 
C 1651 -64 2048 119 2323 452 
C 2426 127 2586 0 2886 0 
C 3174 0 3475 185 3475 370 
C 3475 414 3443 446 3411 446 
C 3386 446 3360 440 3315 421 
C 3213 384 3187 377 3136 377 
C 2957 377 2893 498 2893 814 
L 2893 2085 
z
M 2291 1310 
C 2291 926 2272 837 2163 671 
C 2003 434 1709 275 1434 275 
C 1146 275 928 486 928 773 
C 928 1041 1062 1233 1344 1367 
C 1542 1456 1792 1520 2291 1603 
L 2291 1310 
z
" id="CenturySchL-Roma-61" transform="scale(0.015625)"/>
       <path d="M 1978 1632 
L 2707 2482 
C 2861 2662 3021 2752 3187 2752 
L 3245 2752 
L 3245 2982 
L 1920 2982 
L 1920 2752 
L 2042 2752 
C 2234 2752 2330 2701 2330 2611 
C 2330 2547 2285 2451 2202 2349 
L 1798 1869 
L 1306 2496 
C 1267 2541 1242 2598 1242 2637 
C 1242 2720 1325 2752 1523 2752 
L 1613 2752 
L 1613 2982 
L 96 2982 
L 96 2752 
C 333 2732 416 2675 627 2406 
L 1408 1421 
L 672 563 
C 493 351 282 230 96 230 
L 58 230 
L 58 0 
L 1408 0 
L 1408 230 
L 1312 230 
C 1165 230 1133 236 1088 256 
C 1037 281 998 346 998 403 
C 998 448 1018 506 1050 538 
L 1587 1184 
L 2074 538 
C 2118 474 2157 390 2157 345 
C 2157 262 2061 230 1818 230 
L 1773 230 
L 1773 0 
L 3386 0 
L 3386 230 
L 3341 230 
C 3117 230 2950 319 2784 544 
L 1978 1632 
z
" id="CenturySchL-Roma-78" transform="scale(0.015625)"/>
       <path d="M 3738 2215 
L 3738 786 
L 3738 600 
C 3738 332 3680 300 3162 300 
L 3046 300 
L 3046 0 
L 5146 0 
L 5146 300 
L 5030 300 
C 4512 300 4454 332 4454 600 
L 4454 786 
L 4454 3823 
L 4454 4007 
C 4454 4276 4512 4308 5030 4308 
L 5146 4308 
L 5146 4608 
L 3072 4608 
L 3072 4308 
L 3162 4308 
C 3680 4308 3738 4276 3738 4008 
L 3738 3823 
L 3738 2560 
L 1594 2560 
L 1594 3823 
L 1594 4008 
C 1594 4276 1651 4308 2170 4308 
L 2291 4308 
L 2291 4608 
L 186 4608 
L 186 4308 
L 301 4308 
C 819 4308 877 4276 877 4007 
L 877 3823 
L 877 786 
L 877 600 
C 877 332 819 300 301 300 
L 186 300 
L 186 0 
L 2291 0 
L 2291 300 
L 2170 300 
C 1651 300 1594 332 1594 600 
L 1594 786 
L 1594 2215 
L 3738 2215 
z
" id="CenturySchL-Roma-48" transform="scale(0.015625)"/>
       <path d="M 1254 486 
C 902 486 883 493 806 542 
C 762 570 730 647 730 723 
C 730 933 902 1024 1331 1024 
C 1939 1024 2035 1037 2246 1132 
C 2630 1303 2848 1631 2848 2047 
C 2848 2299 2790 2457 2611 2665 
C 2720 2778 2778 2816 2829 2816 
C 2861 2816 2880 2796 2893 2728 
C 2918 2577 3021 2496 3181 2496 
C 3341 2496 3469 2630 3469 2802 
C 3469 3020 3296 3173 3046 3173 
C 2842 3173 2726 3108 2432 2835 
C 2163 3014 1958 3077 1638 3077 
C 877 3077 378 2664 378 2036 
C 378 1666 582 1346 915 1196 
C 486 1098 307 902 307 542 
C 307 255 435 85 736 -19 
C 339 -159 147 -363 147 -624 
C 147 -1044 640 -1280 1498 -1280 
C 2566 -1280 3104 -942 3104 -272 
C 3104 46 2957 300 2720 396 
C 2554 460 2349 486 1907 486 
L 1254 486 
z
M 1632 2816 
C 2035 2816 2259 2539 2259 2054 
C 2259 1563 2016 1266 1606 1266 
C 1210 1266 960 1563 960 2035 
C 960 2532 1203 2816 1632 2816 
z
M 1574 -64 
C 2106 -64 2144 -64 2240 -76 
C 2496 -102 2656 -242 2656 -445 
C 2656 -808 2240 -1018 1523 -1018 
C 986 -1018 678 -859 678 -573 
C 678 -363 794 -222 1101 -64 
L 1574 -64 
z
" id="CenturySchL-Roma-67" transform="scale(0.015625)"/>
       <path d="M 1280 4672 
L 96 4672 
L 96 4366 
L 403 4366 
C 640 4366 678 4321 678 4046 
L 678 786 
L 678 530 
C 678 275 608 230 198 230 
L 173 230 
L 173 0 
L 1792 0 
L 1792 230 
L 1766 230 
C 1350 230 1280 275 1280 530 
L 1280 786 
L 1280 1444 
C 1280 1763 1325 2050 1395 2197 
C 1530 2485 1818 2683 2093 2683 
C 2259 2683 2451 2587 2547 2459 
C 2643 2319 2688 2127 2688 1814 
L 2688 786 
L 2688 530 
C 2688 275 2618 230 2202 230 
L 2176 230 
L 2176 0 
L 3795 0 
L 3795 230 
L 3770 230 
C 3360 230 3290 275 3290 530 
L 3290 786 
L 3290 1789 
C 3290 2248 3270 2363 3155 2581 
C 2995 2887 2675 3072 2291 3072 
C 1882 3072 1568 2881 1280 2453 
L 1280 4672 
z
" id="CenturySchL-Roma-68" transform="scale(0.015625)"/>
       <path d="M 1242 3008 
L 1242 4288 
L 979 4288 
C 915 3448 634 3020 115 2982 
L 115 2733 
L 640 2733 
L 640 1105 
C 640 658 653 498 717 351 
C 819 83 1075 -64 1446 -64 
C 1696 -64 1914 13 2061 153 
C 2272 358 2394 696 2394 1048 
C 2394 1086 2394 1131 2387 1195 
L 2118 1195 
C 2099 620 1933 326 1619 326 
C 1472 326 1344 402 1299 511 
C 1261 600 1242 760 1242 990 
L 1242 2733 
L 2182 2733 
L 2182 3008 
L 1242 3008 
z
" id="CenturySchL-Roma-74" transform="scale(0.015625)"/>
       <path d="M 1574 2240 
L 1946 2240 
C 2195 2240 2451 2163 2592 2047 
C 2778 1900 2874 1669 2918 1246 
L 2950 918 
C 3027 193 3264 -102 3770 -102 
C 4294 -102 4544 251 4563 1019 
L 4294 1019 
C 4269 576 4192 384 4019 384 
C 3872 384 3808 493 3699 936 
L 3597 1340 
C 3456 1931 3206 2200 2707 2329 
C 3629 2457 4070 2825 4070 3468 
C 4070 4194 3456 4608 2381 4608 
L 166 4608 
L 166 4308 
L 282 4308 
C 800 4308 858 4276 858 4007 
L 858 3823 
L 858 779 
L 858 600 
C 858 332 800 300 282 300 
L 166 300 
L 166 0 
L 2266 0 
L 2266 300 
L 2150 300 
C 1632 300 1574 332 1574 601 
L 1574 780 
L 1574 2240 
z
M 1574 2540 
L 1574 3944 
C 1574 4200 1581 4219 1645 4270 
C 1696 4308 1741 4308 2016 4308 
L 2362 4308 
C 2995 4308 3283 4040 3283 3462 
C 3283 3137 3200 2889 3034 2756 
C 2874 2623 2586 2540 2278 2540 
L 1574 2540 
z
" id="CenturySchL-Roma-52" transform="scale(0.015625)"/>
       <path d="M 3501 829 
L 2874 2471 
C 2854 2515 2848 2547 2848 2605 
C 2848 2720 2906 2752 3117 2752 
L 3270 2752 
L 3270 2982 
L 1837 2982 
L 1837 2752 
L 1946 2752 
C 2144 2752 2221 2701 2278 2515 
L 2336 2349 
L 1773 858 
L 1152 2464 
C 1139 2509 1126 2566 1126 2605 
C 1126 2713 1197 2752 1389 2752 
L 1504 2752 
L 1504 2982 
L 96 2982 
L 96 2752 
L 211 2752 
C 390 2752 454 2694 544 2438 
L 1504 -96 
L 1728 -96 
L 2490 1926 
L 3270 -96 
L 3469 -96 
L 4365 2265 
C 4506 2643 4614 2752 4838 2752 
L 4883 2752 
L 4883 2982 
L 3674 2982 
L 3674 2752 
L 3782 2752 
C 4006 2752 4096 2681 4096 2522 
C 4096 2458 4077 2362 4045 2285 
L 3501 829 
z
" id="CenturySchL-Roma-77" transform="scale(0.015625)"/>
       <path d="M 1267 2944 
L 134 2944 
L 134 2638 
L 397 2638 
C 634 2638 672 2593 672 2317 
L 672 787 
L 672 531 
C 672 275 602 230 186 230 
L 160 230 
L 160 0 
L 1869 0 
L 1869 230 
L 1747 230 
C 1338 230 1267 275 1267 531 
L 1267 787 
L 1267 851 
C 1267 1332 1357 1818 1517 2183 
C 1670 2541 1888 2740 2157 2772 
C 2067 2669 2042 2604 2042 2481 
C 2042 2275 2189 2127 2394 2127 
C 2624 2127 2784 2300 2784 2561 
C 2784 2868 2566 3072 2227 3072 
C 1824 3072 1472 2747 1267 2185 
L 1267 2944 
z
" id="CenturySchL-Roma-72" transform="scale(0.015625)"/>
      </defs>
      <use transform="scale(0.996264)" xlink:href="#CenturySchL-Roma-4d"/>
      <use transform="translate(94.046769 0)scale(0.996264)" xlink:href="#CenturySchL-Roma-61"/>
      <use transform="translate(149.438446 0)scale(0.996264)" xlink:href="#CenturySchL-Roma-78"/>
      <use transform="translate(230.63296 0)scale(0.996264)" xlink:href="#CenturySchL-Roma-48"/>
      <use transform="translate(313.62139 0)scale(0.996264)" xlink:href="#CenturySchL-Roma-65"/>
      <use transform="translate(363.43459 0)scale(0.996264)" xlink:href="#CenturySchL-Roma-69"/>
      <use transform="translate(394.815903 0)scale(0.996264)" xlink:href="#CenturySchL-Roma-67"/>
      <use transform="translate(448.315247 0)scale(0.996264)" xlink:href="#CenturySchL-Roma-68"/>
      <use transform="translate(509.186878 0)scale(0.996264)" xlink:href="#CenturySchL-Roma-74"/>
      <use transform="translate(575.635754 0)scale(0.996264)" xlink:href="#CenturySchL-Roma-52"/>
      <use transform="translate(647.565739 0)scale(0.996264)" xlink:href="#CenturySchL-Roma-65"/>
      <use transform="translate(697.378939 0)scale(0.996264)" xlink:href="#CenturySchL-Roma-77"/>
      <use transform="translate(773.09473 0)scale(0.996264)" xlink:href="#CenturySchL-Roma-61"/>
      <use transform="translate(828.486407 0)scale(0.996264)" xlink:href="#CenturySchL-Roma-72"/>
      <use transform="translate(872.719976 0)scale(0.996264)" xlink:href="#CenturySchL-Roma-64"/>
     </g>
    </g>
   </g>
   <g id="PolyCollection_1">
    <path clip-path="url(#pce5642323c)" d="M 87.270456 187.305907 
L 87.270456 228.751496 
L 88.326339 224.825126 
L 89.382223 220.489566 
L 90.438106 216.626826 
L 91.493989 214.67589 
L 92.549873 213.181224 
L 93.605756 213.352094 
L 94.66164 212.372781 
L 95.717523 211.502028 
L 96.773407 211.208575 
L 97.82929 210.767043 
L 98.885173 210.232057 
L 99.941057 210.755525 
L 100.99694 210.349698 
L 102.052824 210.118494 
L 103.108707 210.160459 
L 104.164591 210.182525 
L 105.220474 209.958844 
L 106.276357 209.62937 
L 107.332241 209.429307 
L 108.388124 209.246655 
L 109.444008 209.293484 
L 110.499891 209.216698 
L 111.555774 209.214536 
L 112.611658 209.416053 
L 113.667541 207.241948 
L 114.723425 205.008046 
L 115.779308 203.203603 
L 116.835192 201.414868 
L 117.891075 199.671243 
L 118.946958 198.188148 
L 120.002842 196.50431 
L 121.058725 195.321289 
L 122.114609 194.318491 
L 123.170492 193.094215 
L 124.226376 192.446656 
L 125.282259 191.761397 
L 126.338142 191.04328 
L 127.394026 190.592938 
L 128.449909 190.200577 
L 129.505793 189.667897 
L 130.561676 189.361772 
L 131.617559 189.168844 
L 132.673443 189.062303 
L 133.729326 188.940486 
L 134.78521 188.746631 
L 135.841093 188.260912 
L 136.896977 187.752526 
L 137.95286 186.969745 
L 139.008743 186.098104 
L 140.064627 187.354448 
L 141.12051 188.437527 
L 142.176394 189.325443 
L 143.232277 190.002639 
L 144.288161 190.452147 
L 145.344044 190.669892 
L 146.399927 190.63858 
L 147.455811 190.337662 
L 148.511694 189.749728 
L 149.567578 188.852188 
L 150.623461 187.657556 
L 151.679344 186.170865 
L 152.735228 184.365673 
L 153.791111 182.28225 
L 154.846995 179.961432 
L 155.902878 177.420546 
L 156.958762 174.664611 
L 158.014645 171.736097 
L 159.070528 168.674788 
L 160.126412 165.506363 
L 161.182295 162.269972 
L 162.238179 158.987103 
L 163.294062 155.661221 
L 164.349946 152.334573 
L 165.405829 149.019998 
L 166.461712 145.759994 
L 167.517596 142.586315 
L 168.573479 139.504565 
L 169.629363 136.516877 
L 170.685246 133.613648 
L 171.741129 130.790993 
L 172.797013 128.046393 
L 173.852896 125.41108 
L 174.90878 122.92609 
L 175.964663 120.582355 
L 177.020547 118.360141 
L 178.07643 116.276551 
L 179.132313 114.368914 
L 180.188197 112.613111 
L 181.24408 110.988066 
L 182.299964 109.496541 
L 183.355847 108.176731 
L 184.411731 106.995251 
L 185.467614 105.941236 
L 186.523497 105.020178 
L 187.579381 104.205917 
L 188.635264 103.468518 
L 189.691148 102.789683 
L 190.747031 102.121018 
L 191.802914 101.522631 
L 192.858798 100.945208 
L 193.914681 100.417927 
L 194.970565 99.920081 
L 196.026448 99.439536 
L 197.082332 98.95759 
L 198.138215 98.469369 
L 199.194098 97.957784 
L 200.249982 97.42994 
L 201.305865 96.910055 
L 202.361749 96.411037 
L 203.417632 95.886948 
L 204.473516 95.39095 
L 205.529399 94.921764 
L 206.585282 94.464632 
L 207.641166 94.012955 
L 208.697049 93.571827 
L 209.752933 93.11571 
L 210.808816 92.695617 
L 211.864699 92.283423 
L 212.920583 91.887963 
L 213.976466 91.513371 
L 215.03235 91.169442 
L 216.088233 90.860133 
L 217.144117 90.603337 
L 218.2 90.363258 
L 219.255883 90.137134 
L 220.311767 89.919828 
L 221.36765 89.72471 
L 222.423534 89.561335 
L 223.479417 89.434325 
L 224.535301 89.335137 
L 225.591184 89.264965 
L 226.647067 89.215241 
L 227.702951 89.166745 
L 228.758834 89.114059 
L 229.814718 89.085851 
L 230.870601 89.048313 
L 231.926484 89.010539 
L 232.982368 88.962659 
L 234.038251 88.920209 
L 235.094135 88.879191 
L 236.150018 88.839537 
L 237.205902 88.795892 
L 238.261785 88.770947 
L 239.317668 88.749789 
L 240.373552 88.727797 
L 241.429435 88.710943 
L 242.485319 88.68908 
L 243.541202 88.664577 
L 244.597086 88.63659 
L 245.652969 88.618691 
L 246.708852 88.605171 
L 247.764736 88.593305 
L 248.820619 88.579874 
L 249.876503 88.561855 
L 250.932386 88.55402 
L 251.988269 88.548775 
L 253.044153 88.536671 
L 254.100036 88.517616 
L 255.15592 88.502958 
L 256.211803 88.485366 
L 257.267687 88.473708 
L 258.32357 88.453069 
L 259.379453 88.434631 
L 260.435337 88.420379 
L 261.49122 88.413873 
L 262.547104 88.405613 
L 263.602987 88.399582 
L 264.658871 88.388246 
L 265.714754 88.370965 
L 266.770637 88.357033 
L 267.826521 88.341261 
L 268.882404 88.335184 
L 269.938288 88.324317 
L 270.994171 88.31965 
L 272.050054 88.306604 
L 273.105938 88.291272 
L 274.161821 88.27833 
L 275.217705 88.268406 
L 276.273588 88.263125 
L 277.329472 88.241177 
L 278.385355 88.220415 
L 279.441238 88.196552 
L 280.497122 88.184086 
L 281.553005 88.173947 
L 282.608889 88.167937 
L 283.664772 88.165886 
L 284.720656 88.164531 
L 285.776539 88.158602 
L 286.832422 88.15852 
L 287.888306 88.147857 
L 288.944189 88.148748 
L 290.000073 88.14226 
L 291.055956 88.132748 
L 292.111839 88.131017 
L 293.167723 88.125038 
L 294.223606 88.113761 
L 295.27949 88.106513 
L 296.335373 88.089653 
L 297.391257 88.074513 
L 298.44714 88.067026 
L 299.503023 88.060149 
L 300.558907 88.046885 
L 301.61479 88.03345 
L 302.670674 88.02484 
L 303.726557 88.018333 
L 304.782441 88.018011 
L 305.838324 88.01708 
L 306.894207 88.013778 
L 307.950091 88.002593 
L 309.005974 87.996732 
L 310.061858 87.980858 
L 311.117741 87.96641 
L 312.173624 87.96498 
L 313.229508 87.954536 
L 314.285391 87.950356 
L 315.341275 87.942256 
L 316.397158 87.939211 
L 317.453042 87.937705 
L 318.508925 87.930247 
L 319.564808 87.918837 
L 320.620692 87.912294 
L 321.676575 87.902684 
L 322.732459 87.902456 
L 323.788342 87.894512 
L 324.844226 87.884444 
L 325.900109 87.882772 
L 326.955992 87.883182 
L 328.011876 87.884644 
L 329.067759 87.875121 
L 330.123643 87.871892 
L 331.179526 87.863942 
L 332.235409 87.85425 
L 333.291293 87.852704 
L 334.347176 87.858206 
L 335.40306 87.856619 
L 336.458943 87.864276 
L 337.514827 87.870517 
L 338.57071 87.870879 
L 339.626593 87.876328 
L 340.682477 87.882336 
L 341.73836 87.887685 
L 342.794244 87.88852 
L 343.850127 87.89438 
L 344.906011 87.89864 
L 345.961894 87.903318 
L 347.017777 87.908192 
L 348.073661 87.911143 
L 349.129544 87.909701 
L 349.129544 83.447518 
L 349.129544 83.447518 
L 348.073661 83.448413 
L 347.017777 83.439235 
L 345.961894 83.434217 
L 344.906011 83.431252 
L 343.850127 83.436323 
L 342.794244 83.432536 
L 341.73836 83.428987 
L 340.682477 83.423576 
L 339.626593 83.41591 
L 338.57071 83.407339 
L 337.514827 83.404341 
L 336.458943 83.399919 
L 335.40306 83.394131 
L 334.347176 83.392306 
L 333.291293 83.389652 
L 332.235409 83.386263 
L 331.179526 83.387217 
L 330.123643 83.388558 
L 329.067759 83.389399 
L 328.011876 83.393416 
L 326.955992 83.390005 
L 325.900109 83.391901 
L 324.844226 83.393684 
L 323.788342 83.399525 
L 322.732459 83.405253 
L 321.676575 83.406519 
L 320.620692 83.412925 
L 319.564808 83.418065 
L 318.508925 83.424517 
L 317.453042 83.427163 
L 316.397158 83.438132 
L 315.341275 83.446914 
L 314.285391 83.461522 
L 313.229508 83.465911 
L 312.173624 83.475484 
L 311.117741 83.479272 
L 310.061858 83.48761 
L 309.005974 83.495803 
L 307.950091 83.500246 
L 306.894207 83.503254 
L 305.838324 83.508935 
L 304.782441 83.512263 
L 303.726557 83.516348 
L 302.670674 83.524499 
L 301.61479 83.535851 
L 300.558907 83.5519 
L 299.503023 83.558678 
L 298.44714 83.568661 
L 297.391257 83.573106 
L 296.335373 83.577269 
L 295.27949 83.586023 
L 294.223606 83.597243 
L 293.167723 83.605148 
L 292.111839 83.604479 
L 291.055956 83.604087 
L 290.000073 83.602822 
L 288.944189 83.601525 
L 287.888306 83.592795 
L 286.832422 83.596054 
L 285.776539 83.587953 
L 284.720656 83.58243 
L 283.664772 83.578225 
L 282.608889 83.578937 
L 281.553005 83.580155 
L 280.497122 83.581639 
L 279.441238 83.584581 
L 278.385355 83.595789 
L 277.329472 83.605229 
L 276.273588 83.608097 
L 275.217705 83.599788 
L 274.161821 83.593838 
L 273.105938 83.59741 
L 272.050054 83.592964 
L 270.994171 83.597099 
L 269.938288 83.597782 
L 268.882404 83.599451 
L 267.826521 83.600054 
L 266.770637 83.6038 
L 265.714754 83.61429 
L 264.658871 83.623283 
L 263.602987 83.630517 
L 262.547104 83.631045 
L 261.49122 83.631886 
L 260.435337 83.63627 
L 259.379453 83.650982 
L 258.32357 83.66047 
L 257.267687 83.673722 
L 256.211803 83.682514 
L 255.15592 83.696328 
L 254.100036 83.71076 
L 253.044153 83.723375 
L 251.988269 83.733034 
L 250.932386 83.729849 
L 249.876503 83.737049 
L 248.820619 83.74379 
L 247.764736 83.760722 
L 246.708852 83.768529 
L 245.652969 83.785145 
L 244.597086 83.803318 
L 243.541202 83.83294 
L 242.485319 83.85802 
L 241.429435 83.870796 
L 240.373552 83.886972 
L 239.317668 83.903792 
L 238.261785 83.920421 
L 237.205902 83.927763 
L 236.150018 83.942197 
L 235.094135 83.963208 
L 234.038251 83.994655 
L 232.982368 84.006857 
L 231.926484 84.025833 
L 230.870601 84.04464 
L 229.814718 84.071769 
L 228.758834 84.093074 
L 227.702951 84.116957 
L 226.647067 84.147687 
L 225.591184 84.170281 
L 224.535301 84.19996 
L 223.479417 84.227402 
L 222.423534 84.260184 
L 221.36765 84.271114 
L 220.311767 84.269988 
L 219.255883 84.247609 
L 218.2 84.204359 
L 217.144117 84.149624 
L 216.088233 84.083312 
L 215.03235 84.028061 
L 213.976466 83.965918 
L 212.920583 83.89152 
L 211.864699 83.799481 
L 210.808816 83.701006 
L 209.752933 83.599478 
L 208.697049 83.494243 
L 207.641166 83.375612 
L 206.585282 83.277256 
L 205.529399 83.181513 
L 204.473516 83.085758 
L 203.417632 82.979766 
L 202.361749 82.870514 
L 201.305865 82.782801 
L 200.249982 82.697611 
L 199.194098 82.611466 
L 198.138215 82.587019 
L 197.082332 82.626764 
L 196.026448 82.723057 
L 194.970565 82.848981 
L 193.914681 82.999782 
L 192.858798 83.153159 
L 191.802914 83.325291 
L 190.747031 83.543261 
L 189.691148 83.809836 
L 188.635264 84.168686 
L 187.579381 84.622256 
L 186.523497 85.140455 
L 185.467614 85.731453 
L 184.411731 86.414789 
L 183.355847 87.176471 
L 182.299964 88.032223 
L 181.24408 89.000094 
L 180.188197 90.047586 
L 179.132313 91.168005 
L 178.07643 92.396635 
L 177.020547 93.771377 
L 175.964663 95.232545 
L 174.90878 96.795708 
L 173.852896 98.511456 
L 172.797013 100.34463 
L 171.741129 102.324932 
L 170.685246 104.417613 
L 169.629363 106.611391 
L 168.573479 108.940711 
L 167.517596 111.385548 
L 166.461712 113.986186 
L 165.405829 116.706888 
L 164.349946 119.572713 
L 163.294062 122.558964 
L 162.238179 125.605707 
L 161.182295 128.73189 
L 160.126412 131.93311 
L 159.070528 135.194116 
L 158.014645 138.471799 
L 156.958762 141.716956 
L 155.902878 144.898455 
L 154.846995 147.992976 
L 153.791111 150.996388 
L 152.735228 153.877996 
L 151.679344 156.586177 
L 150.623461 159.060619 
L 149.567578 161.336924 
L 148.511694 163.402457 
L 147.455811 165.201785 
L 146.399927 166.767675 
L 145.344044 168.061672 
L 144.288161 169.115091 
L 143.232277 169.934813 
L 142.176394 170.508712 
L 141.12051 170.846318 
L 140.064627 170.955163 
L 139.008743 170.860544 
L 137.95286 172.874263 
L 136.896977 174.516808 
L 135.841093 175.909647 
L 134.78521 177.260219 
L 133.729326 178.269268 
L 132.673443 179.225954 
L 131.617559 179.992589 
L 130.561676 180.713901 
L 129.505793 181.773437 
L 128.449909 182.563336 
L 127.394026 183.273969 
L 126.338142 184.086303 
L 125.282259 185.104118 
L 124.226376 185.864897 
L 123.170492 186.937997 
L 122.114609 188.106256 
L 121.058725 189.366115 
L 120.002842 190.441472 
L 118.946958 192.061033 
L 117.891075 193.64115 
L 116.835192 195.131008 
L 115.779308 196.464332 
L 114.723425 198.173978 
L 113.667541 200.423818 
L 112.611658 202.405713 
L 111.555774 202.049822 
L 110.499891 201.664419 
L 109.444008 201.530771 
L 108.388124 201.325687 
L 107.332241 201.416989 
L 106.276357 201.456465 
L 105.220474 201.486454 
L 104.164591 201.513842 
L 103.108707 201.073149 
L 102.052824 200.699543 
L 100.99694 200.525931 
L 99.941057 200.134854 
L 98.885173 200.06831 
L 97.82929 199.989855 
L 96.773407 200.016349 
L 95.717523 199.142638 
L 94.66164 198.749681 
L 93.605756 199.276761 
L 92.549873 198.068532 
L 91.493989 196.940373 
L 90.438106 195.774991 
L 89.382223 195.815679 
L 88.326339 196.59404 
L 87.270456 187.305907 
z
" style="fill:#e41a1c;fill-opacity:0.25;"/>
   </g>
   <g id="line2d_21">
    <path clip-path="url(#pce5642323c)" d="M 87.270456 208.028702 
L 88.326339 210.709583 
L 89.382223 208.152622 
L 90.438106 206.200908 
L 91.493989 205.808131 
L 92.549873 205.624878 
L 93.605756 206.314428 
L 94.66164 205.561231 
L 95.717523 205.322333 
L 96.773407 205.612462 
L 98.885173 205.150183 
L 99.941057 205.44519 
L 102.052824 205.409018 
L 104.164591 205.848184 
L 108.388124 205.286171 
L 111.555774 205.632179 
L 112.611658 205.910883 
L 115.779308 199.833968 
L 120.002842 193.472891 
L 123.170492 190.016106 
L 126.338142 187.564791 
L 130.561676 185.037836 
L 133.729326 183.604877 
L 134.78521 183.003425 
L 136.896977 181.134667 
L 137.95286 179.922004 
L 139.008743 178.479324 
L 140.064627 179.154805 
L 141.12051 179.641922 
L 142.176394 179.917078 
L 143.232277 179.968726 
L 144.288161 179.783619 
L 145.344044 179.365782 
L 146.399927 178.703128 
L 147.455811 177.769724 
L 148.511694 176.576093 
L 149.567578 175.094556 
L 150.623461 173.359088 
L 151.679344 171.378521 
L 153.791111 166.639319 
L 155.902878 161.159501 
L 159.070528 151.934452 
L 165.405829 132.863443 
L 168.573479 124.222638 
L 170.685246 119.015631 
L 172.797013 114.195511 
L 174.90878 109.860899 
L 177.020547 106.065759 
L 179.132313 102.76846 
L 181.24408 99.99408 
L 183.355847 97.676601 
L 185.467614 95.836345 
L 187.579381 94.414087 
L 189.691148 93.29976 
L 191.802914 92.423961 
L 194.970565 91.384531 
L 199.194098 90.284625 
L 205.529399 89.051638 
L 212.920583 87.889742 
L 217.144117 87.376481 
L 225.591184 86.717623 
L 240.373552 86.307385 
L 268.882404 85.967318 
L 339.626593 85.646119 
L 349.129544 85.67861 
L 349.129544 85.67861 
" style="fill:none;stroke:#e41a1c;stroke-linecap:square;stroke-width:2;"/>
   </g>
   <g id="patch_3">
    <path d="M 74.177501 236.05972 
L 74.177501 13.852984 
" style="fill:none;stroke:#000000;stroke-linecap:square;stroke-linejoin:miter;stroke-width:0.8;"/>
   </g>
   <g id="patch_4">
    <path d="M 362.222499 236.05972 
L 362.222499 13.852984 
" style="fill:none;stroke:#000000;stroke-linecap:square;stroke-linejoin:miter;stroke-width:0.8;"/>
   </g>
   <g id="patch_5">
    <path d="M 74.177501 236.05972 
L 362.222499 236.05972 
" style="fill:none;stroke:#000000;stroke-linecap:square;stroke-linejoin:miter;stroke-width:0.8;"/>
   </g>
  </g>
  <g id="axes_2">
   <g id="matplotlib.axis_3">
    <g id="ytick_6">
     <g id="line2d_22">
      <path clip-path="url(#pce5642323c)" d="M 74.177501 216.262524 
L 362.222499 216.262524 
" style="fill:none;stroke:#bfbfbf;stroke-dasharray:0.8,2.4;stroke-dashoffset:0;stroke-linecap:round;stroke-linejoin:miter;stroke-width:0.8;"/>
     </g>
     <g id="line2d_23">
      <defs>
       <path d="M 0 0 
L 3.5 0 
" id="m4121708fcc" style="stroke:#000000;stroke-width:0.8;"/>
      </defs>
      <g>
       <use style="stroke:#000000;stroke-width:0.8;" x="362.222499" xlink:href="#m4121708fcc" y="216.262524"/>
      </g>
     </g>
     <g id="text_13">
      <!-- $\mathdefault{0.90}$ -->
      <g transform="translate(369.222499 222.915508)scale(0.18 -0.18)">
       <use transform="scale(0.996264)" xlink:href="#CMR17-30"/>
       <use transform="translate(45.690477 0)scale(0.996264)" xlink:href="#CMMI12-3a"/>
       <use transform="translate(72.787654 0)scale(0.996264)" xlink:href="#CMR17-39"/>
       <use transform="translate(118.478131 0)scale(0.996264)" xlink:href="#CMR17-30"/>
      </g>
     </g>
    </g>
    <g id="ytick_7">
     <g id="line2d_24">
      <path clip-path="url(#pce5642323c)" d="M 74.177501 158.431227 
L 362.222499 158.431227 
" style="fill:none;stroke:#bfbfbf;stroke-dasharray:0.8,2.4;stroke-dashoffset:0;stroke-linecap:round;stroke-linejoin:miter;stroke-width:0.8;"/>
     </g>
     <g id="line2d_25">
      <g>
       <use style="stroke:#000000;stroke-width:0.8;" x="362.222499" xlink:href="#m4121708fcc" y="158.431227"/>
      </g>
     </g>
     <g id="text_14">
      <!-- $\mathdefault{0.95}$ -->
      <g transform="translate(369.222499 165.084211)scale(0.18 -0.18)">
       <use transform="scale(0.996264)" xlink:href="#CMR17-30"/>
       <use transform="translate(45.690477 0)scale(0.996264)" xlink:href="#CMMI12-3a"/>
       <use transform="translate(72.787654 0)scale(0.996264)" xlink:href="#CMR17-39"/>
       <use transform="translate(118.478131 0)scale(0.996264)" xlink:href="#CMR17-35"/>
      </g>
     </g>
    </g>
    <g id="ytick_8">
     <g id="line2d_26">
      <path clip-path="url(#pce5642323c)" d="M 74.177501 100.59993 
L 362.222499 100.59993 
" style="fill:none;stroke:#bfbfbf;stroke-dasharray:0.8,2.4;stroke-dashoffset:0;stroke-linecap:round;stroke-linejoin:miter;stroke-width:0.8;"/>
     </g>
     <g id="line2d_27">
      <g>
       <use style="stroke:#000000;stroke-width:0.8;" x="362.222499" xlink:href="#m4121708fcc" y="100.59993"/>
      </g>
     </g>
     <g id="text_15">
      <!-- $\mathdefault{1.00}$ -->
      <g transform="translate(369.222499 107.252914)scale(0.18 -0.18)">
       <use transform="scale(0.996264)" xlink:href="#CMR17-31"/>
       <use transform="translate(45.690477 0)scale(0.996264)" xlink:href="#CMMI12-3a"/>
       <use transform="translate(72.787654 0)scale(0.996264)" xlink:href="#CMR17-30"/>
       <use transform="translate(118.478131 0)scale(0.996264)" xlink:href="#CMR17-30"/>
      </g>
     </g>
    </g>
    <g id="ytick_9">
     <g id="line2d_28">
      <path clip-path="url(#pce5642323c)" d="M 74.177501 42.768633 
L 362.222499 42.768633 
" style="fill:none;stroke:#bfbfbf;stroke-dasharray:0.8,2.4;stroke-dashoffset:0;stroke-linecap:round;stroke-linejoin:miter;stroke-width:0.8;"/>
     </g>
     <g id="line2d_29">
      <g>
       <use style="stroke:#000000;stroke-width:0.8;" x="362.222499" xlink:href="#m4121708fcc" y="42.768633"/>
      </g>
     </g>
     <g id="text_16">
      <!-- $\mathdefault{1.05}$ -->
      <g transform="translate(369.222499 49.421617)scale(0.18 -0.18)">
       <use transform="scale(0.996264)" xlink:href="#CMR17-31"/>
       <use transform="translate(45.690477 0)scale(0.996264)" xlink:href="#CMMI12-3a"/>
       <use transform="translate(72.787654 0)scale(0.996264)" xlink:href="#CMR17-30"/>
       <use transform="translate(118.478131 0)scale(0.996264)" xlink:href="#CMR17-35"/>
      </g>
     </g>
    </g>
    <g id="text_17">
     <!-- 0.1m Height Reward -->
     <g transform="translate(425.0357 229.897737)rotate(-90)scale(0.22 -0.22)">
      <defs>
       <path d="M 1818 4544 
C 922 4544 269 3564 269 2224 
C 269 904 902 -64 1766 -64 
C 2662 -64 3290 872 3290 2204 
C 3290 2884 3149 3448 2880 3890 
C 2630 4294 2221 4544 1818 4544 
z
M 1773 4269 
C 1984 4269 2189 4128 2342 3872 
C 2515 3576 2573 3198 2573 2320 
C 2573 1422 2528 1000 2400 717 
C 2253 403 2022 211 1779 211 
C 1568 211 1363 352 1210 608 
C 1030 910 979 1314 979 2359 
C 979 3103 1024 3480 1152 3756 
C 1299 4083 1530 4269 1773 4269 
z
" id="CenturySchL-Roma-30" transform="scale(0.015625)"/>
       <path d="M 877 734 
C 653 734 474 555 474 338 
C 474 114 653 -64 870 -64 
C 1094 -64 1274 114 1274 338 
C 1274 555 1094 734 877 734 
z
" id="CenturySchL-Roma-2e" transform="scale(0.015625)"/>
       <path d="M 2061 4512 
C 1843 4239 1254 4032 666 4032 
L 666 3750 
L 1229 3750 
C 1600 3750 1626 3725 1626 3348 
L 1626 786 
L 1626 600 
C 1626 332 1568 300 1056 300 
L 640 300 
L 640 0 
L 3174 0 
L 3174 300 
L 2822 300 
C 2483 300 2342 326 2291 390 
C 2246 434 2246 434 2246 788 
L 2246 3435 
C 2246 3749 2259 4056 2291 4512 
L 2061 4512 
z
" id="CenturySchL-Roma-31" transform="scale(0.015625)"/>
       <path d="M 1286 2944 
L 147 2944 
L 147 2638 
L 410 2638 
C 646 2638 685 2593 685 2317 
L 685 787 
L 685 538 
C 685 275 614 230 205 230 
L 179 230 
L 179 0 
L 1792 0 
L 1792 230 
L 1766 230 
C 1357 230 1286 275 1286 537 
L 1286 786 
L 1286 1693 
C 1286 2261 1600 2683 2016 2683 
C 2182 2683 2362 2593 2438 2472 
C 2528 2351 2566 2165 2566 1903 
L 2566 786 
L 2566 530 
C 2566 275 2496 230 2080 230 
L 2054 230 
L 2054 0 
L 3674 0 
L 3674 230 
L 3648 230 
C 3238 230 3168 275 3168 530 
L 3168 786 
L 3168 1635 
C 3168 2274 3456 2683 3904 2683 
C 4115 2683 4288 2561 4371 2363 
C 4429 2223 4448 2082 4448 1833 
L 4448 786 
L 4448 530 
C 4448 275 4378 230 3962 230 
L 3936 230 
L 3936 0 
L 5555 0 
L 5555 230 
L 5530 230 
C 5120 230 5050 275 5050 537 
L 5050 786 
L 5050 1961 
C 5050 2357 5011 2491 4845 2708 
C 4659 2945 4397 3072 4090 3072 
C 3674 3072 3366 2876 3091 2439 
C 2982 2819 2637 3072 2208 3072 
C 1824 3072 1536 2889 1286 2491 
L 1286 2944 
z
" id="CenturySchL-Roma-6d" transform="scale(0.015625)"/>
      </defs>
      <use transform="scale(0.996264)" xlink:href="#CenturySchL-Roma-30"/>
      <use transform="translate(55.391677 0)scale(0.996264)" xlink:href="#CenturySchL-Roma-2e"/>
      <use transform="translate(83.086847 0)scale(0.996264)" xlink:href="#CenturySchL-Roma-31"/>
      <use transform="translate(138.478524 0)scale(0.996264)" xlink:href="#CenturySchL-Roma-6d"/>
      <use transform="translate(254.7406 0)scale(0.996264)" xlink:href="#CenturySchL-Roma-48"/>
      <use transform="translate(337.72903 0)scale(0.996264)" xlink:href="#CenturySchL-Roma-65"/>
      <use transform="translate(387.542231 0)scale(0.996264)" xlink:href="#CenturySchL-Roma-69"/>
      <use transform="translate(418.923544 0)scale(0.996264)" xlink:href="#CenturySchL-Roma-67"/>
      <use transform="translate(472.422887 0)scale(0.996264)" xlink:href="#CenturySchL-Roma-68"/>
      <use transform="translate(533.294518 0)scale(0.996264)" xlink:href="#CenturySchL-Roma-74"/>
      <use transform="translate(599.743394 0)scale(0.996264)" xlink:href="#CenturySchL-Roma-52"/>
      <use transform="translate(671.673379 0)scale(0.996264)" xlink:href="#CenturySchL-Roma-65"/>
      <use transform="translate(721.486579 0)scale(0.996264)" xlink:href="#CenturySchL-Roma-77"/>
      <use transform="translate(797.20237 0)scale(0.996264)" xlink:href="#CenturySchL-Roma-61"/>
      <use transform="translate(852.594047 0)scale(0.996264)" xlink:href="#CenturySchL-Roma-72"/>
      <use transform="translate(896.827616 0)scale(0.996264)" xlink:href="#CenturySchL-Roma-64"/>
     </g>
    </g>
   </g>
   <g id="PolyCollection_2">
    <defs>
     <path d="M 87.270456 -112.254007 
L 87.270456 -62.883242 
L 88.326339 -67.397674 
L 89.382223 -72.918202 
L 90.438106 -76.072062 
L 91.493989 -78.688642 
L 92.549873 -80.955525 
L 93.605756 -81.346874 
L 94.66164 -82.381588 
L 95.717523 -83.331756 
L 96.773407 -83.803401 
L 97.82929 -84.216656 
L 98.885173 -84.866679 
L 99.941057 -83.982004 
L 100.99694 -84.396055 
L 102.052824 -84.926371 
L 103.108707 -84.898838 
L 104.164591 -84.843877 
L 105.220474 -85.12299 
L 106.276357 -85.661764 
L 107.332241 -86.096354 
L 108.388124 -86.335101 
L 109.444008 -86.414627 
L 110.499891 -86.388111 
L 111.555774 -86.584424 
L 112.611658 -86.460765 
L 113.667541 -89.377631 
L 114.723425 -92.464159 
L 115.779308 -95.185309 
L 116.835192 -98.112099 
L 117.891075 -100.916491 
L 118.946958 -103.463463 
L 120.002842 -106.066375 
L 121.058725 -108.51232 
L 122.114609 -110.730892 
L 123.170492 -113.255858 
L 124.226376 -115.709365 
L 125.282259 -118.156754 
L 126.338142 -120.489257 
L 127.394026 -122.311778 
L 128.449909 -124.054722 
L 129.505793 -125.701743 
L 130.561676 -127.237929 
L 131.617559 -128.054167 
L 132.673443 -128.498449 
L 133.729326 -128.773216 
L 134.78521 -128.933587 
L 135.841093 -129.123271 
L 136.896977 -129.191219 
L 137.95286 -129.085264 
L 139.008743 -129.442905 
L 140.064627 -126.445915 
L 141.12051 -123.274071 
L 142.176394 -119.93461 
L 143.232277 -116.458819 
L 144.288161 -112.792995 
L 145.344044 -108.94599 
L 146.399927 -105.155122 
L 147.455811 -101.505696 
L 148.511694 -98.07268 
L 149.567578 -94.877745 
L 150.623461 -91.922894 
L 151.679344 -89.220175 
L 152.735228 -86.814938 
L 153.791111 -84.731116 
L 154.846995 -82.964425 
L 155.902878 -81.493989 
L 156.958762 -80.266702 
L 158.014645 -79.25159 
L 159.070528 -78.433261 
L 160.126412 -77.770636 
L 161.182295 -77.22888 
L 162.238179 -76.782565 
L 163.294062 -76.413777 
L 164.349946 -76.102363 
L 165.405829 -75.832593 
L 166.461712 -75.595167 
L 167.517596 -75.387188 
L 168.573479 -75.205277 
L 169.629363 -75.045138 
L 170.685246 -74.911382 
L 171.741129 -74.814825 
L 172.797013 -74.735305 
L 173.852896 -74.669623 
L 174.90878 -74.616238 
L 175.964663 -74.571894 
L 177.020547 -74.53623 
L 178.07643 -74.511593 
L 179.132313 -74.498446 
L 180.188197 -74.49497 
L 181.24408 -74.499867 
L 182.299964 -74.51141 
L 183.355847 -74.532611 
L 184.411731 -74.566715 
L 185.467614 -74.616413 
L 186.523497 -74.684764 
L 187.579381 -74.773531 
L 188.635264 -74.887442 
L 189.691148 -75.032303 
L 190.747031 -75.213579 
L 191.802914 -75.439505 
L 192.858798 -75.722666 
L 193.914681 -76.07829 
L 194.970565 -76.508811 
L 196.026448 -76.969555 
L 197.082332 -77.453243 
L 198.138215 -78.00247 
L 199.194098 -78.638132 
L 200.249982 -79.362731 
L 201.305865 -80.152506 
L 202.361749 -80.968484 
L 203.417632 -81.809494 
L 204.473516 -82.67948 
L 205.529399 -83.54407 
L 206.585282 -84.409127 
L 207.641166 -85.331634 
L 208.697049 -86.323404 
L 209.752933 -87.347549 
L 210.808816 -88.440445 
L 211.864699 -89.430875 
L 212.920583 -90.39768 
L 213.976466 -91.362799 
L 215.03235 -92.35735 
L 216.088233 -93.409067 
L 217.144117 -94.487915 
L 218.2 -95.538014 
L 219.255883 -96.660407 
L 220.311767 -97.870545 
L 221.36765 -99.094588 
L 222.423534 -100.306512 
L 223.479417 -101.521073 
L 224.535301 -102.790864 
L 225.591184 -104.090588 
L 226.647067 -105.346083 
L 227.702951 -106.567172 
L 228.758834 -107.825973 
L 229.814718 -109.1075 
L 230.870601 -110.330822 
L 231.926484 -111.540833 
L 232.982368 -112.72114 
L 234.038251 -113.883237 
L 235.094135 -115.050158 
L 236.150018 -116.194382 
L 237.205902 -117.32078 
L 238.261785 -118.432724 
L 239.317668 -119.511486 
L 240.373552 -120.626574 
L 241.429435 -121.775395 
L 242.485319 -122.910031 
L 243.541202 -124.046639 
L 244.597086 -125.245364 
L 245.652969 -126.418311 
L 246.708852 -127.575031 
L 247.764736 -128.71645 
L 248.820619 -129.804221 
L 249.876503 -130.911863 
L 250.932386 -132.00711 
L 251.988269 -132.957151 
L 253.044153 -133.841548 
L 254.100036 -134.758857 
L 255.15592 -135.710206 
L 256.211803 -136.585821 
L 257.267687 -137.47454 
L 258.32357 -138.417399 
L 259.379453 -139.419171 
L 260.435337 -140.392772 
L 261.49122 -141.212984 
L 262.547104 -142.025441 
L 263.602987 -142.867243 
L 264.658871 -143.756268 
L 265.714754 -144.618057 
L 266.770637 -145.417041 
L 267.826521 -146.161103 
L 268.882404 -146.855463 
L 269.938288 -147.530649 
L 270.994171 -148.203591 
L 272.050054 -148.912723 
L 273.105938 -149.641588 
L 274.161821 -150.237225 
L 275.217705 -150.859427 
L 276.273588 -151.522423 
L 277.329472 -152.169146 
L 278.385355 -152.826688 
L 279.441238 -153.49536 
L 280.497122 -154.144993 
L 281.553005 -154.719969 
L 282.608889 -155.294507 
L 283.664772 -155.882187 
L 284.720656 -156.465054 
L 285.776539 -157.000711 
L 286.832422 -157.448868 
L 287.888306 -157.978305 
L 288.944189 -158.537733 
L 290.000073 -159.04765 
L 291.055956 -159.548169 
L 292.111839 -160.147464 
L 293.167723 -160.70108 
L 294.223606 -161.277962 
L 295.27949 -161.914917 
L 296.335373 -162.473136 
L 297.391257 -162.958962 
L 298.44714 -163.439166 
L 299.503023 -163.865557 
L 300.558907 -164.303464 
L 301.61479 -164.726412 
L 302.670674 -165.114954 
L 303.726557 -165.485689 
L 304.782441 -165.891563 
L 305.838324 -166.325577 
L 306.894207 -166.76808 
L 307.950091 -167.169665 
L 309.005974 -167.530151 
L 310.061858 -167.86639 
L 311.117741 -168.193822 
L 312.173624 -168.506773 
L 313.229508 -168.857583 
L 314.285391 -169.204586 
L 315.341275 -169.526744 
L 316.397158 -169.803209 
L 317.453042 -170.074174 
L 318.508925 -170.298168 
L 319.564808 -170.526402 
L 320.620692 -170.746575 
L 321.676575 -170.920011 
L 322.732459 -171.126247 
L 323.788342 -171.35459 
L 324.844226 -171.533585 
L 325.900109 -171.721954 
L 326.955992 -171.937225 
L 328.011876 -172.143844 
L 329.067759 -172.344747 
L 330.123643 -172.547308 
L 331.179526 -172.735045 
L 332.235409 -172.909757 
L 333.291293 -173.064942 
L 334.347176 -173.233687 
L 335.40306 -173.411487 
L 336.458943 -173.613778 
L 337.514827 -173.827479 
L 338.57071 -173.984614 
L 339.626593 -174.14682 
L 340.682477 -174.321 
L 341.73836 -174.475388 
L 342.794244 -174.608868 
L 343.850127 -174.728047 
L 344.906011 -174.862412 
L 345.961894 -175.017444 
L 347.017777 -175.145958 
L 348.073661 -175.25132 
L 349.129544 -175.341377 
L 349.129544 -193.742479 
L 349.129544 -193.742479 
L 348.073661 -193.705834 
L 347.017777 -193.65622 
L 345.961894 -193.616023 
L 344.906011 -193.562773 
L 343.850127 -193.526955 
L 342.794244 -193.483495 
L 341.73836 -193.428561 
L 340.682477 -193.382281 
L 339.626593 -193.324055 
L 338.57071 -193.254255 
L 337.514827 -193.187185 
L 336.458943 -193.130348 
L 335.40306 -193.056639 
L 334.347176 -192.98614 
L 333.291293 -192.916044 
L 332.235409 -192.863701 
L 331.179526 -192.792726 
L 330.123643 -192.711611 
L 329.067759 -192.633324 
L 328.011876 -192.583264 
L 326.955992 -192.50709 
L 325.900109 -192.394673 
L 324.844226 -192.311535 
L 323.788342 -192.246446 
L 322.732459 -192.141772 
L 321.676575 -192.074683 
L 320.620692 -192.029761 
L 319.564808 -191.960465 
L 318.508925 -191.88135 
L 317.453042 -191.802167 
L 316.397158 -191.66215 
L 315.341275 -191.517733 
L 314.285391 -191.42107 
L 313.229508 -191.309526 
L 312.173624 -191.183007 
L 311.117741 -191.054697 
L 310.061858 -190.91493 
L 309.005974 -190.765043 
L 307.950091 -190.601317 
L 306.894207 -190.429484 
L 305.838324 -190.257082 
L 304.782441 -190.07981 
L 303.726557 -189.911725 
L 302.670674 -189.76244 
L 301.61479 -189.614314 
L 300.558907 -189.424186 
L 299.503023 -189.234139 
L 298.44714 -189.082396 
L 297.391257 -188.888816 
L 296.335373 -188.674822 
L 295.27949 -188.41704 
L 294.223606 -188.159419 
L 293.167723 -187.91619 
L 292.111839 -187.665387 
L 291.055956 -187.425991 
L 290.000073 -187.219499 
L 288.944189 -186.968663 
L 287.888306 -186.663132 
L 286.832422 -186.363548 
L 285.776539 -186.14663 
L 284.720656 -185.905687 
L 283.664772 -185.609839 
L 282.608889 -185.268053 
L 281.553005 -184.931194 
L 280.497122 -184.610012 
L 279.441238 -184.222088 
L 278.385355 -183.804321 
L 277.329472 -183.436614 
L 276.273588 -183.133422 
L 275.217705 -182.782039 
L 274.161821 -182.435046 
L 273.105938 -182.118016 
L 272.050054 -181.768455 
L 270.994171 -181.40708 
L 269.938288 -181.060501 
L 268.882404 -180.652152 
L 267.826521 -180.21026 
L 266.770637 -179.728752 
L 265.714754 -179.178475 
L 264.658871 -178.577309 
L 263.602987 -177.977755 
L 262.547104 -177.406837 
L 261.49122 -176.822091 
L 260.435337 -176.204713 
L 259.379453 -175.500748 
L 258.32357 -174.81477 
L 257.267687 -174.139247 
L 256.211803 -173.440014 
L 255.15592 -172.752553 
L 254.100036 -172.004657 
L 253.044153 -171.213075 
L 251.988269 -170.450473 
L 250.932386 -169.676855 
L 249.876503 -168.784981 
L 248.820619 -167.80429 
L 247.764736 -166.786906 
L 246.708852 -165.761734 
L 245.652969 -164.717651 
L 244.597086 -163.580752 
L 243.541202 -162.307752 
L 242.485319 -161.051874 
L 241.429435 -159.746211 
L 240.373552 -158.349699 
L 239.317668 -156.900329 
L 238.261785 -155.423549 
L 237.205902 -153.892172 
L 236.150018 -152.375035 
L 235.094135 -150.762391 
L 234.038251 -149.106021 
L 232.982368 -147.394253 
L 231.926484 -145.61989 
L 230.870601 -143.857633 
L 229.814718 -142.121443 
L 228.758834 -140.318189 
L 227.702951 -138.525446 
L 226.647067 -136.762139 
L 225.591184 -134.932787 
L 224.535301 -133.01918 
L 223.479417 -131.08351 
L 222.423534 -129.150687 
L 221.36765 -127.242898 
L 220.311767 -125.354226 
L 219.255883 -123.434917 
L 218.2 -121.508286 
L 217.144117 -119.635665 
L 216.088233 -117.808507 
L 215.03235 -116.063891 
L 213.976466 -114.41177 
L 212.920583 -112.8629 
L 211.864699 -111.401377 
L 210.808816 -110.050933 
L 209.752933 -108.801175 
L 208.697049 -107.672935 
L 207.641166 -106.640856 
L 206.585282 -105.701676 
L 205.529399 -104.870119 
L 204.473516 -104.109224 
L 203.417632 -103.41905 
L 202.361749 -102.831714 
L 201.305865 -102.326886 
L 200.249982 -101.873942 
L 199.194098 -101.480124 
L 198.138215 -101.155357 
L 197.082332 -100.891707 
L 196.026448 -100.676447 
L 194.970565 -100.485455 
L 193.914681 -100.316825 
L 192.858798 -100.185815 
L 191.802914 -100.083184 
L 190.747031 -99.999262 
L 189.691148 -99.929302 
L 188.635264 -99.872505 
L 187.579381 -99.829128 
L 186.523497 -99.799822 
L 185.467614 -99.785876 
L 184.411731 -99.789663 
L 183.355847 -99.813421 
L 182.299964 -99.860483 
L 181.24408 -99.928208 
L 180.188197 -100.002883 
L 179.132313 -100.08808 
L 178.07643 -100.18864 
L 177.020547 -100.311088 
L 175.964663 -100.459853 
L 174.90878 -100.619106 
L 173.852896 -100.779883 
L 172.797013 -100.943583 
L 171.741129 -101.114841 
L 170.685246 -101.312607 
L 169.629363 -101.617266 
L 168.573479 -101.979514 
L 167.517596 -102.375165 
L 166.461712 -102.824299 
L 165.405829 -103.335173 
L 164.349946 -103.906977 
L 163.294062 -104.541799 
L 162.238179 -105.25107 
L 161.182295 -106.050497 
L 160.126412 -106.945759 
L 159.070528 -107.937784 
L 158.014645 -109.045202 
L 156.958762 -110.292088 
L 155.902878 -111.673676 
L 154.846995 -113.201576 
L 153.791111 -114.902834 
L 152.735228 -116.761414 
L 151.679344 -118.761493 
L 150.623461 -120.869247 
L 149.567578 -123.032739 
L 148.511694 -125.217672 
L 147.455811 -127.423966 
L 146.399927 -129.630793 
L 145.344044 -131.800002 
L 144.288161 -133.946606 
L 143.232277 -136.071735 
L 142.176394 -138.137888 
L 141.12051 -140.121828 
L 140.064627 -142.033843 
L 139.008743 -143.87882 
L 137.95286 -143.166998 
L 136.896977 -142.581388 
L 135.841093 -141.675004 
L 134.78521 -140.989673 
L 133.729326 -140.310341 
L 132.673443 -139.532493 
L 131.617559 -138.743709 
L 130.561676 -137.681494 
L 129.505793 -136.505293 
L 128.449909 -134.897574 
L 127.394026 -133.372396 
L 126.338142 -131.481207 
L 125.282259 -129.132737 
L 124.226376 -127.011724 
L 123.170492 -124.545548 
L 122.114609 -121.80484 
L 121.058725 -118.793309 
L 120.002842 -115.816002 
L 118.946958 -112.451854 
L 117.891075 -109.291208 
L 116.835192 -106.351941 
L 115.779308 -103.662025 
L 114.723425 -101.055312 
L 113.667541 -97.993918 
L 112.611658 -95.375953 
L 111.555774 -95.82802 
L 110.499891 -95.8953 
L 109.444008 -96.137503 
L 108.388124 -96.187287 
L 107.332241 -96.09917 
L 106.276357 -96.150058 
L 105.220474 -96.113004 
L 104.164591 -96.172656 
L 103.108707 -96.593148 
L 102.052824 -97.322438 
L 100.99694 -97.891469 
L 99.941057 -98.268385 
L 98.885173 -98.348917 
L 97.82929 -98.897948 
L 96.773407 -99.21304 
L 95.717523 -99.756504 
L 94.66164 -99.852949 
L 93.605756 -99.663875 
L 92.549873 -100.182317 
L 91.493989 -100.961027 
L 90.438106 -101.953411 
L 89.382223 -102.736257 
L 88.326339 -101.983655 
L 87.270456 -112.254007 
z
" id="m4b9f8433a3" style="stroke:#377eb8;stroke-opacity:0.25;"/>
    </defs>
    <g clip-path="url(#pce5642323c)">
     <use style="fill:#377eb8;fill-opacity:0.25;stroke:#377eb8;stroke-opacity:0.25;" x="0" xlink:href="#m4b9f8433a3" y="292.4"/>
    </g>
   </g>
   <g id="line2d_30">
    <path clip-path="url(#pce5642323c)" d="M 87.270456 204.831375 
L 88.326339 207.709336 
L 89.382223 204.572771 
L 90.438106 203.387263 
L 92.549873 201.831079 
L 93.605756 201.894626 
L 94.66164 201.282732 
L 95.717523 200.85587 
L 97.82929 200.842698 
L 98.885173 200.792202 
L 99.941057 201.274806 
L 102.052824 201.275596 
L 103.108707 201.654007 
L 104.164591 201.891734 
L 105.220474 201.782003 
L 107.332241 201.302238 
L 108.388124 201.138806 
L 109.444008 201.123935 
L 110.499891 201.258294 
L 111.555774 201.193778 
L 112.611658 201.481641 
L 116.835192 190.16798 
L 121.058725 178.747185 
L 124.226376 171.039455 
L 126.338142 166.414768 
L 128.449909 162.923852 
L 129.505793 161.296482 
L 130.561676 159.940288 
L 131.617559 159.001062 
L 133.729326 157.858222 
L 139.008743 155.739137 
L 141.12051 160.702051 
L 143.232277 166.134723 
L 149.567578 183.444758 
L 151.679344 188.409166 
L 153.791111 192.583025 
L 154.846995 194.317 
L 155.902878 195.816167 
L 158.014645 198.251604 
L 160.126412 200.041803 
L 162.238179 201.383183 
L 164.349946 202.39533 
L 166.461712 203.190267 
L 169.629363 204.068798 
L 171.741129 204.435167 
L 177.020547 204.976341 
L 181.24408 205.185963 
L 185.467614 205.198856 
L 188.635264 205.020026 
L 191.802914 204.638656 
L 193.914681 204.202442 
L 197.082332 203.227525 
L 199.194098 202.340872 
L 201.305865 201.160304 
L 203.417632 199.785728 
L 206.585282 197.344598 
L 208.697049 195.401831 
L 210.808816 193.154311 
L 213.976466 189.512715 
L 216.088233 186.791213 
L 219.255883 182.352338 
L 230.870601 165.305772 
L 235.094135 159.493726 
L 238.261785 155.471864 
L 243.541202 149.222804 
L 245.652969 146.832019 
L 249.876503 142.551578 
L 251.988269 140.696188 
L 261.49122 133.382463 
L 267.826521 129.214318 
L 272.050054 127.059411 
L 274.161821 126.063864 
L 279.441238 123.541276 
L 281.553005 122.574418 
L 285.776539 120.82633 
L 287.888306 120.079281 
L 290.000073 119.266426 
L 293.167723 118.091365 
L 298.44714 116.139219 
L 311.117741 112.775741 
L 318.508925 111.310241 
L 328.011876 110.036446 
L 342.794244 108.353819 
L 349.129544 107.858072 
L 349.129544 107.858072 
" style="fill:none;stroke:#377eb8;stroke-dasharray:12,12;stroke-dashoffset:0;stroke-linecap:round;stroke-linejoin:miter;stroke-width:2;"/>
   </g>
   <g id="patch_6">
    <path d="M 74.177501 236.05972 
L 74.177501 13.852984 
" style="fill:none;stroke:#000000;stroke-linecap:square;stroke-linejoin:miter;stroke-width:0.8;"/>
   </g>
   <g id="patch_7">
    <path d="M 74.177501 236.05972 
L 362.222499 236.05972 
" style="fill:none;stroke:#000000;stroke-linecap:square;stroke-linejoin:miter;stroke-width:0.8;"/>
   </g>
   <g id="legend_1">
    <g id="patch_8">
     <path d="M 170.431144 72.479241 
L 356.822499 72.479241 
Q 360.422499 72.479241 360.422499 68.879241 
L 360.422499 19.252984 
Q 360.422499 15.652984 356.822499 15.652984 
L 170.431144 15.652984 
Q 166.831144 15.652984 166.831144 19.252984 
L 166.831144 68.879241 
Q 166.831144 72.479241 170.431144 72.479241 
z
" style="fill:#ffffff;stroke:#cccccc;stroke-linejoin:miter;"/>
    </g>
    <g id="line2d_31">
     <path d="M 174.031144 29.858952 
L 210.031144 29.858952 
" style="fill:none;stroke:#e41a1c;stroke-linecap:square;stroke-width:2;"/>
    </g>
    <g id="line2d_32"/>
    <g id="text_18">
     <!-- Height = Max -->
     <g transform="translate(224.431144 36.158952)scale(0.18 -0.18)">
      <defs>
       <path d="M 326 704 
L 3552 704 
L 3552 1215 
L 326 1215 
L 326 704 
z
M 326 1985 
L 3552 1985 
L 3552 2496 
L 326 2496 
L 326 1985 
z
" id="CenturySchL-Roma-3d" transform="scale(0.015625)"/>
      </defs>
      <use transform="scale(0.996264)" xlink:href="#CenturySchL-Roma-48"/>
      <use transform="translate(82.98843 0)scale(0.996264)" xlink:href="#CenturySchL-Roma-65"/>
      <use transform="translate(132.801631 0)scale(0.996264)" xlink:href="#CenturySchL-Roma-69"/>
      <use transform="translate(164.182944 0)scale(0.996264)" xlink:href="#CenturySchL-Roma-67"/>
      <use transform="translate(217.682288 0)scale(0.996264)" xlink:href="#CenturySchL-Roma-68"/>
      <use transform="translate(278.553918 0)scale(0.996264)" xlink:href="#CenturySchL-Roma-74"/>
      <use transform="translate(345.002794 0)scale(0.996264)" xlink:href="#CenturySchL-Roma-3d"/>
      <use transform="translate(433.070976 0)scale(0.996264)" xlink:href="#CenturySchL-Roma-4d"/>
      <use transform="translate(527.117745 0)scale(0.996264)" xlink:href="#CenturySchL-Roma-61"/>
      <use transform="translate(582.509422 0)scale(0.996264)" xlink:href="#CenturySchL-Roma-78"/>
     </g>
    </g>
    <g id="line2d_33">
     <path d="M 174.031144 55.572081 
L 210.031144 55.572081 
" style="fill:none;stroke:#377eb8;stroke-dasharray:12,12;stroke-dashoffset:0;stroke-linecap:round;stroke-linejoin:miter;stroke-width:2;"/>
    </g>
    <g id="line2d_34"/>
    <g id="text_19">
     <!-- Height = 0.01m -->
     <g transform="translate(224.431144 61.872081)scale(0.18 -0.18)">
      <use transform="scale(0.996264)" xlink:href="#CenturySchL-Roma-48"/>
      <use transform="translate(82.98843 0)scale(0.996264)" xlink:href="#CenturySchL-Roma-65"/>
      <use transform="translate(132.801631 0)scale(0.996264)" xlink:href="#CenturySchL-Roma-69"/>
      <use transform="translate(164.182944 0)scale(0.996264)" xlink:href="#CenturySchL-Roma-67"/>
      <use transform="translate(217.682288 0)scale(0.996264)" xlink:href="#CenturySchL-Roma-68"/>
      <use transform="translate(278.553918 0)scale(0.996264)" xlink:href="#CenturySchL-Roma-74"/>
      <use transform="translate(345.002794 0)scale(0.996264)" xlink:href="#CenturySchL-Roma-3d"/>
      <use transform="translate(433.070976 0)scale(0.996264)" xlink:href="#CenturySchL-Roma-30"/>
      <use transform="translate(488.462653 0)scale(0.996264)" xlink:href="#CenturySchL-Roma-2e"/>
      <use transform="translate(516.157822 0)scale(0.996264)" xlink:href="#CenturySchL-Roma-30"/>
      <use transform="translate(571.549499 0)scale(0.996264)" xlink:href="#CenturySchL-Roma-31"/>
      <use transform="translate(626.941176 0)scale(0.996264)" xlink:href="#CenturySchL-Roma-6d"/>
     </g>
    </g>
   </g>
  </g>
 </g>
 <defs>
  <clipPath id="pce5642323c">
   <rect height="222.206736" width="288.044997" x="74.177501" y="13.852984"/>
  </clipPath>
 </defs>
</svg>
